Benne-ltd.ufo
<glyph name="asterisk" format="1">
  <advance width="340"/>
  <unicode hex="002A"/>
  <outline>
    <contour>
      <point x="185" y="372" type="line"/>
      <point x="196" y="373"/>
      <point x="201" y="380"/>
      <point x="201" y="394" type="curve" smooth="yes"/>
      <point x="200" y="427"/>
      <point x="198" y="458"/>
      <point x="195" y="487" type="curve"/>
      <point x="222" y="478"/>
      <point x="248" y="467"/>
      <point x="274" y="456" type="curve" smooth="yes"/>
      <point x="281" y="453"/>
      <point x="287" y="451"/>
      <point x="290" y="451" type="curve" smooth="yes"/>
      <point x="301" y="451"/>
      <point x="307" y="456"/>
      <point x="307" y="465" type="curve" smooth="yes"/>
      <point x="307" y="474"/>
      <point x="303" y="480"/>
      <point x="295" y="483" type="curve"/>
      <point x="272" y="496"/>
      <point x="244" y="510"/>
      <point x="213" y="525" type="curve"/>
      <point x="286" y="583" type="line"/>
      <point x="292" y="589"/>
      <point x="295" y="595"/>
      <point x="295" y="600" type="curve" smooth="yes"/>
      <point x="295" y="609"/>
      <point x="289" y="614"/>
      <point x="277" y="614" type="curve" smooth="yes"/>
      <point x="272" y="614"/>
      <point x="269" y="613"/>
      <point x="266" y="610" type="curve"/>
      <point x="231" y="589"/>
      <point x="205" y="573"/>
      <point x="187" y="560" type="curve"/>
      <point x="174" y="652" type="line"/>
      <point x="173" y="664"/>
      <point x="167" y="670"/>
      <point x="157" y="670" type="curve" smooth="yes"/>
      <point x="156" y="670" type="line"/>
      <point x="145" y="669"/>
      <point x="140" y="662"/>
      <point x="140" y="648" type="curve" smooth="yes"/>
      <point x="141" y="615"/>
      <point x="143" y="584"/>
      <point x="146" y="555" type="curve"/>
      <point x="119" y="564"/>
      <point x="93" y="575"/>
      <point x="66" y="586" type="curve" smooth="yes"/>
      <point x="59" y="589"/>
      <point x="54" y="591"/>
      <point x="51" y="591" type="curve" smooth="yes"/>
      <point x="40" y="591"/>
      <point x="34" y="587"/>
      <point x="34" y="578" type="curve" smooth="yes"/>
      <point x="34" y="569"/>
      <point x="38" y="562"/>
      <point x="46" y="559" type="curve"/>
      <point x="69" y="546"/>
      <point x="97" y="532"/>
      <point x="128" y="517" type="curve"/>
      <point x="55" y="459" type="line"/>
      <point x="49" y="453"/>
      <point x="46" y="447"/>
      <point x="46" y="442" type="curve" smooth="yes"/>
      <point x="46" y="433"/>
      <point x="52" y="428"/>
      <point x="64" y="428" type="curve" smooth="yes"/>
      <point x="69" y="428"/>
      <point x="72" y="429"/>
      <point x="75" y="432" type="curve"/>
      <point x="110" y="453"/>
      <point x="136" y="469"/>
      <point x="154" y="482" type="curve"/>
      <point x="167" y="390" type="line"/>
      <point x="168" y="378"/>
      <point x="174" y="372"/>
      <point x="184" y="372" type="curve" smooth="yes"/>
    </contour>
  </outline>
</glyph>
<glyph name="slash" format="1">
  <advance width="399"/>
  <unicode hex="002F"/>
  <outline>
    <contour>
      <point x="68" y="-62"/>
      <point x="78" y="-57"/>
      <point x="82" y="-47" type="curve" smooth="yes"/>
      <point x="380" y="650" type="line"/>
      <point x="380" y="652" type="line" smooth="yes"/>
      <point x="380" y="659"/>
      <point x="373" y="665"/>
      <point x="366" y="665" type="curve" smooth="yes"/>
      <point x="345" y="665"/>
      <point x="332" y="659"/>
      <point x="327" y="648" type="curve" smooth="yes"/>
      <point x="30" y="-47" type="line"/>
      <point x="30" y="-49" type="line"/>
      <point x="29" y="-50" type="line"/>
      <point x="29" y="-58"/>
      <point x="37" y="-62"/>
      <point x="53" y="-62" type="curve" smooth="yes"/>
    </contour>
  </outline>
</glyph>
<glyph name="zero" format="1">
  <advance width="507"/>
  <unicode hex="0030"/>
  <outline>
    <contour>
      <point x="372" y="-15"/>
      <point x="467" y="84"/>
      <point x="467" y="202" type="curve" smooth="yes"/>
      <point x="467" y="320"/>
      <point x="370" y="413"/>
      <point x="253" y="413" type="curve" smooth="yes"/>
      <point x="136" y="413"/>
      <point x="40" y="321"/>
      <point x="40" y="203" type="curve" smooth="yes"/>
      <point x="40" y="85"/>
      <point x="136" y="-15"/>
      <point x="254" y="-15" type="curve" smooth="yes"/>
    </contour>
    <contour>
      <point x="169" y="26"/>
      <point x="118" y="111"/>
      <point x="118" y="206" type="curve" smooth="yes"/>
      <point x="118" y="301"/>
      <point x="178" y="372"/>
      <point x="259" y="372" type="curve" smooth="yes"/>
      <point x="339" y="372"/>
      <point x="389" y="296"/>
      <point x="389" y="192" type="curve" smooth="yes"/>
      <point x="389" y="87"/>
      <point x="333" y="26"/>
      <point x="251" y="26" type="curve" smooth="yes"/>
    </contour>
  </outline>
</glyph>
<glyph name="six" format="1">
  <advance width="489"/>
  <unicode hex="0036"/>
  <outline>
    <contour>
      <point x="363" y="-14"/>
      <point x="439" y="77"/>
      <point x="439" y="190" type="curve" smooth="yes"/>
      <point x="439" y="261"/>
      <point x="383" y="313"/>
      <point x="314" y="313" type="curve" smooth="yes"/>
      <point x="297" y="313"/>
      <point x="279" y="309"/>
      <point x="260" y="302" type="curve" smooth="yes"/>
      <point x="220" y="287"/>
      <point x="180" y="257"/>
      <point x="185" y="246" type="curve"/>
      <point x="186" y="243"/>
      <point x="190" y="242"/>
      <point x="196" y="245" type="curve" smooth="yes"/>
      <point x="215" y="255"/>
      <point x="240" y="260"/>
      <point x="270" y="260" type="curve" smooth="yes"/>
      <point x="330" y="260"/>
      <point x="370" y="205"/>
      <point x="370" y="142" type="curve" smooth="yes"/>
      <point x="370" y="54"/>
      <point x="313" y="22"/>
      <point x="267" y="22" type="curve" smooth="yes"/>
      <point x="221" y="22"/>
      <point x="179" y="52"/>
      <point x="158" y="79" type="curve" smooth="yes"/>
      <point x="135" y="107"/>
      <point x="124" y="144"/>
      <point x="124" y="190" type="curve" smooth="yes"/>
      <point x="124" y="374"/>
      <point x="240" y="538"/>
      <point x="415" y="614" type="curve"/>
      <point x="433" y="623" type="line"/>
      <point x="438" y="626"/>
      <point x="441" y="631"/>
      <point x="441" y="636" type="curve" smooth="yes"/>
      <point x="441" y="638"/>
      <point x="438" y="639"/>
      <point x="432" y="639" type="curve" smooth="yes"/>
      <point x="427" y="639" type="line"/>
      <point x="314" y="610"/>
      <point x="212" y="541"/>
      <point x="156" y="477" type="curve" smooth="yes"/>
      <point x="79" y="387"/>
      <point x="41" y="292"/>
      <point x="41" y="193" type="curve" smooth="yes"/>
      <point x="41" y="68"/>
      <point x="105" y="-14"/>
      <point x="234" y="-14" type="curve" smooth="yes"/>
    </contour>
  </outline>
</glyph>
<glyph name="S" format="1">
  <advance width="465"/>
  <unicode hex="0053"/>
  <outline>
    <contour>
      <point x="353" y="-16"/>
      <point x="422" y="68"/>
      <point x="422" y="160" type="curve" smooth="yes"/>
      <point x="422" y="237"/>
      <point x="371" y="309"/>
      <point x="269" y="375" type="curve" smooth="yes"/>
      <point x="214" y="410"/>
      <point x="136" y="462"/>
      <point x="136" y="523" type="curve" smooth="yes"/>
      <point x="136" y="588"/>
      <point x="188" y="631"/>
      <point x="249" y="631" type="curve" smooth="yes"/>
      <point x="309" y="631"/>
      <point x="354" y="597"/>
      <point x="363" y="540" type="curve"/>
      <point x="367" y="521"/>
      <point x="379" y="512"/>
      <point x="398" y="512" type="curve" smooth="yes"/>
      <point x="403" y="512"/>
      <point x="405" y="521"/>
      <point x="405" y="539" type="curve" smooth="yes"/>
      <point x="405" y="574"/>
      <point x="398" y="644"/>
      <point x="379" y="644" type="curve" smooth="yes"/>
      <point x="377" y="644"/>
      <point x="365" y="647"/>
      <point x="343" y="654" type="curve" smooth="yes"/>
      <point x="321" y="661"/>
      <point x="293" y="664"/>
      <point x="260" y="664" type="curve" smooth="yes"/>
      <point x="144" y="664"/>
      <point x="59" y="586"/>
      <point x="59" y="504" type="curve" smooth="yes"/>
      <point x="59" y="422"/>
      <point x="105" y="373"/>
      <point x="186" y="318" type="curve" smooth="yes"/>
      <point x="287" y="250"/>
      <point x="338" y="188"/>
      <point x="338" y="132" type="curve" smooth="yes"/>
      <point x="338" y="61"/>
      <point x="295" y="17"/>
      <point x="227" y="17" type="curve" smooth="yes"/>
      <point x="156" y="17"/>
      <point x="111" y="46"/>
      <point x="92" y="103" type="curve" smooth="yes"/>
      <point x="78" y="147"/>
      <point x="68" y="169"/>
      <point x="63" y="169" type="curve" smooth="yes"/>
      <point x="51" y="169"/>
      <point x="41" y="151"/>
      <point x="41" y="140" type="curve" smooth="yes"/>
      <point x="41" y="89"/>
      <point x="47" y="50"/>
      <point x="59" y="25" type="curve" smooth="yes"/>
      <point x="62" y="19"/>
      <point x="69" y="13"/>
      <point x="80" y="8" type="curve" smooth="yes"/>
      <point x="114" y="-8"/>
      <point x="159" y="-16"/>
      <point x="214" y="-16" type="curve" smooth="yes"/>
    </contour>
  </outline>
</glyph>
<glyph name="Y" format="1">
  <advance width="578"/>
  <unicode hex="0059"/>
  <outline>
    <contour>
      <point x="310" y="0" type="line"/>
      <point x="427" y="-5" type="line"/>
      <point x="446" y="-5"/>
      <point x="456" y="-1"/>
      <point x="456" y="7" type="curve" smooth="yes"/>
      <point x="456" y="14"/>
      <point x="444" y="20"/>
      <point x="421" y="25" type="curve"/>
      <point x="373" y="33"/>
      <point x="344" y="63"/>
      <point x="344" y="108" type="curve" smooth="yes"/>
      <point x="344" y="256" type="line" smooth="yes"/>
      <point x="344" y="297"/>
      <point x="345" y="305"/>
      <point x="369" y="346" type="curve" smooth="yes"/>
      <point x="448" y="481"/>
      <point x="501" y="563"/>
      <point x="528" y="592" type="curve" smooth="yes"/>
      <point x="539" y="604"/>
      <point x="552" y="612"/>
      <point x="568" y="617" type="curve" smooth="yes"/>
      <point x="603" y="627"/>
      <point x="621" y="636"/>
      <point x="621" y="643" type="curve" smooth="yes"/>
      <point x="621" y="650"/>
      <point x="611" y="653"/>
      <point x="592" y="653" type="curve" smooth="yes"/>
      <point x="488" y="650" type="line"/>
      <point x="413" y="651" type="line" smooth="yes"/>
      <point x="394" y="651"/>
      <point x="384" y="647"/>
      <point x="384" y="640" type="curve" smooth="yes"/>
      <point x="384" y="632"/>
      <point x="402" y="623"/>
      <point x="417" y="620" type="curve"/>
      <point x="444" y="616"/>
      <point x="458" y="604"/>
      <point x="458" y="585" type="curve" smooth="yes"/>
      <point x="458" y="571"/>
      <point x="452" y="554"/>
      <point x="440" y="534" type="curve" smooth="yes"/>
      <point x="373" y="416"/>
      <point x="334" y="357"/>
      <point x="323" y="357" type="curve" smooth="yes"/>
      <point x="319" y="357"/>
      <point x="310" y="370"/>
      <point x="295" y="395" type="curve" smooth="yes"/>
      <point x="203" y="560" type="line" smooth="yes"/>
      <point x="194" y="575"/>
      <point x="190" y="587"/>
      <point x="190" y="596" type="curve" smooth="yes"/>
      <point x="190" y="607"/>
      <point x="201" y="616"/>
      <point x="223" y="621" type="curve" smooth="yes"/>
      <point x="244" y="626"/>
      <point x="255" y="632"/>
      <point x="255" y="641" type="curve" smooth="yes"/>
      <point x="255" y="648"/>
      <point x="245" y="652"/>
      <point x="226" y="652" type="curve" smooth="yes"/>
      <point x="146" y="650" type="line"/>
      <point x="29" y="653" type="line" smooth="yes"/>
      <point x="10" y="653"/>
      <point x="0" y="649"/>
      <point x="0" y="642" type="curve" smooth="yes"/>
      <point x="0" y="634"/>
      <point x="11" y="627"/>
      <point x="34" y="620" type="curve" smooth="yes"/>
      <point x="56" y="613"/>
      <point x="85" y="581"/>
      <point x="122" y="522" type="curve" smooth="yes"/>
      <point x="239" y="330" type="line" smooth="yes"/>
      <point x="256" y="300"/>
      <point x="264" y="275"/>
      <point x="264" y="256" type="curve" smooth="yes"/>
      <point x="264" y="108" type="line" smooth="yes"/>
      <point x="264" y="61"/>
      <point x="238" y="33"/>
      <point x="186" y="24" type="curve" smooth="yes"/>
      <point x="164" y="20"/>
      <point x="153" y="14"/>
      <point x="153" y="7" type="curve" smooth="yes"/>
      <point x="153" y="-1"/>
      <point x="163" y="-5"/>
      <point x="182" y="-5" type="curve"/>
    </contour>
  </outline>
</glyph>
<glyph name="b" format="1">
  <advance width="515"/>
  <unicode hex="0062"/>
  <outline>
    <contour>
      <point x="402" y="-14"/>
      <point x="480" y="91"/>
      <point x="480" y="210" type="curve" smooth="yes"/>
      <point x="480" y="329"/>
      <point x="403" y="414"/>
      <point x="300" y="414" type="curve" smooth="yes"/>
      <point x="261" y="414"/>
      <point x="201" y="394"/>
      <point x="154" y="355" type="curve"/>
      <point x="148" y="356"/>
      <point x="145" y="367"/>
      <point x="145" y="388" type="curve" smooth="yes"/>
      <point x="145" y="593" type="line"/>
      <point x="148" y="698" type="line" smooth="yes"/>
      <point x="148" y="703"/>
      <point x="146" y="705"/>
      <point x="142" y="705" type="curve"/>
      <point x="140" y="704" type="line"/>
      <point x="97" y="687" type="line" smooth="yes"/>
      <point x="74" y="677"/>
      <point x="50" y="669"/>
      <point x="27" y="664" type="curve" smooth="yes"/>
      <point x="22" y="663"/>
      <point x="20" y="659"/>
      <point x="20" y="652" type="curve" smooth="yes"/>
      <point x="20" y="645"/>
      <point x="23" y="640"/>
      <point x="28" y="639" type="curve" smooth="yes"/>
      <point x="59" y="632"/>
      <point x="75" y="608"/>
      <point x="75" y="566" type="curve" smooth="yes"/>
      <point x="75" y="105" type="line" smooth="yes"/>
      <point x="75" y="83"/>
      <point x="74" y="64"/>
      <point x="73" y="48" type="curve"/>
      <point x="70" y="29" type="line" smooth="yes"/>
      <point x="69" y="23"/>
      <point x="68" y="18"/>
      <point x="68" y="14" type="curve" smooth="yes"/>
      <point x="68" y="9" type="line" smooth="yes"/>
      <point x="68" y="2"/>
      <point x="77" y="-3"/>
      <point x="82" y="-3" type="curve" smooth="yes"/>
      <point x="85" y="-3"/>
      <point x="89" y="0"/>
      <point x="96" y="6" type="curve" smooth="yes"/>
      <point x="103" y="12"/>
      <point x="107" y="15"/>
      <point x="110" y="15" type="curve" smooth="yes"/>
      <point x="113" y="15"/>
      <point x="132" y="10"/>
      <point x="168" y="1" type="curve" smooth="yes"/>
      <point x="204" y="-9"/>
      <point x="234" y="-14"/>
      <point x="259" y="-14" type="curve" smooth="yes"/>
    </contour>
    <contour>
      <point x="209" y="17"/>
      <point x="145" y="64"/>
      <point x="145" y="132" type="curve" smooth="yes"/>
      <point x="145" y="253" type="line" smooth="yes"/>
      <point x="145" y="295"/>
      <point x="152" y="323"/>
      <point x="166" y="338" type="curve"/>
      <point x="186" y="361"/>
      <point x="233" y="373"/>
      <point x="265" y="373" type="curve" smooth="yes"/>
      <point x="353" y="373"/>
      <point x="405" y="285"/>
      <point x="405" y="190" type="curve" smooth="yes"/>
      <point x="405" y="94"/>
      <point x="357" y="17"/>
      <point x="283" y="17" type="curve" smooth="yes"/>
    </contour>
  </outline>
</glyph>
<glyph name="k" format="1">
  <advance width="469"/>
  <unicode hex="006B"/>
  <outline>
    <contour>
      <point x="472" y="-5"/>
      <point x="479" y="-2"/>
      <point x="479" y="5" type="curve" smooth="yes"/>
      <point x="479" y="11"/>
      <point x="471" y="17"/>
      <point x="456" y="22" type="curve"/>
      <point x="425" y="31"/>
      <point x="398" y="47"/>
      <point x="374" y="70" type="curve"/>
      <point x="350" y="91"/>
      <point x="275" y="173"/>
      <point x="227" y="230" type="curve"/>
      <point x="222" y="235"/>
      <point x="223" y="241"/>
      <point x="230" y="247" type="curve" smooth="yes"/>
      <point x="300" y="308"/>
      <point x="346" y="346"/>
      <point x="367" y="359" type="curve" smooth="yes"/>
      <point x="388" y="372"/>
      <point x="409" y="380"/>
      <point x="428" y="384" type="curve"/>
      <point x="437" y="387"/>
      <point x="448" y="397"/>
      <point x="448" y="406" type="curve" smooth="yes"/>
      <point x="448" y="410"/>
      <point x="445" y="412"/>
      <point x="440" y="412" type="curve" smooth="yes"/>
      <point x="438" y="412"/>
      <point x="425" y="410"/>
      <point x="401" y="406" type="curve" smooth="yes"/>
      <point x="377" y="402"/>
      <point x="358" y="400"/>
      <point x="344" y="400" type="curve" smooth="yes"/>
      <point x="295" y="400" type="line" smooth="yes"/>
      <point x="280" y="400"/>
      <point x="273" y="395"/>
      <point x="273" y="386" type="curve" smooth="yes"/>
      <point x="273" y="383"/>
      <point x="277" y="381"/>
      <point x="285" y="378" type="curve"/>
      <point x="302" y="374"/>
      <point x="311" y="368"/>
      <point x="311" y="361" type="curve" smooth="yes"/>
      <point x="311" y="360"/>
      <point x="311" y="359"/>
      <point x="310" y="358" type="curve"/>
      <point x="294" y="335"/>
      <point x="256" y="298"/>
      <point x="196" y="245" type="curve" smooth="yes"/>
      <point x="181" y="232"/>
      <point x="168" y="224"/>
      <point x="159" y="224" type="curve" smooth="yes"/>
      <point x="156" y="224"/>
      <point x="155" y="226"/>
      <point x="155" y="231" type="curve" smooth="yes"/>
      <point x="155" y="562" type="line" smooth="yes"/>
      <point x="155" y="601"/>
      <point x="157" y="639"/>
      <point x="162" y="676" type="curve"/>
      <point x="163" y="687"/>
      <point x="164" y="694"/>
      <point x="164" y="699" type="curve" smooth="yes"/>
      <point x="164" y="703"/>
      <point x="162" y="705"/>
      <point x="158" y="705" type="curve"/>
      <point x="157" y="704" type="line"/>
      <point x="156" y="704" type="line"/>
      <point x="97" y="682"/>
      <point x="58" y="669"/>
      <point x="38" y="664" type="curve"/>
      <point x="33" y="663"/>
      <point x="31" y="659"/>
      <point x="31" y="652" type="curve" smooth="yes"/>
      <point x="31" y="645"/>
      <point x="34" y="640"/>
      <point x="39" y="639" type="curve" smooth="yes"/>
      <point x="72" y="632"/>
      <point x="85" y="613"/>
      <point x="85" y="566" type="curve" smooth="yes"/>
      <point x="85" y="65" type="line" smooth="yes"/>
      <point x="85" y="34"/>
      <point x="61" y="30"/>
      <point x="37" y="22" type="curve" smooth="yes"/>
      <point x="25" y="18"/>
      <point x="19" y="13"/>
      <point x="19" y="7" type="curve" smooth="yes"/>
      <point x="19" y="0"/>
      <point x="27" y="-3"/>
      <point x="42" y="-3" type="curve"/>
      <point x="94" y="0"/>
      <point x="120" y="2"/>
      <point x="120" y="2" type="curve"/>
      <point x="167" y="-1"/>
      <point x="190" y="-3"/>
      <point x="190" y="-3" type="curve" smooth="yes"/>
      <point x="205" y="-3"/>
      <point x="213" y="0"/>
      <point x="213" y="7" type="curve" smooth="yes"/>
      <point x="213" y="13"/>
      <point x="205" y="19"/>
      <point x="190" y="24" type="curve"/>
      <point x="158" y="33"/>
      <point x="153" y="52"/>
      <point x="153" y="83" type="curve" smooth="yes"/>
      <point x="153" y="98"/>
      <point x="154" y="115"/>
      <point x="154" y="134" type="curve" smooth="yes"/>
      <point x="154" y="165"/>
      <point x="154" y="184"/>
      <point x="155" y="193" type="curve"/>
      <point x="155" y="203"/>
      <point x="156" y="207"/>
      <point x="161" y="207" type="curve" smooth="yes"/>
      <point x="163" y="207"/>
      <point x="164" y="206"/>
      <point x="165" y="205" type="curve"/>
      <point x="291" y="60" type="line" smooth="yes"/>
      <point x="296" y="54"/>
      <point x="298" y="49"/>
      <point x="298" y="46" type="curve" smooth="yes"/>
      <point x="298" y="39"/>
      <point x="291" y="33"/>
      <point x="276" y="28" type="curve" smooth="yes"/>
      <point x="261" y="23"/>
      <point x="254" y="16"/>
      <point x="254" y="9" type="curve" smooth="yes"/>
      <point x="254" y="3"/>
      <point x="262" y="0"/>
      <point x="277" y="0" type="curve" smooth="yes"/>
      <point x="459" y="-5" type="line" smooth="yes"/>
    </contour>
  </outline>
</glyph>
<glyph name="y" format="1">
  <advance width="438"/>
  <unicode hex="0079"/>
  <outline>
    <contour>
      <point x="127" y="-285"/>
      <point x="139" y="-221"/>
      <point x="170" y="-146" type="curve" smooth="yes"/>
      <point x="185" y="-109"/>
      <point x="198" y="-78"/>
      <point x="209" y="-53" type="curve" smooth="yes"/>
      <point x="225" y="-13" type="line"/>
      <point x="361" y="311" type="line" smooth="yes"/>
      <point x="374" y="343"/>
      <point x="399" y="371"/>
      <point x="424" y="380" type="curve"/>
      <point x="437" y="384"/>
      <point x="443" y="389"/>
      <point x="443" y="396" type="curve" smooth="yes"/>
      <point x="443" y="402"/>
      <point x="436" y="405"/>
      <point x="423" y="405" type="curve"/>
      <point x="364" y="400" type="line"/>
      <point x="293" y="405" type="line"/>
      <point x="280" y="405"/>
      <point x="273" y="401"/>
      <point x="273" y="394" type="curve" smooth="yes"/>
      <point x="273" y="387"/>
      <point x="281" y="380"/>
      <point x="298" y="373" type="curve" smooth="yes"/>
      <point x="314" y="366"/>
      <point x="322" y="354"/>
      <point x="322" y="338" type="curve" smooth="yes"/>
      <point x="322" y="321"/>
      <point x="319" y="307"/>
      <point x="314" y="295" type="curve" smooth="yes"/>
      <point x="247" y="117" type="line" smooth="yes"/>
      <point x="244" y="110"/>
      <point x="242" y="107"/>
      <point x="239" y="107" type="curve" smooth="yes"/>
      <point x="237" y="107"/>
      <point x="234" y="110"/>
      <point x="232" y="116" type="curve" smooth="yes"/>
      <point x="153" y="312" type="line" smooth="yes"/>
      <point x="148" y="325"/>
      <point x="145" y="334"/>
      <point x="145" y="340" type="curve" smooth="yes"/>
      <point x="145" y="357"/>
      <point x="152" y="368"/>
      <point x="165" y="372" type="curve"/>
      <point x="184" y="377"/>
      <point x="194" y="385"/>
      <point x="194" y="394" type="curve" smooth="yes"/>
      <point x="194" y="401"/>
      <point x="187" y="405"/>
      <point x="174" y="405" type="curve"/>
      <point x="98" y="400" type="line"/>
      <point x="25" y="405" type="line"/>
      <point x="12" y="405"/>
      <point x="5" y="402"/>
      <point x="5" y="396" type="curve" smooth="yes"/>
      <point x="5" y="389"/>
      <point x="13" y="383"/>
      <point x="28" y="378" type="curve"/>
      <point x="47" y="373"/>
      <point x="62" y="356"/>
      <point x="73" y="329" type="curve" smooth="yes"/>
      <point x="189" y="36" type="line" smooth="yes"/>
      <point x="192" y="29"/>
      <point x="193" y="20"/>
      <point x="193" y="9" type="curve" smooth="yes"/>
      <point x="193" y="-2"/>
      <point x="192" y="-10"/>
      <point x="190" y="-16" type="curve"/>
      <point x="160" y="-95"/>
      <point x="130" y="-161"/>
      <point x="99" y="-214" type="curve"/>
      <point x="94" y="-221"/>
      <point x="88" y="-225"/>
      <point x="80" y="-225" type="curve"/>
      <point x="40" y="-219" type="line"/>
      <point x="22" y="-219"/>
      <point x="13" y="-229"/>
      <point x="13" y="-249" type="curve" smooth="yes"/>
      <point x="13" y="-270"/>
      <point x="39" y="-285"/>
      <point x="64" y="-285" type="curve" smooth="yes"/>
    </contour>
  </outline>
</glyph>
<glyph name="braceright" format="1">
  <advance width="373"/>
  <unicode hex="007D"/>
  <outline>
    <contour>
      <point x="160" y="-154"/>
      <point x="255" y="-108"/>
      <point x="255" y="-21" type="curve" smooth="yes"/>
      <point x="255" y="3"/>
      <point x="253" y="34"/>
      <point x="249" y="71" type="curve" smooth="yes"/>
      <point x="244" y="108"/>
      <point x="242" y="137"/>
      <point x="242" y="157" type="curve" smooth="yes"/>
      <point x="242" y="211"/>
      <point x="274" y="250"/>
      <point x="337" y="273" type="curve"/>
      <point x="344" y="276"/>
      <point x="348" y="279"/>
      <point x="348" y="282" type="curve" smooth="yes"/>
      <point x="348" y="285"/>
      <point x="346" y="287"/>
      <point x="342" y="287" type="curve" smooth="yes"/>
      <point x="340" y="287"/>
      <point x="338" y="287"/>
      <point x="337" y="288" type="curve"/>
      <point x="274" y="311"/>
      <point x="242" y="350"/>
      <point x="242" y="404" type="curve" smooth="yes"/>
      <point x="242" y="424"/>
      <point x="244" y="453"/>
      <point x="249" y="490" type="curve" smooth="yes"/>
      <point x="253" y="527"/>
      <point x="255" y="558"/>
      <point x="255" y="582" type="curve" smooth="yes"/>
      <point x="255" y="669"/>
      <point x="160" y="715"/>
      <point x="53" y="715" type="curve" smooth="yes"/>
      <point x="41" y="715"/>
      <point x="35" y="710"/>
      <point x="35" y="700" type="curve" smooth="yes"/>
      <point x="35" y="692"/>
      <point x="44" y="688"/>
      <point x="61" y="688" type="curve" smooth="yes"/>
      <point x="133" y="688"/>
      <point x="190" y="655"/>
      <point x="190" y="587" type="curve" smooth="yes"/>
      <point x="190" y="564"/>
      <point x="188" y="534"/>
      <point x="184" y="497" type="curve" smooth="yes"/>
      <point x="179" y="460"/>
      <point x="177" y="433"/>
      <point x="177" y="414" type="curve" smooth="yes"/>
      <point x="177" y="354"/>
      <point x="233" y="304"/>
      <point x="285" y="283" type="curve"/>
      <point x="287" y="282"/>
      <point x="286" y="280"/>
      <point x="283" y="279" type="curve"/>
      <point x="242" y="268"/>
      <point x="177" y="206"/>
      <point x="177" y="147" type="curve" smooth="yes"/>
      <point x="177" y="128"/>
      <point x="179" y="101"/>
      <point x="184" y="64" type="curve" smooth="yes"/>
      <point x="188" y="27"/>
      <point x="190" y="-3"/>
      <point x="190" y="-26" type="curve" smooth="yes"/>
      <point x="190" y="-94"/>
      <point x="133" y="-127"/>
      <point x="61" y="-127" type="curve" smooth="yes"/>
      <point x="44" y="-127"/>
      <point x="35" y="-131"/>
      <point x="35" y="-139" type="curve" smooth="yes"/>
      <point x="35" y="-149"/>
      <point x="41" y="-154"/>
      <point x="53" y="-154" type="curve" smooth="yes"/>
    </contour>
  </outline>
</glyph>
<glyph name="guillemotleft" format="1">
  <advance width="676"/>
  <unicode hex="00AB"/>
  <outline>
    <contour>
      <point x="571" y="19"/>
      <point x="574" y="24"/>
      <point x="574" y="34" type="curve" smooth="yes"/>
      <point x="574" y="54"/>
      <point x="491" y="147"/>
      <point x="419" y="203" type="curve" smooth="yes"/>
      <point x="415" y="206"/>
      <point x="413" y="208"/>
      <point x="413" y="210" type="curve" smooth="yes"/>
      <point x="413" y="212"/>
      <point x="415" y="214"/>
      <point x="419" y="217" type="curve" smooth="yes"/>
      <point x="496" y="277"/>
      <point x="576" y="363"/>
      <point x="576" y="391" type="curve" smooth="yes"/>
      <point x="576" y="397"/>
      <point x="574" y="400"/>
      <point x="570" y="400" type="curve" smooth="yes"/>
      <point x="563" y="400"/>
      <point x="553" y="394"/>
      <point x="541" y="382" type="curve" smooth="yes"/>
      <point x="488" y="331"/>
      <point x="412" y="276"/>
      <point x="315" y="218" type="curve"/>
      <point x="313" y="217"/>
      <point x="312" y="214"/>
      <point x="312" y="210" type="curve" smooth="yes"/>
      <point x="312" y="202"/>
      <point x="321" y="187"/>
      <point x="330" y="182" type="curve"/>
      <point x="404" y="148"/>
      <point x="472" y="100"/>
      <point x="535" y="37" type="curve" smooth="yes"/>
      <point x="547" y="25"/>
      <point x="557" y="19"/>
      <point x="565" y="19" type="curve" smooth="yes"/>
    </contour>
    <contour>
      <point x="359" y="19"/>
      <point x="362" y="24"/>
      <point x="362" y="34" type="curve" smooth="yes"/>
      <point x="362" y="54"/>
      <point x="279" y="147"/>
      <point x="207" y="203" type="curve" smooth="yes"/>
      <point x="203" y="206"/>
      <point x="201" y="208"/>
      <point x="201" y="210" type="curve" smooth="yes"/>
      <point x="201" y="212"/>
      <point x="203" y="214"/>
      <point x="207" y="217" type="curve" smooth="yes"/>
      <point x="284" y="277"/>
      <point x="364" y="363"/>
      <point x="364" y="391" type="curve" smooth="yes"/>
      <point x="364" y="397"/>
      <point x="362" y="400"/>
      <point x="358" y="400" type="curve" smooth="yes"/>
      <point x="351" y="400"/>
      <point x="341" y="394"/>
      <point x="329" y="382" type="curve" smooth="yes"/>
      <point x="276" y="331"/>
      <point x="200" y="276"/>
      <point x="103" y="218" type="curve"/>
      <point x="101" y="217"/>
      <point x="100" y="214"/>
      <point x="100" y="210" type="curve" smooth="yes"/>
      <point x="100" y="202"/>
      <point x="109" y="187"/>
      <point x="118" y="182" type="curve"/>
      <point x="192" y="148"/>
      <point x="260" y="100"/>
      <point x="323" y="37" type="curve" smooth="yes"/>
      <point x="335" y="25"/>
      <point x="345" y="19"/>
      <point x="353" y="19" type="curve" smooth="yes"/>
    </contour>
  </outline>
</glyph>
<glyph name="uni00B5" format="1">
  <advance width="510"/>
  <unicode hex="00B5"/>
  <outline>
    <contour>
      <point x="128" y="-285"/>
      <point x="137" y="-275"/>
      <point x="137" y="-254" type="curve" smooth="yes"/>
      <point x="137" y="-249"/>
      <point x="133" y="-238"/>
      <point x="124" y="-219" type="curve" smooth="yes"/>
      <point x="115" y="-201"/>
      <point x="105" y="-179"/>
      <point x="94" y="-152" type="curve" smooth="yes"/>
      <point x="73" y="-99"/>
      <point x="60" y="-20"/>
      <point x="60" y="27" type="curve" smooth="yes"/>
      <point x="60" y="50"/>
      <point x="63" y="62"/>
      <point x="70" y="62" type="curve" smooth="yes"/>
      <point x="73" y="62"/>
      <point x="79" y="57"/>
      <point x="88" y="48" type="curve"/>
      <point x="96" y="39"/>
      <point x="119" y="21"/>
      <point x="136" y="10" type="curve"/>
      <point x="152" y="-2"/>
      <point x="180" y="-13"/>
      <point x="210" y="-13" type="curve" smooth="yes"/>
      <point x="225" y="-13"/>
      <point x="241" y="-3"/>
      <point x="260" y="17" type="curve" smooth="yes"/>
      <point x="291" y="50"/>
      <point x="313" y="82"/>
      <point x="326" y="114" type="curve"/>
      <point x="329" y="89"/>
      <point x="333" y="67"/>
      <point x="339" y="48" type="curve"/>
      <point x="359" y="-1"/>
      <point x="374" y="-15"/>
      <point x="408" y="-15" type="curve" smooth="yes"/>
      <point x="442" y="-15"/>
      <point x="461" y="-6"/>
      <point x="489" y="39" type="curve"/>
      <point x="499" y="53"/>
      <point x="504" y="71"/>
      <point x="504" y="94" type="curve" smooth="yes"/>
      <point x="504" y="100" type="line" smooth="yes"/>
      <point x="504" y="103"/>
      <point x="499" y="109"/>
      <point x="493" y="109" type="curve" smooth="yes"/>
      <point x="490" y="109"/>
      <point x="487" y="108"/>
      <point x="485" y="104" type="curve"/>
      <point x="472" y="77"/>
      <point x="450" y="64"/>
      <point x="420" y="64" type="curve" smooth="yes"/>
      <point x="380" y="64"/>
      <point x="357" y="118"/>
      <point x="357" y="159" type="curve" smooth="yes"/>
      <point x="357" y="180"/>
      <point x="365" y="214"/>
      <point x="381" y="263" type="curve" smooth="yes"/>
      <point x="397" y="312"/>
      <point x="405" y="341"/>
      <point x="405" y="352" type="curve" smooth="yes"/>
      <point x="405" y="394"/>
      <point x="392" y="415"/>
      <point x="366" y="415" type="curve" smooth="yes"/>
      <point x="334" y="415"/>
      <point x="317" y="376"/>
      <point x="317" y="332" type="curve" smooth="yes"/>
      <point x="317" y="313" type="line" smooth="yes"/>
      <point x="317" y="273"/>
      <point x="315" y="239"/>
      <point x="310" y="211" type="curve" smooth="yes"/>
      <point x="301" y="154"/>
      <point x="265" y="50"/>
      <point x="169" y="50" type="curve" smooth="yes"/>
      <point x="129" y="50"/>
      <point x="91" y="102"/>
      <point x="91" y="131" type="curve" smooth="yes"/>
      <point x="91" y="145"/>
      <point x="96" y="180"/>
      <point x="107" y="237" type="curve" smooth="yes"/>
      <point x="117" y="294"/>
      <point x="122" y="329"/>
      <point x="122" y="343" type="curve" smooth="yes"/>
      <point x="122" y="393"/>
      <point x="109" y="418"/>
      <point x="83" y="418" type="curve" smooth="yes"/>
      <point x="47" y="418"/>
      <point x="31" y="380"/>
      <point x="31" y="332" type="curve" smooth="yes"/>
      <point x="38" y="92" type="line"/>
      <point x="31" y="0" type="line"/>
      <point x="31" y="-43"/>
      <point x="33" y="-89"/>
      <point x="36" y="-140" type="curve" smooth="yes"/>
      <point x="42" y="-242"/>
      <point x="52" y="-285"/>
      <point x="109" y="-285" type="curve" smooth="yes"/>
    </contour>
  </outline>
</glyph>
<glyph name="ordmasculine" format="1">
  <advance width="309"/>
  <unicode hex="00BA"/>
  <outline>
    <contour>
      <point x="271" y="196" type="line" smooth="yes"/>
      <point x="278" y="196"/>
      <point x="285" y="190"/>
      <point x="285" y="187" type="curve" smooth="yes"/>
      <point x="285" y="185"/>
      <point x="285" y="183"/>
      <point x="284" y="182" type="curve"/>
      <point x="277" y="168"/>
      <point x="266" y="161"/>
      <point x="253" y="161" type="curve" smooth="yes"/>
      <point x="39" y="161" type="line" smooth="yes"/>
      <point x="32" y="161"/>
      <point x="25" y="166"/>
      <point x="25" y="174" type="curve" smooth="yes"/>
      <point x="25" y="182"/>
      <point x="37" y="196"/>
      <point x="49" y="196" type="curve" smooth="yes"/>
    </contour>
    <contour>
      <point x="223" y="443"/>
      <point x="193" y="491"/>
      <point x="150" y="491" type="curve" smooth="yes"/>
      <point x="106" y="491"/>
      <point x="86" y="453"/>
      <point x="86" y="400" type="curve" smooth="yes"/>
      <point x="86" y="347"/>
      <point x="118" y="299"/>
      <point x="160" y="299" type="curve" smooth="yes"/>
      <point x="202" y="299"/>
      <point x="223" y="337"/>
      <point x="223" y="390" type="curve" smooth="yes"/>
    </contour>
    <contour>
      <point x="25" y="462"/>
      <point x="88" y="524"/>
      <point x="157" y="524" type="curve" smooth="yes"/>
      <point x="226" y="524"/>
      <point x="284" y="469"/>
      <point x="284" y="400" type="curve" smooth="yes"/>
      <point x="284" y="331"/>
      <point x="231" y="268"/>
      <point x="155" y="268" type="curve" smooth="yes"/>
      <point x="78" y="268"/>
      <point x="25" y="317"/>
      <point x="25" y="390" type="curve" smooth="yes"/>
    </contour>
  </outline>
</glyph>
<glyph name="onehalf" format="1">
  <advance width="699"/>
  <unicode hex="00BD"/>
  <outline>
    <contour>
      <point x="675" y="95" type="line"/>
      <point x="662" y="58"/>
      <point x="654" y="32"/>
      <point x="651" y="19" type="curve" smooth="yes"/>
      <point x="648" y="5"/>
      <point x="646" y="-3"/>
      <point x="645" y="-5" type="curve"/>
      <point x="644" y="-8"/>
      <point x="642" y="-9"/>
      <point x="640" y="-9" type="curve" smooth="yes"/>
      <point x="636" y="-9" type="line"/>
      <point x="602" y="-7"/>
      <point x="568" y="-6"/>
      <point x="533" y="-6" type="curve" smooth="yes"/>
      <point x="498" y="-6"/>
      <point x="463" y="-7"/>
      <point x="429" y="-8" type="curve"/>
      <point x="427" y="-9"/>
      <point x="426" y="-7"/>
      <point x="425" y="-4" type="curve"/>
      <point x="424" y="0"/>
      <point x="426" y="4"/>
      <point x="429" y="8" type="curve"/>
      <point x="468" y="48" type="line" smooth="yes"/>
      <point x="469" y="49"/>
      <point x="473" y="53"/>
      <point x="482" y="61" type="curve" smooth="yes"/>
      <point x="498" y="76"/>
      <point x="510" y="86"/>
      <point x="530" y="109" type="curve" smooth="yes"/>
      <point x="549" y="132"/>
      <point x="579" y="169"/>
      <point x="579" y="206" type="curve" smooth="yes"/>
      <point x="579" y="243"/>
      <point x="553" y="270"/>
      <point x="520" y="270" type="curve" smooth="yes"/>
      <point x="487" y="270"/>
      <point x="471" y="263"/>
      <point x="443" y="232" type="curve"/>
      <point x="440" y="225"/>
      <point x="434" y="225"/>
      <point x="430" y="229" type="curve" smooth="yes"/>
      <point x="428" y="231"/>
      <point x="427" y="234"/>
      <point x="427" y="237" type="curve" smooth="yes"/>
      <point x="427" y="265"/>
      <point x="484" y="324"/>
      <point x="540" y="324" type="curve" smooth="yes"/>
      <point x="596" y="324"/>
      <point x="635" y="282"/>
      <point x="635" y="231" type="curve" smooth="yes"/>
      <point x="635" y="214"/>
      <point x="632" y="200"/>
      <point x="626" y="191" type="curve"/>
      <point x="620" y="181"/>
      <point x="616" y="175"/>
      <point x="615" y="173" type="curve" smooth="yes"/>
      <point x="614" y="171"/>
      <point x="611" y="167"/>
      <point x="608" y="162" type="curve" smooth="yes"/>
      <point x="605" y="157"/>
      <point x="601" y="151"/>
      <point x="597" y="146" type="curve"/>
      <point x="589" y="134"/>
      <point x="553" y="98"/>
      <point x="525" y="73" type="curve" smooth="yes"/>
      <point x="511" y="60"/>
      <point x="503" y="53"/>
      <point x="502" y="52" type="curve" smooth="yes"/>
      <point x="500" y="50"/>
      <point x="501" y="49"/>
      <point x="504" y="48" type="curve" smooth="yes"/>
      <point x="507" y="47"/>
      <point x="511" y="46"/>
      <point x="514" y="46" type="curve" smooth="yes"/>
      <point x="583" y="46" type="line" smooth="yes"/>
      <point x="612" y="46"/>
      <point x="642" y="65"/>
      <point x="657" y="96" type="curve"/>
      <point x="662" y="109"/>
      <point x="676" y="106"/>
      <point x="676" y="99" type="curve"/>
    </contour>
    <contour>
      <point x="533" y="638" type="line" smooth="yes"/>
      <point x="540" y="649"/>
      <point x="553" y="655"/>
      <point x="572" y="655" type="curve" smooth="yes"/>
      <point x="579" y="655"/>
      <point x="586" y="648"/>
      <point x="586" y="643" type="curve" smooth="yes"/>
      <point x="586" y="640"/>
      <point x="586" y="639"/>
      <point x="585" y="638" type="curve"/>
      <point x="173" y="-11" type="line" smooth="yes"/>
      <point x="167" y="-21"/>
      <point x="155" y="-26"/>
      <point x="137" y="-26" type="curve" smooth="yes"/>
      <point x="128" y="-26"/>
      <point x="116" y="-18"/>
      <point x="121" y="-11" type="curve"/>
    </contour>
    <contour>
      <point x="165" y="433" type="line"/>
      <point x="166" y="354" type="line" smooth="yes"/>
      <point x="167" y="317"/>
      <point x="171" y="315"/>
      <point x="216" y="308" type="curve" smooth="yes"/>
      <point x="224" y="307"/>
      <point x="228" y="302"/>
      <point x="228" y="295" type="curve" smooth="yes"/>
      <point x="228" y="287"/>
      <point x="224" y="283"/>
      <point x="216" y="283" type="curve" smooth="yes"/>
      <point x="195" y="283"/>
      <point x="178" y="284"/>
      <point x="166" y="286" type="curve"/>
      <point x="153" y="287"/>
      <point x="143" y="288"/>
      <point x="134" y="288" type="curve" smooth="yes"/>
      <point x="125" y="288"/>
      <point x="115" y="287"/>
      <point x="102" y="286" type="curve"/>
      <point x="89" y="284"/>
      <point x="72" y="283"/>
      <point x="52" y="283" type="curve" smooth="yes"/>
      <point x="45" y="283"/>
      <point x="41" y="287"/>
      <point x="41" y="296" type="curve" smooth="yes"/>
      <point x="41" y="304"/>
      <point x="46" y="308"/>
      <point x="55" y="309" type="curve"/>
      <point x="74" y="309"/>
      <point x="85" y="311"/>
      <point x="97" y="325" type="curve" smooth="yes"/>
      <point x="103" y="332"/>
      <point x="106" y="341"/>
      <point x="106" y="354" type="curve" smooth="yes"/>
      <point x="106" y="507" type="line" smooth="yes"/>
      <point x="106" y="526"/>
      <point x="88" y="541"/>
      <point x="52" y="554" type="curve"/>
      <point x="45" y="557"/>
      <point x="41" y="562"/>
      <point x="41" y="569" type="curve" smooth="yes"/>
      <point x="41" y="576"/>
      <point x="44" y="580"/>
      <point x="51" y="581" type="curve"/>
      <point x="98" y="586"/>
      <point x="125" y="607"/>
      <point x="140" y="618" type="curve"/>
      <point x="151" y="625"/>
      <point x="158" y="628"/>
      <point x="161" y="628" type="curve" smooth="yes"/>
      <point x="168" y="628"/>
      <point x="171" y="623"/>
      <point x="170" y="614" type="curve"/>
      <point x="167" y="595"/>
      <point x="166" y="572"/>
      <point x="166" y="544" type="curve" smooth="yes"/>
    </contour>
  </outline>
</glyph>
<glyph name="threequarters" format="1">
  <advance width="641"/>
  <unicode hex="00BE"/>
  <outline>
    <contour>
      <point x="76" y="274"/>
      <point x="53" y="285"/>
      <point x="53" y="307" type="curve" smooth="yes"/>
      <point x="53" y="316"/>
      <point x="63" y="335"/>
      <point x="72" y="335" type="curve" smooth="yes"/>
      <point x="77" y="335"/>
      <point x="81" y="333"/>
      <point x="84" y="330" type="curve"/>
      <point x="106" y="315"/>
      <point x="128" y="308"/>
      <point x="151" y="308" type="curve" smooth="yes"/>
      <point x="174" y="308"/>
      <point x="210" y="332"/>
      <point x="210" y="377" type="curve" smooth="yes"/>
      <point x="210" y="422"/>
      <point x="180" y="457"/>
      <point x="143" y="457" type="curve" smooth="yes"/>
      <point x="136" y="457"/>
      <point x="127" y="456"/>
      <point x="118" y="453" type="curve" smooth="yes"/>
      <point x="108" y="450"/>
      <point x="102" y="450"/>
      <point x="99" y="451" type="curve" smooth="yes"/>
      <point x="93" y="453"/>
      <point x="88" y="457"/>
      <point x="96" y="465" type="curve" smooth="yes"/>
      <point x="99" y="468"/>
      <point x="107" y="472"/>
      <point x="119" y="477" type="curve"/>
      <point x="131" y="481"/>
      <point x="139" y="484"/>
      <point x="142" y="486" type="curve" smooth="yes"/>
      <point x="145" y="488"/>
      <point x="149" y="491"/>
      <point x="156" y="495" type="curve"/>
      <point x="168" y="503"/>
      <point x="171" y="505"/>
      <point x="180" y="513" type="curve"/>
      <point x="184" y="516"/>
      <point x="187" y="519"/>
      <point x="188" y="522" type="curve"/>
      <point x="193" y="531"/>
      <point x="196" y="541"/>
      <point x="196" y="550" type="curve" smooth="yes"/>
      <point x="196" y="568"/>
      <point x="169" y="585"/>
      <point x="149" y="585" type="curve" smooth="yes"/>
      <point x="125" y="585"/>
      <point x="101" y="575"/>
      <point x="77" y="555" type="curve"/>
      <point x="68" y="546"/>
      <point x="57" y="552"/>
      <point x="61" y="560" type="curve" smooth="yes"/>
      <point x="110" y="656"/>
      <point x="252" y="653"/>
      <point x="252" y="561" type="curve" smooth="yes"/>
      <point x="252" y="536"/>
      <point x="232" y="514"/>
      <point x="193" y="494" type="curve" smooth="yes"/>
      <point x="191" y="493"/>
      <point x="190" y="492"/>
      <point x="190" y="491" type="curve" smooth="yes"/>
      <point x="190" y="490"/>
      <point x="191" y="489"/>
      <point x="193" y="489" type="curve" smooth="yes"/>
      <point x="236" y="488"/>
      <point x="262" y="448"/>
      <point x="262" y="401" type="curve" smooth="yes"/>
      <point x="262" y="326"/>
      <point x="184" y="274"/>
      <point x="121" y="274" type="curve" smooth="yes"/>
    </contour>
    <contour>
      <point x="533" y="638" type="line" smooth="yes"/>
      <point x="540" y="649"/>
      <point x="553" y="655"/>
      <point x="572" y="655" type="curve" smooth="yes"/>
      <point x="580" y="655"/>
      <point x="589" y="645"/>
      <point x="585" y="638" type="curve"/>
      <point x="173" y="-11" type="line" smooth="yes"/>
      <point x="167" y="-21"/>
      <point x="155" y="-26"/>
      <point x="137" y="-26" type="curve" smooth="yes"/>
      <point x="129" y="-26"/>
      <point x="120" y="-19"/>
      <point x="120" y="-15" type="curve" smooth="yes"/>
      <point x="120" y="-13"/>
      <point x="120" y="-12"/>
      <point x="121" y="-11" type="curve"/>
    </contour>
    <contour>
      <point x="502" y="148" type="line" smooth="yes"/>
      <point x="507" y="148"/>
      <point x="510" y="150"/>
      <point x="510" y="153" type="curve" smooth="yes"/>
      <point x="510" y="264" type="line" smooth="yes"/>
      <point x="510" y="265"/>
      <point x="509" y="266"/>
      <point x="508" y="266" type="curve" smooth="yes"/>
      <point x="507" y="266"/>
      <point x="505" y="266"/>
      <point x="504" y="265" type="curve"/>
      <point x="478" y="236"/>
      <point x="447" y="199"/>
      <point x="411" y="153" type="curve"/>
      <point x="409" y="150"/>
      <point x="409" y="148"/>
      <point x="411" y="148" type="curve" smooth="yes"/>
    </contour>
    <contour>
      <point x="584" y="108" type="line" smooth="yes"/>
      <point x="569" y="108"/>
      <point x="562" y="106"/>
      <point x="562" y="103" type="curve" smooth="yes"/>
      <point x="562" y="19" type="line" smooth="yes"/>
      <point x="562" y="6"/>
      <point x="527" y="-10"/>
      <point x="519" y="-10" type="curve" smooth="yes"/>
      <point x="513" y="-10"/>
      <point x="510" y="-7"/>
      <point x="510" y="-2" type="curve" smooth="yes"/>
      <point x="510" y="100" type="line" smooth="yes"/>
      <point x="510" y="103"/>
      <point x="507" y="105"/>
      <point x="501" y="105" type="curve" smooth="yes"/>
      <point x="355" y="101" type="line" smooth="yes"/>
      <point x="350" y="101"/>
      <point x="348" y="103"/>
      <point x="348" y="108" type="curve"/>
      <point x="349" y="109" type="line"/>
      <point x="389" y="164"/>
      <point x="536" y="346"/>
      <point x="553" y="350" type="curve"/>
      <point x="554" y="350" type="line" smooth="yes"/>
      <point x="558" y="350"/>
      <point x="560" y="347"/>
      <point x="560" y="342" type="curve" smooth="yes"/>
      <point x="560" y="264"/>
      <point x="561" y="200"/>
      <point x="562" y="151" type="curve" smooth="yes"/>
      <point x="562" y="148"/>
      <point x="563" y="147"/>
      <point x="565" y="147" type="curve" smooth="yes"/>
      <point x="583" y="147" type="line" smooth="yes"/>
      <point x="600" y="147"/>
      <point x="612" y="147"/>
      <point x="620" y="148" type="curve"/>
      <point x="627" y="148"/>
      <point x="631" y="146"/>
      <point x="631" y="143" type="curve" smooth="yes"/>
      <point x="631" y="130"/>
      <point x="622" y="107"/>
      <point x="618" y="107" type="curve" smooth="yes"/>
    </contour>
  </outline>
</glyph>
<glyph name="Acircumflex" format="1">
  <advance width="684"/>
  <unicode hex="00C2"/>
  <outline>
    <contour>
      <point x="322" y="739"/>
      <point x="245" y="701"/>
      <point x="229" y="701" type="curve" smooth="yes"/>
      <point x="221" y="701"/>
      <point x="217" y="704"/>
      <point x="217" y="711" type="curve" smooth="yes"/>
      <point x="217" y="715"/>
      <point x="219" y="719"/>
      <point x="224" y="723" type="curve"/>
      <point x="322" y="811" type="line" smooth="yes"/>
      <point x="339" y="826"/>
      <point x="352" y="833"/>
      <point x="363" y="833" type="curve" smooth="yes"/>
      <point x="374" y="833"/>
      <point x="387" y="826"/>
      <point x="404" y="811" type="curve" smooth="yes"/>
      <point x="502" y="723" type="line"/>
      <point x="506" y="720"/>
      <point x="508" y="716"/>
      <point x="508" y="711" type="curve" smooth="yes"/>
      <point x="508" y="704"/>
      <point x="504" y="700"/>
      <point x="497" y="700" type="curve" smooth="yes"/>
      <point x="481" y="700"/>
      <point x="403" y="739"/>
      <point x="380" y="752" type="curve"/>
      <point x="369" y="759"/>
      <point x="360" y="760"/>
      <point x="353" y="756" type="curve" smooth="yes"/>
    </contour>
    <contour>
      <point x="147" y="1" type="line"/>
      <point x="27" y="-5" type="line"/>
      <point x="8" y="-5"/>
      <point x="-2" y="-1"/>
      <point x="-2" y="8" type="curve" smooth="yes"/>
      <point x="-2" y="16"/>
      <point x="9" y="24"/>
      <point x="31" y="31" type="curve" smooth="yes"/>
      <point x="71" y="43"/>
      <point x="100" y="69"/>
      <point x="117" y="108" type="curve" smooth="yes"/>
      <point x="181" y="255"/>
      <point x="243" y="411"/>
      <point x="304" y="578" type="curve"/>
      <point x="313" y="600"/>
      <point x="317" y="615"/>
      <point x="317" y="624" type="curve" smooth="yes"/>
      <point x="317" y="632"/>
      <point x="317" y="636"/>
      <point x="318" y="636" type="curve"/>
      <point x="342" y="644"/>
      <point x="356" y="651"/>
      <point x="360" y="656" type="curve" smooth="yes"/>
      <point x="364" y="661"/>
      <point x="367" y="664"/>
      <point x="368" y="667" type="curve"/>
      <point x="371" y="673"/>
      <point x="373" y="676"/>
      <point x="375" y="676" type="curve" smooth="yes"/>
      <point x="378" y="676"/>
      <point x="382" y="671"/>
      <point x="385" y="662" type="curve" smooth="yes"/>
      <point x="434" y="507"/>
      <point x="494" y="329"/>
      <point x="563" y="128" type="curve" smooth="yes"/>
      <point x="588" y="55"/>
      <point x="617" y="36"/>
      <point x="663" y="28" type="curve" smooth="yes"/>
      <point x="686" y="24"/>
      <point x="697" y="16"/>
      <point x="697" y="5" type="curve" smooth="yes"/>
      <point x="697" y="-2"/>
      <point x="687" y="-5"/>
      <point x="668" y="-5" type="curve"/>
      <point x="529" y="1" type="line"/>
      <point x="424" y="0" type="line" smooth="yes"/>
      <point x="405" y="0"/>
      <point x="395" y="4"/>
      <point x="395" y="12" type="curve" smooth="yes"/>
      <point x="395" y="21"/>
      <point x="406" y="28"/>
      <point x="428" y="31" type="curve" smooth="yes"/>
      <point x="469" y="38"/>
      <point x="489" y="53"/>
      <point x="489" y="76" type="curve" smooth="yes"/>
      <point x="489" y="96"/>
      <point x="476" y="148"/>
      <point x="451" y="233" type="curve" smooth="yes"/>
      <point x="449" y="240"/>
      <point x="440" y="244"/>
      <point x="424" y="244" type="curve" smooth="yes"/>
      <point x="233" y="244" type="line" smooth="yes"/>
      <point x="226" y="244"/>
      <point x="220" y="238"/>
      <point x="216" y="226" type="curve" smooth="yes"/>
      <point x="189" y="149"/>
      <point x="176" y="103"/>
      <point x="176" y="88" type="curve" smooth="yes"/>
      <point x="176" y="59"/>
      <point x="199" y="39"/>
      <point x="238" y="29" type="curve" smooth="yes"/>
      <point x="257" y="24"/>
      <point x="267" y="17"/>
      <point x="267" y="10" type="curve" smooth="yes"/>
      <point x="267" y="3"/>
      <point x="257" y="-1"/>
      <point x="238" y="-1" type="curve" smooth="yes"/>
    </contour>
    <contour>
      <point x="243" y="302" type="line"/>
      <point x="242" y="298"/>
      <point x="241" y="295"/>
      <point x="241" y="294" type="curve" smooth="yes"/>
      <point x="241" y="289"/>
      <point x="248" y="287"/>
      <point x="262" y="287" type="curve" smooth="yes"/>
      <point x="417" y="287" type="line" smooth="yes"/>
      <point x="426" y="287"/>
      <point x="431" y="289"/>
      <point x="431" y="292" type="curve" smooth="yes"/>
      <point x="431" y="293"/>
      <point x="430" y="297"/>
      <point x="429" y="302" type="curve"/>
      <point x="350" y="541" type="line" smooth="yes"/>
      <point x="346" y="553"/>
      <point x="343" y="559"/>
      <point x="342" y="559" type="curve" smooth="yes"/>
      <point x="340" y="559"/>
      <point x="337" y="553"/>
      <point x="333" y="542" type="curve" smooth="yes"/>
    </contour>
  </outline>
</glyph>
<glyph name="AE" format="1">
  <advance width="866"/>
  <unicode hex="00C6"/>
  <outline>
    <contour>
      <point x="475" y="648" type="line"/>
      <point x="776" y="653" type="line"/>
      <point x="784" y="653" type="line" smooth="yes"/>
      <point x="795" y="653"/>
      <point x="801" y="650"/>
      <point x="802" y="644" type="curve" smooth="yes"/>
      <point x="809" y="605"/>
      <point x="813" y="571"/>
      <point x="814" y="541" type="curve" smooth="yes"/>
      <point x="814" y="535"/>
      <point x="810" y="532"/>
      <point x="803" y="532" type="curve" smooth="yes"/>
      <point x="796" y="532"/>
      <point x="791" y="535"/>
      <point x="789" y="542" type="curve"/>
      <point x="773" y="590"/>
      <point x="756" y="618"/>
      <point x="699" y="618" type="curve" smooth="yes"/>
      <point x="568" y="618" type="line" smooth="yes"/>
      <point x="553" y="618"/>
      <point x="533" y="608"/>
      <point x="533" y="592" type="curve" smooth="yes"/>
      <point x="533" y="354" type="line" smooth="yes"/>
      <point x="533" y="342"/>
      <point x="541" y="332"/>
      <point x="550" y="332" type="curve" smooth="yes"/>
      <point x="614" y="332"/>
      <point x="674" y="333"/>
      <point x="690" y="347" type="curve"/>
      <point x="697" y="354"/>
      <point x="702" y="360"/>
      <point x="705" y="366" type="curve"/>
      <point x="710" y="378"/>
      <point x="721" y="388"/>
      <point x="726" y="388" type="curve" smooth="yes"/>
      <point x="728" y="388"/>
      <point x="731" y="386"/>
      <point x="734" y="383" type="curve" smooth="yes"/>
      <point x="737" y="380"/>
      <point x="738" y="371"/>
      <point x="737" y="358" type="curve" smooth="yes"/>
      <point x="736" y="344"/>
      <point x="735" y="328"/>
      <point x="735" y="311" type="curve" smooth="yes"/>
      <point x="735" y="293"/>
      <point x="736" y="269"/>
      <point x="738" y="240" type="curve"/>
      <point x="738" y="229"/>
      <point x="735" y="223"/>
      <point x="729" y="223" type="curve" smooth="yes"/>
      <point x="718" y="223"/>
      <point x="711" y="231"/>
      <point x="706" y="246" type="curve" smooth="yes"/>
      <point x="690" y="295"/>
      <point x="637" y="287"/>
      <point x="556" y="287" type="curve" smooth="yes"/>
      <point x="541" y="287"/>
      <point x="533" y="279"/>
      <point x="533" y="264" type="curve" smooth="yes"/>
      <point x="533" y="111" type="line" smooth="yes"/>
      <point x="533" y="70"/>
      <point x="555" y="35"/>
      <point x="598" y="35" type="curve" smooth="yes"/>
      <point x="702" y="35" type="line" smooth="yes"/>
      <point x="713" y="35"/>
      <point x="767" y="45"/>
      <point x="778" y="53" type="curve" smooth="yes"/>
      <point x="791" y="63"/>
      <point x="805" y="84"/>
      <point x="820" y="116" type="curve"/>
      <point x="828" y="131"/>
      <point x="847" y="127"/>
      <point x="847" y="115" type="curve" smooth="yes"/>
      <point x="847" y="90"/>
      <point x="841" y="56"/>
      <point x="830" y="12" type="curve" smooth="yes"/>
      <point x="827" y="1"/>
      <point x="823" y="-5"/>
      <point x="816" y="-5" type="curve" smooth="yes"/>
      <point x="512" y="1" type="line"/>
      <point x="492" y="1" type="line"/>
      <point x="377" y="-5" type="line"/>
      <point x="358" y="-5"/>
      <point x="348" y="-1"/>
      <point x="348" y="7" type="curve" smooth="yes"/>
      <point x="348" y="14"/>
      <point x="360" y="20"/>
      <point x="384" y="25" type="curve"/>
      <point x="431" y="33"/>
      <point x="454" y="52"/>
      <point x="454" y="96" type="curve" smooth="yes"/>
      <point x="454" y="267" type="line" smooth="yes"/>
      <point x="454" y="279"/>
      <point x="451" y="285"/>
      <point x="432" y="285" type="curve" smooth="yes"/>
      <point x="291" y="285" type="line" smooth="yes"/>
      <point x="279" y="285"/>
      <point x="269" y="277"/>
      <point x="261" y="262" type="curve"/>
      <point x="237" y="221"/>
      <point x="210" y="171"/>
      <point x="179" y="112" type="curve" smooth="yes"/>
      <point x="173" y="101"/>
      <point x="170" y="91"/>
      <point x="170" y="82" type="curve" smooth="yes"/>
      <point x="170" y="58"/>
      <point x="192" y="41"/>
      <point x="235" y="30" type="curve" smooth="yes"/>
      <point x="257" y="24"/>
      <point x="268" y="17"/>
      <point x="268" y="10" type="curve" smooth="yes"/>
      <point x="268" y="3"/>
      <point x="258" y="-1"/>
      <point x="239" y="-1" type="curve" smooth="yes"/>
      <point x="150" y="1" type="line"/>
      <point x="24" y="-5" type="line"/>
      <point x="5" y="-5"/>
      <point x="-5" y="-1"/>
      <point x="-5" y="7" type="curve" smooth="yes"/>
      <point x="-5" y="14"/>
      <point x="5" y="21"/>
      <point x="24" y="27" type="curve" smooth="yes"/>
      <point x="63" y="38"/>
      <point x="104" y="78"/>
      <point x="132" y="126" type="curve" smooth="yes"/>
      <point x="405" y="594" type="line" smooth="yes"/>
      <point x="410" y="602"/>
      <point x="401" y="610"/>
      <point x="388" y="611" type="curve"/>
      <point x="300" y="626" type="line"/>
      <point x="293" y="629"/>
      <point x="290" y="634"/>
      <point x="290" y="641" type="curve" smooth="yes"/>
      <point x="290" y="648"/>
      <point x="293" y="651"/>
      <point x="300" y="651" type="curve" smooth="yes"/>
    </contour>
    <contour>
      <point x="302" y="343" type="line" smooth="yes"/>
      <point x="299" y="338"/>
      <point x="298" y="335"/>
      <point x="298" y="332" type="curve" smooth="yes"/>
      <point x="298" y="329"/>
      <point x="303" y="328"/>
      <point x="314" y="328" type="curve" smooth="yes"/>
      <point x="438" y="328" type="line" smooth="yes"/>
      <point x="454" y="328"/>
      <point x="454" y="328"/>
      <point x="454" y="343" type="curve" smooth="yes"/>
      <point x="454" y="580" type="line" smooth="yes"/>
      <point x="454" y="592"/>
      <point x="453" y="598"/>
      <point x="451" y="598" type="curve" smooth="yes"/>
      <point x="448" y="598"/>
      <point x="444" y="592"/>
      <point x="438" y="581" type="curve" smooth="yes"/>
    </contour>
  </outline>
</glyph>
<glyph name="Ccedilla" format="1">
  <advance width="640"/>
  <unicode hex="00C7"/>
  <outline>
    <contour>
      <point x="352" y="-132" type="line"/>
      <point x="336" y="-132"/>
      <point x="326" y="-122"/>
      <point x="326" y="-114" type="curve" smooth="yes"/>
      <point x="326" y="-110"/>
      <point x="328" y="-105"/>
      <point x="332" y="-100" type="curve"/>
      <point x="412" y="8" type="line"/>
      <point x="443" y="8" type="line"/>
      <point x="402" y="-54" type="line"/>
      <point x="397" y="-60"/>
      <point x="402" y="-66"/>
      <point x="417" y="-72" type="curve" smooth="yes"/>
      <point x="445" y="-84"/>
      <point x="478" y="-116"/>
      <point x="478" y="-159" type="curve" smooth="yes"/>
      <point x="478" y="-222"/>
      <point x="402" y="-275"/>
      <point x="346" y="-275" type="curve" smooth="yes"/>
      <point x="318" y="-275"/>
      <point x="304" y="-264"/>
      <point x="304" y="-243" type="curve" smooth="yes"/>
      <point x="304" y="-220"/>
      <point x="309" y="-209"/>
      <point x="320" y="-209" type="curve" smooth="yes"/>
      <point x="321" y="-209"/>
      <point x="324" y="-210"/>
      <point x="328" y="-212" type="curve"/>
      <point x="339" y="-219"/>
      <point x="353" y="-222"/>
      <point x="372" y="-222" type="curve" smooth="yes"/>
      <point x="407" y="-222"/>
      <point x="425" y="-209"/>
      <point x="425" y="-183" type="curve" smooth="yes"/>
      <point x="425" y="-155"/>
      <point x="410" y="-129"/>
      <point x="378" y="-129" type="curve"/>
    </contour>
    <contour>
      <point x="614" y="88"/>
      <point x="603" y="51"/>
      <point x="586" y="26" type="curve"/>
      <point x="583" y="21"/>
      <point x="564" y="13"/>
      <point x="528" y="2" type="curve" smooth="yes"/>
      <point x="491" y="-9"/>
      <point x="438" y="-15"/>
      <point x="369" y="-15" type="curve" smooth="yes"/>
      <point x="189" y="-15"/>
      <point x="46" y="138"/>
      <point x="46" y="326" type="curve" smooth="yes"/>
      <point x="46" y="513"/>
      <point x="213" y="663"/>
      <point x="410" y="663" type="curve" smooth="yes"/>
      <point x="457" y="663"/>
      <point x="492" y="659"/>
      <point x="516" y="651" type="curve" smooth="yes"/>
      <point x="540" y="643"/>
      <point x="565" y="637"/>
      <point x="592" y="633" type="curve"/>
      <point x="607" y="632"/>
      <point x="612" y="560"/>
      <point x="613" y="518" type="curve" smooth="yes"/>
      <point x="614" y="497"/>
      <point x="613" y="483"/>
      <point x="612" y="478" type="curve"/>
      <point x="610" y="473"/>
      <point x="607" y="470"/>
      <point x="602" y="471" type="curve"/>
      <point x="589" y="472"/>
      <point x="580" y="485"/>
      <point x="576" y="508" type="curve"/>
      <point x="572" y="539"/>
      <point x="560" y="563"/>
      <point x="541" y="581" type="curve" smooth="yes"/>
      <point x="507" y="615"/>
      <point x="456" y="632"/>
      <point x="389" y="632" type="curve" smooth="yes"/>
      <point x="253" y="632"/>
      <point x="146" y="499"/>
      <point x="146" y="347" type="curve" smooth="yes"/>
      <point x="146" y="236"/>
      <point x="186" y="130"/>
      <point x="266" y="65" type="curve" smooth="yes"/>
      <point x="305" y="32"/>
      <point x="350" y="16"/>
      <point x="400" y="16" type="curve" smooth="yes"/>
      <point x="483" y="16"/>
      <point x="545" y="56"/>
      <point x="586" y="137" type="curve"/>
      <point x="589" y="142"/>
      <point x="593" y="146"/>
      <point x="600" y="150" type="curve"/>
      <point x="607" y="153"/>
      <point x="610" y="155"/>
      <point x="611" y="156" type="curve" smooth="yes"/>
      <point x="612" y="157"/>
      <point x="612" y="157"/>
      <point x="613" y="157" type="curve" smooth="yes"/>
      <point x="618" y="157"/>
      <point x="620" y="151"/>
      <point x="620" y="138" type="curve"/>
    </contour>
  </outline>
</glyph>
<glyph name="Iacute" format="1">
  <advance width="340"/>
  <unicode hex="00CD"/>
  <outline>
    <contour>
      <point x="159" y="700"/>
      <point x="153" y="697"/>
      <point x="149" y="697" type="curve" smooth="yes"/>
      <point x="145" y="697"/>
      <point x="143" y="699"/>
      <point x="143" y="704" type="curve" smooth="yes"/>
      <point x="143" y="713"/>
      <point x="170" y="758"/>
      <point x="225" y="837" type="curve" smooth="yes"/>
      <point x="231" y="846"/>
      <point x="239" y="850"/>
      <point x="250" y="850" type="curve" smooth="yes"/>
      <point x="271" y="850"/>
      <point x="310" y="839"/>
      <point x="310" y="828" type="curve" smooth="yes"/>
      <point x="310" y="823"/>
      <point x="306" y="816"/>
      <point x="297" y="808" type="curve" smooth="yes"/>
      <point x="267" y="783"/>
      <point x="224" y="749"/>
      <point x="167" y="706" type="curve" smooth="yes"/>
    </contour>
    <contour>
      <point x="176" y="0" type="line"/>
      <point x="48" y="-5" type="line"/>
      <point x="29" y="-5"/>
      <point x="19" y="-1"/>
      <point x="19" y="7" type="curve" smooth="yes"/>
      <point x="19" y="14"/>
      <point x="31" y="20"/>
      <point x="56" y="25" type="curve" smooth="yes"/>
      <point x="104" y="33"/>
      <point x="130" y="53"/>
      <point x="130" y="98" type="curve" smooth="yes"/>
      <point x="130" y="550" type="line" smooth="yes"/>
      <point x="130" y="597"/>
      <point x="113" y="613"/>
      <point x="66" y="622" type="curve" smooth="yes"/>
      <point x="42" y="626"/>
      <point x="30" y="633"/>
      <point x="30" y="642" type="curve" smooth="yes"/>
      <point x="30" y="649"/>
      <point x="40" y="653"/>
      <point x="59" y="653" type="curve" smooth="yes"/>
      <point x="176" y="650" type="line"/>
      <point x="285" y="653" type="line" smooth="yes"/>
      <point x="304" y="653"/>
      <point x="314" y="649"/>
      <point x="314" y="642" type="curve" smooth="yes"/>
      <point x="314" y="633"/>
      <point x="302" y="626"/>
      <point x="278" y="622" type="curve" smooth="yes"/>
      <point x="230" y="613"/>
      <point x="210" y="595"/>
      <point x="210" y="550" type="curve" smooth="yes"/>
      <point x="210" y="98" type="line" smooth="yes"/>
      <point x="210" y="53"/>
      <point x="237" y="33"/>
      <point x="286" y="25" type="curve"/>
      <point x="310" y="20"/>
      <point x="322" y="14"/>
      <point x="322" y="7" type="curve" smooth="yes"/>
      <point x="322" y="-1"/>
      <point x="312" y="-5"/>
      <point x="293" y="-5" type="curve"/>
    </contour>
  </outline>
</glyph>
<glyph name="Icircumflex" format="1">
  <advance width="340"/>
  <unicode hex="00CE"/>
  <outline>
    <contour>
      <point x="140" y="739"/>
      <point x="63" y="701"/>
      <point x="47" y="701" type="curve" smooth="yes"/>
      <point x="39" y="701"/>
      <point x="35" y="704"/>
      <point x="35" y="711" type="curve" smooth="yes"/>
      <point x="35" y="715"/>
      <point x="37" y="719"/>
      <point x="42" y="723" type="curve"/>
      <point x="140" y="811" type="line" smooth="yes"/>
      <point x="157" y="826"/>
      <point x="170" y="833"/>
      <point x="181" y="833" type="curve" smooth="yes"/>
      <point x="192" y="833"/>
      <point x="205" y="826"/>
      <point x="222" y="811" type="curve" smooth="yes"/>
      <point x="320" y="723" type="line"/>
      <point x="324" y="720"/>
      <point x="326" y="716"/>
      <point x="326" y="711" type="curve" smooth="yes"/>
      <point x="326" y="704"/>
      <point x="322" y="700"/>
      <point x="315" y="700" type="curve" smooth="yes"/>
      <point x="299" y="700"/>
      <point x="221" y="739"/>
      <point x="198" y="752" type="curve"/>
      <point x="187" y="759"/>
      <point x="178" y="760"/>
      <point x="171" y="756" type="curve" smooth="yes"/>
    </contour>
    <contour>
      <point x="176" y="0" type="line"/>
      <point x="48" y="-5" type="line"/>
      <point x="29" y="-5"/>
      <point x="19" y="-1"/>
      <point x="19" y="7" type="curve" smooth="yes"/>
      <point x="19" y="14"/>
      <point x="31" y="20"/>
      <point x="56" y="25" type="curve" smooth="yes"/>
      <point x="104" y="33"/>
      <point x="130" y="53"/>
      <point x="130" y="98" type="curve" smooth="yes"/>
      <point x="130" y="550" type="line" smooth="yes"/>
      <point x="130" y="597"/>
      <point x="113" y="613"/>
      <point x="66" y="622" type="curve" smooth="yes"/>
      <point x="42" y="626"/>
      <point x="30" y="633"/>
      <point x="30" y="642" type="curve" smooth="yes"/>
      <point x="30" y="649"/>
      <point x="40" y="653"/>
      <point x="59" y="653" type="curve" smooth="yes"/>
      <point x="176" y="650" type="line"/>
      <point x="285" y="653" type="line" smooth="yes"/>
      <point x="304" y="653"/>
      <point x="314" y="649"/>
      <point x="314" y="642" type="curve" smooth="yes"/>
      <point x="314" y="633"/>
      <point x="302" y="626"/>
      <point x="278" y="622" type="curve" smooth="yes"/>
      <point x="230" y="613"/>
      <point x="210" y="595"/>
      <point x="210" y="550" type="curve" smooth="yes"/>
      <point x="210" y="98" type="line" smooth="yes"/>
      <point x="210" y="53"/>
      <point x="237" y="33"/>
      <point x="286" y="25" type="curve"/>
      <point x="310" y="20"/>
      <point x="322" y="14"/>
      <point x="322" y="7" type="curve" smooth="yes"/>
      <point x="322" y="-1"/>
      <point x="312" y="-5"/>
      <point x="293" y="-5" type="curve"/>
    </contour>
  </outline>
</glyph>
<glyph name="Idieresis" format="1">
  <advance width="340"/>
  <unicode hex="00CF"/>
  <outline>
    <contour>
      <point x="252" y="796"/>
      <point x="264" y="801"/>
      <point x="278" y="801" type="curve" smooth="yes"/>
      <point x="306" y="801"/>
      <point x="328" y="779"/>
      <point x="328" y="751" type="curve" smooth="yes"/>
      <point x="328" y="723"/>
      <point x="306" y="701"/>
      <point x="278" y="701" type="curve" smooth="yes"/>
      <point x="250" y="701"/>
      <point x="228" y="723"/>
      <point x="228" y="751" type="curve" smooth="yes"/>
      <point x="228" y="765"/>
      <point x="233" y="777"/>
      <point x="243" y="787" type="curve" smooth="yes"/>
    </contour>
    <contour>
      <point x="57" y="796"/>
      <point x="69" y="801"/>
      <point x="83" y="801" type="curve" smooth="yes"/>
      <point x="111" y="801"/>
      <point x="133" y="779"/>
      <point x="133" y="751" type="curve" smooth="yes"/>
      <point x="133" y="723"/>
      <point x="111" y="701"/>
      <point x="83" y="701" type="curve" smooth="yes"/>
      <point x="55" y="701"/>
      <point x="33" y="723"/>
      <point x="33" y="751" type="curve" smooth="yes"/>
      <point x="33" y="765"/>
      <point x="38" y="777"/>
      <point x="48" y="787" type="curve" smooth="yes"/>
    </contour>
    <contour>
      <point x="176" y="0" type="line"/>
      <point x="48" y="-5" type="line"/>
      <point x="29" y="-5"/>
      <point x="19" y="-1"/>
      <point x="19" y="7" type="curve" smooth="yes"/>
      <point x="19" y="14"/>
      <point x="31" y="20"/>
      <point x="56" y="25" type="curve" smooth="yes"/>
      <point x="104" y="33"/>
      <point x="130" y="53"/>
      <point x="130" y="98" type="curve" smooth="yes"/>
      <point x="130" y="550" type="line" smooth="yes"/>
      <point x="130" y="597"/>
      <point x="113" y="613"/>
      <point x="66" y="622" type="curve" smooth="yes"/>
      <point x="42" y="626"/>
      <point x="30" y="633"/>
      <point x="30" y="642" type="curve" smooth="yes"/>
      <point x="30" y="649"/>
      <point x="40" y="653"/>
      <point x="59" y="653" type="curve" smooth="yes"/>
      <point x="176" y="650" type="line"/>
      <point x="285" y="653" type="line" smooth="yes"/>
      <point x="304" y="653"/>
      <point x="314" y="649"/>
      <point x="314" y="642" type="curve" smooth="yes"/>
      <point x="314" y="633"/>
      <point x="302" y="626"/>
      <point x="278" y="622" type="curve" smooth="yes"/>
      <point x="230" y="613"/>
      <point x="210" y="595"/>
      <point x="210" y="550" type="curve" smooth="yes"/>
      <point x="210" y="98" type="line" smooth="yes"/>
      <point x="210" y="53"/>
      <point x="237" y="33"/>
      <point x="286" y="25" type="curve"/>
      <point x="310" y="20"/>
      <point x="322" y="14"/>
      <point x="322" y="7" type="curve" smooth="yes"/>
      <point x="322" y="-1"/>
      <point x="312" y="-5"/>
      <point x="293" y="-5" type="curve"/>
    </contour>
  </outline>
</glyph>
<glyph name="Otilde" format="1">
  <advance width="763"/>
  <unicode hex="00D5"/>
  <outline>
    <contour>
      <point x="448" y="790" type="line"/>
      <point x="461" y="790"/>
      <point x="474" y="797"/>
      <point x="487" y="810" type="curve"/>
      <point x="499" y="823"/>
      <point x="506" y="829"/>
      <point x="508" y="829" type="curve" smooth="yes"/>
      <point x="519" y="829"/>
      <point x="525" y="822"/>
      <point x="525" y="809" type="curve" smooth="yes"/>
      <point x="525" y="781"/>
      <point x="478" y="727"/>
      <point x="442" y="727" type="curve"/>
      <point x="321" y="736" type="line"/>
      <point x="308" y="736"/>
      <point x="295" y="729"/>
      <point x="284" y="716" type="curve" smooth="yes"/>
      <point x="272" y="702"/>
      <point x="265" y="695"/>
      <point x="264" y="695" type="curve" smooth="yes"/>
      <point x="255" y="695"/>
      <point x="245" y="703"/>
      <point x="245" y="712" type="curve" smooth="yes"/>
      <point x="245" y="747"/>
      <point x="296" y="801"/>
      <point x="332" y="801" type="curve"/>
    </contour>
    <contour>
      <point x="621" y="497"/>
      <point x="530" y="625"/>
      <point x="381" y="625" type="curve" smooth="yes"/>
      <point x="232" y="625"/>
      <point x="142" y="502"/>
      <point x="142" y="340" type="curve" smooth="yes"/>
      <point x="142" y="178"/>
      <point x="251" y="25"/>
      <point x="396" y="25" type="curve" smooth="yes"/>
      <point x="541" y="25"/>
      <point x="621" y="128"/>
      <point x="621" y="313" type="curve" smooth="yes"/>
    </contour>
    <contour>
      <point x="45" y="444"/>
      <point x="95" y="550"/>
      <point x="202" y="615" type="curve" smooth="yes"/>
      <point x="255" y="648"/>
      <point x="318" y="664"/>
      <point x="390" y="664" type="curve" smooth="yes"/>
      <point x="569" y="664"/>
      <point x="718" y="527"/>
      <point x="718" y="335" type="curve" smooth="yes"/>
      <point x="718" y="241"/>
      <point x="689" y="160"/>
      <point x="632" y="93" type="curve" smooth="yes"/>
      <point x="577" y="28"/>
      <point x="487" y="-14"/>
      <point x="382" y="-14" type="curve" smooth="yes"/>
      <point x="202" y="-14"/>
      <point x="45" y="133"/>
      <point x="45" y="320" type="curve" smooth="yes"/>
    </contour>
  </outline>
</glyph>
<glyph name="Odieresis" format="1">
  <advance width="763"/>
  <unicode hex="00D6"/>
  <outline>
    <contour>
      <point x="454" y="796"/>
      <point x="466" y="801"/>
      <point x="480" y="801" type="curve" smooth="yes"/>
      <point x="508" y="801"/>
      <point x="530" y="779"/>
      <point x="530" y="751" type="curve" smooth="yes"/>
      <point x="530" y="723"/>
      <point x="508" y="701"/>
      <point x="480" y="701" type="curve" smooth="yes"/>
      <point x="452" y="701"/>
      <point x="430" y="723"/>
      <point x="430" y="751" type="curve" smooth="yes"/>
      <point x="430" y="765"/>
      <point x="435" y="777"/>
      <point x="445" y="787" type="curve" smooth="yes"/>
    </contour>
    <contour>
      <point x="259" y="796"/>
      <point x="271" y="801"/>
      <point x="285" y="801" type="curve" smooth="yes"/>
      <point x="313" y="801"/>
      <point x="335" y="779"/>
      <point x="335" y="751" type="curve" smooth="yes"/>
      <point x="335" y="723"/>
      <point x="313" y="701"/>
      <point x="285" y="701" type="curve" smooth="yes"/>
      <point x="257" y="701"/>
      <point x="235" y="723"/>
      <point x="235" y="751" type="curve" smooth="yes"/>
      <point x="235" y="765"/>
      <point x="240" y="777"/>
      <point x="250" y="787" type="curve" smooth="yes"/>
    </contour>
    <contour>
      <point x="621" y="497"/>
      <point x="530" y="625"/>
      <point x="381" y="625" type="curve" smooth="yes"/>
      <point x="232" y="625"/>
      <point x="142" y="502"/>
      <point x="142" y="340" type="curve" smooth="yes"/>
      <point x="142" y="178"/>
      <point x="251" y="25"/>
      <point x="396" y="25" type="curve" smooth="yes"/>
      <point x="541" y="25"/>
      <point x="621" y="128"/>
      <point x="621" y="313" type="curve" smooth="yes"/>
    </contour>
    <contour>
      <point x="45" y="444"/>
      <point x="95" y="550"/>
      <point x="202" y="615" type="curve" smooth="yes"/>
      <point x="255" y="648"/>
      <point x="318" y="664"/>
      <point x="390" y="664" type="curve" smooth="yes"/>
      <point x="569" y="664"/>
      <point x="718" y="527"/>
      <point x="718" y="335" type="curve" smooth="yes"/>
      <point x="718" y="241"/>
      <point x="689" y="160"/>
      <point x="632" y="93" type="curve" smooth="yes"/>
      <point x="577" y="28"/>
      <point x="487" y="-14"/>
      <point x="382" y="-14" type="curve" smooth="yes"/>
      <point x="202" y="-14"/>
      <point x="45" y="133"/>
      <point x="45" y="320" type="curve" smooth="yes"/>
    </contour>
  </outline>
</glyph>
<glyph name="Ucircumflex" format="1">
  <advance width="738"/>
  <unicode hex="00DB"/>
  <outline>
    <contour>
      <point x="349" y="739"/>
      <point x="272" y="701"/>
      <point x="256" y="701" type="curve" smooth="yes"/>
      <point x="248" y="701"/>
      <point x="244" y="704"/>
      <point x="244" y="711" type="curve" smooth="yes"/>
      <point x="244" y="715"/>
      <point x="246" y="719"/>
      <point x="251" y="723" type="curve"/>
      <point x="349" y="811" type="line" smooth="yes"/>
      <point x="366" y="826"/>
      <point x="379" y="833"/>
      <point x="390" y="833" type="curve" smooth="yes"/>
      <point x="401" y="833"/>
      <point x="414" y="826"/>
      <point x="431" y="811" type="curve" smooth="yes"/>
      <point x="529" y="723" type="line"/>
      <point x="533" y="720"/>
      <point x="535" y="716"/>
      <point x="535" y="711" type="curve" smooth="yes"/>
      <point x="535" y="704"/>
      <point x="531" y="700"/>
      <point x="524" y="700" type="curve" smooth="yes"/>
      <point x="508" y="700"/>
      <point x="430" y="739"/>
      <point x="407" y="752" type="curve"/>
      <point x="396" y="759"/>
      <point x="387" y="760"/>
      <point x="380" y="756" type="curve" smooth="yes"/>
    </contour>
    <contour>
      <point x="618" y="650" type="line"/>
      <point x="699" y="653" type="line"/>
      <point x="718" y="653"/>
      <point x="728" y="649"/>
      <point x="728" y="642" type="curve" smooth="yes"/>
      <point x="728" y="633"/>
      <point x="717" y="627"/>
      <point x="695" y="622" type="curve" smooth="yes"/>
      <point x="664" y="616"/>
      <point x="647" y="591"/>
      <point x="645" y="547" type="curve"/>
      <point x="644" y="540"/>
      <point x="641" y="441"/>
      <point x="635" y="250" type="curve" smooth="yes"/>
      <point x="630" y="95"/>
      <point x="524" y="-14"/>
      <point x="380" y="-14" type="curve" smooth="yes"/>
      <point x="191" y="-14"/>
      <point x="103" y="84"/>
      <point x="103" y="281" type="curve" smooth="yes"/>
      <point x="103" y="547" type="line" smooth="yes"/>
      <point x="103" y="587"/>
      <point x="88" y="611"/>
      <point x="57" y="620" type="curve" smooth="yes"/>
      <point x="35" y="626"/>
      <point x="24" y="633"/>
      <point x="24" y="642" type="curve" smooth="yes"/>
      <point x="24" y="649"/>
      <point x="34" y="653"/>
      <point x="53" y="653" type="curve" smooth="yes"/>
      <point x="149" y="650" type="line"/>
      <point x="229" y="652" type="line" smooth="yes"/>
      <point x="248" y="652"/>
      <point x="258" y="648"/>
      <point x="258" y="641" type="curve" smooth="yes"/>
      <point x="258" y="635"/>
      <point x="247" y="628"/>
      <point x="225" y="621" type="curve"/>
      <point x="206" y="616"/>
      <point x="183" y="585"/>
      <point x="183" y="549" type="curve" smooth="yes"/>
      <point x="183" y="253" type="line" smooth="yes"/>
      <point x="183" y="133"/>
      <point x="281" y="36"/>
      <point x="404" y="36" type="curve" smooth="yes"/>
      <point x="527" y="36"/>
      <point x="592" y="135"/>
      <point x="592" y="296" type="curve" smooth="yes"/>
      <point x="592" y="337"/>
      <point x="591" y="408"/>
      <point x="588" y="511" type="curve" smooth="yes"/>
      <point x="587" y="576"/>
      <point x="573" y="613"/>
      <point x="547" y="620" type="curve" smooth="yes"/>
      <point x="525" y="626"/>
      <point x="514" y="633"/>
      <point x="514" y="640" type="curve" smooth="yes"/>
      <point x="514" y="647"/>
      <point x="524" y="651"/>
      <point x="543" y="651" type="curve" smooth="yes"/>
    </contour>
  </outline>
</glyph>
<glyph name="Udieresis" format="1">
  <advance width="738"/>
  <unicode hex="00DC"/>
  <outline>
    <contour>
      <point x="461" y="796"/>
      <point x="473" y="801"/>
      <point x="487" y="801" type="curve" smooth="yes"/>
      <point x="515" y="801"/>
      <point x="537" y="779"/>
      <point x="537" y="751" type="curve" smooth="yes"/>
      <point x="537" y="723"/>
      <point x="515" y="701"/>
      <point x="487" y="701" type="curve" smooth="yes"/>
      <point x="459" y="701"/>
      <point x="437" y="723"/>
      <point x="437" y="751" type="curve" smooth="yes"/>
      <point x="437" y="765"/>
      <point x="442" y="777"/>
      <point x="452" y="787" type="curve" smooth="yes"/>
    </contour>
    <contour>
      <point x="266" y="796"/>
      <point x="278" y="801"/>
      <point x="292" y="801" type="curve" smooth="yes"/>
      <point x="320" y="801"/>
      <point x="342" y="779"/>
      <point x="342" y="751" type="curve" smooth="yes"/>
      <point x="342" y="723"/>
      <point x="320" y="701"/>
      <point x="292" y="701" type="curve" smooth="yes"/>
      <point x="264" y="701"/>
      <point x="242" y="723"/>
      <point x="242" y="751" type="curve" smooth="yes"/>
      <point x="242" y="765"/>
      <point x="247" y="777"/>
      <point x="257" y="787" type="curve" smooth="yes"/>
    </contour>
    <contour>
      <point x="618" y="650" type="line"/>
      <point x="699" y="653" type="line"/>
      <point x="718" y="653"/>
      <point x="728" y="649"/>
      <point x="728" y="642" type="curve" smooth="yes"/>
      <point x="728" y="633"/>
      <point x="717" y="627"/>
      <point x="695" y="622" type="curve" smooth="yes"/>
      <point x="664" y="616"/>
      <point x="647" y="591"/>
      <point x="645" y="547" type="curve"/>
      <point x="644" y="540"/>
      <point x="641" y="441"/>
      <point x="635" y="250" type="curve" smooth="yes"/>
      <point x="630" y="95"/>
      <point x="524" y="-14"/>
      <point x="380" y="-14" type="curve" smooth="yes"/>
      <point x="191" y="-14"/>
      <point x="103" y="84"/>
      <point x="103" y="281" type="curve" smooth="yes"/>
      <point x="103" y="547" type="line" smooth="yes"/>
      <point x="103" y="587"/>
      <point x="88" y="611"/>
      <point x="57" y="620" type="curve" smooth="yes"/>
      <point x="35" y="626"/>
      <point x="24" y="633"/>
      <point x="24" y="642" type="curve" smooth="yes"/>
      <point x="24" y="649"/>
      <point x="34" y="653"/>
      <point x="53" y="653" type="curve" smooth="yes"/>
      <point x="149" y="650" type="line"/>
      <point x="229" y="652" type="line" smooth="yes"/>
      <point x="248" y="652"/>
      <point x="258" y="648"/>
      <point x="258" y="641" type="curve" smooth="yes"/>
      <point x="258" y="635"/>
      <point x="247" y="628"/>
      <point x="225" y="621" type="curve"/>
      <point x="206" y="616"/>
      <point x="183" y="585"/>
      <point x="183" y="549" type="curve" smooth="yes"/>
      <point x="183" y="253" type="line" smooth="yes"/>
      <point x="183" y="133"/>
      <point x="281" y="36"/>
      <point x="404" y="36" type="curve" smooth="yes"/>
      <point x="527" y="36"/>
      <point x="592" y="135"/>
      <point x="592" y="296" type="curve" smooth="yes"/>
      <point x="592" y="337"/>
      <point x="591" y="408"/>
      <point x="588" y="511" type="curve" smooth="yes"/>
      <point x="587" y="576"/>
      <point x="573" y="613"/>
      <point x="547" y="620" type="curve" smooth="yes"/>
      <point x="525" y="626"/>
      <point x="514" y="633"/>
      <point x="514" y="640" type="curve" smooth="yes"/>
      <point x="514" y="647"/>
      <point x="524" y="651"/>
      <point x="543" y="651" type="curve" smooth="yes"/>
    </contour>
  </outline>
</glyph>
<glyph name="acircumflex" format="1">
  <advance width="399"/>
  <unicode hex="00E2"/>
  <outline>
    <contour>
      <point x="168" y="529"/>
      <point x="146" y="501"/>
      <point x="122" y="469" type="curve" smooth="yes"/>
      <point x="111" y="454"/>
      <point x="101" y="447"/>
      <point x="92" y="447" type="curve" smooth="yes"/>
      <point x="86" y="447"/>
      <point x="83" y="451"/>
      <point x="83" y="459" type="curve" smooth="yes"/>
      <point x="83" y="474"/>
      <point x="145" y="586"/>
      <point x="166" y="622" type="curve" smooth="yes"/>
      <point x="176" y="639"/>
      <point x="184" y="648"/>
      <point x="191" y="648" type="curve" smooth="yes"/>
      <point x="198" y="648"/>
      <point x="206" y="639"/>
      <point x="217" y="621" type="curve" smooth="yes"/>
      <point x="238" y="585"/>
      <point x="300" y="474"/>
      <point x="300" y="459" type="curve" smooth="yes"/>
      <point x="300" y="451"/>
      <point x="296" y="447"/>
      <point x="288" y="447" type="curve" smooth="yes"/>
      <point x="280" y="447"/>
      <point x="271" y="454"/>
      <point x="261" y="469" type="curve"/>
      <point x="249" y="485"/>
      <point x="227" y="513"/>
      <point x="195" y="553" type="curve"/>
      <point x="192" y="556"/>
      <point x="190" y="556"/>
      <point x="188" y="553" type="curve"/>
    </contour>
    <contour>
      <point x="115" y="52"/>
      <point x="139" y="32"/>
      <point x="170" y="32" type="curve" smooth="yes"/>
      <point x="201" y="32"/>
      <point x="235" y="58"/>
      <point x="236" y="99" type="curve" smooth="yes"/>
      <point x="238" y="148" type="line" smooth="yes"/>
      <point x="239" y="162"/>
      <point x="236" y="169"/>
      <point x="229" y="169" type="curve" smooth="yes"/>
      <point x="224" y="169"/>
      <point x="220" y="168"/>
      <point x="215" y="166" type="curve"/>
      <point x="148" y="143"/>
      <point x="115" y="117"/>
      <point x="115" y="87" type="curve" smooth="yes"/>
    </contour>
    <contour>
      <point x="117" y="300" type="line"/>
      <point x="117" y="288"/>
      <point x="63" y="265"/>
      <point x="50" y="265" type="curve" smooth="yes"/>
      <point x="43" y="265"/>
      <point x="40" y="268"/>
      <point x="40" y="274" type="curve" smooth="yes"/>
      <point x="40" y="319"/>
      <point x="95" y="362"/>
      <point x="151" y="392" type="curve" smooth="yes"/>
      <point x="179" y="407"/>
      <point x="205" y="414"/>
      <point x="229" y="414" type="curve" smooth="yes"/>
      <point x="276" y="414"/>
      <point x="312" y="374"/>
      <point x="311" y="325" type="curve" smooth="yes"/>
      <point x="306" y="109" type="line"/>
      <point x="306" y="103" type="line" smooth="yes"/>
      <point x="306" y="56"/>
      <point x="318" y="32"/>
      <point x="342" y="32" type="curve" smooth="yes"/>
      <point x="359" y="32"/>
      <point x="372" y="37"/>
      <point x="382" y="46" type="curve"/>
      <point x="387" y="51"/>
      <point x="398" y="45"/>
      <point x="398" y="37" type="curve" smooth="yes"/>
      <point x="398" y="36" type="line"/>
      <point x="390" y="19"/>
      <point x="350" y="-14"/>
      <point x="318" y="-14" type="curve" smooth="yes"/>
      <point x="285" y="-14"/>
      <point x="262" y="8"/>
      <point x="253" y="25" type="curve" smooth="yes"/>
      <point x="248" y="34"/>
      <point x="245" y="38"/>
      <point x="244" y="38" type="curve" smooth="yes"/>
      <point x="241" y="38"/>
      <point x="235" y="34"/>
      <point x="226" y="25" type="curve"/>
      <point x="207" y="8"/>
      <point x="168" y="-14"/>
      <point x="124" y="-14" type="curve" smooth="yes"/>
      <point x="79" y="-14"/>
      <point x="35" y="26"/>
      <point x="35" y="65" type="curve" smooth="yes"/>
      <point x="35" y="105"/>
      <point x="59" y="135"/>
      <point x="108" y="155" type="curve" smooth="yes"/>
      <point x="210" y="197" type="line" smooth="yes"/>
      <point x="235" y="208"/>
      <point x="237" y="210"/>
      <point x="238" y="237" type="curve" smooth="yes"/>
      <point x="240" y="299" type="line"/>
      <point x="240" y="301" type="line" smooth="yes"/>
      <point x="240" y="336"/>
      <point x="214" y="365"/>
      <point x="186" y="365" type="curve" smooth="yes"/>
      <point x="157" y="365"/>
      <point x="128" y="347"/>
      <point x="121" y="335" type="curve"/>
      <point x="118" y="329"/>
      <point x="116" y="322"/>
      <point x="116" y="314" type="curve"/>
    </contour>
  </outline>
</glyph>
<glyph name="adieresis" format="1">
  <advance width="399"/>
  <unicode hex="00E4"/>
  <outline>
    <contour>
      <point x="260" y="588"/>
      <point x="271" y="593"/>
      <point x="284" y="593" type="curve" smooth="yes"/>
      <point x="309" y="593"/>
      <point x="334" y="568"/>
      <point x="334" y="543" type="curve" smooth="yes"/>
      <point x="334" y="518"/>
      <point x="309" y="493"/>
      <point x="284" y="493" type="curve" smooth="yes"/>
      <point x="259" y="493"/>
      <point x="234" y="518"/>
      <point x="234" y="543" type="curve" smooth="yes"/>
      <point x="234" y="556"/>
      <point x="239" y="567"/>
      <point x="250" y="578" type="curve" smooth="yes"/>
    </contour>
    <contour>
      <point x="83" y="588"/>
      <point x="94" y="593"/>
      <point x="107" y="593" type="curve" smooth="yes"/>
      <point x="132" y="593"/>
      <point x="157" y="568"/>
      <point x="157" y="543" type="curve" smooth="yes"/>
      <point x="157" y="518"/>
      <point x="132" y="493"/>
      <point x="107" y="493" type="curve" smooth="yes"/>
      <point x="82" y="493"/>
      <point x="57" y="518"/>
      <point x="57" y="543" type="curve" smooth="yes"/>
      <point x="57" y="556"/>
      <point x="62" y="567"/>
      <point x="73" y="578" type="curve" smooth="yes"/>
    </contour>
    <contour>
      <point x="115" y="52"/>
      <point x="139" y="32"/>
      <point x="170" y="32" type="curve" smooth="yes"/>
      <point x="201" y="32"/>
      <point x="235" y="58"/>
      <point x="236" y="99" type="curve" smooth="yes"/>
      <point x="238" y="148" type="line" smooth="yes"/>
      <point x="239" y="162"/>
      <point x="236" y="169"/>
      <point x="229" y="169" type="curve" smooth="yes"/>
      <point x="224" y="169"/>
      <point x="220" y="168"/>
      <point x="215" y="166" type="curve"/>
      <point x="148" y="143"/>
      <point x="115" y="117"/>
      <point x="115" y="87" type="curve" smooth="yes"/>
    </contour>
    <contour>
      <point x="117" y="300" type="line"/>
      <point x="117" y="288"/>
      <point x="63" y="265"/>
      <point x="50" y="265" type="curve" smooth="yes"/>
      <point x="43" y="265"/>
      <point x="40" y="268"/>
      <point x="40" y="274" type="curve" smooth="yes"/>
      <point x="40" y="319"/>
      <point x="95" y="362"/>
      <point x="151" y="392" type="curve" smooth="yes"/>
      <point x="179" y="407"/>
      <point x="205" y="414"/>
      <point x="229" y="414" type="curve" smooth="yes"/>
      <point x="276" y="414"/>
      <point x="312" y="374"/>
      <point x="311" y="325" type="curve" smooth="yes"/>
      <point x="306" y="109" type="line"/>
      <point x="306" y="103" type="line" smooth="yes"/>
      <point x="306" y="56"/>
      <point x="318" y="32"/>
      <point x="342" y="32" type="curve" smooth="yes"/>
      <point x="359" y="32"/>
      <point x="372" y="37"/>
      <point x="382" y="46" type="curve"/>
      <point x="387" y="51"/>
      <point x="398" y="45"/>
      <point x="398" y="37" type="curve" smooth="yes"/>
      <point x="398" y="36" type="line"/>
      <point x="390" y="19"/>
      <point x="350" y="-14"/>
      <point x="318" y="-14" type="curve" smooth="yes"/>
      <point x="285" y="-14"/>
      <point x="262" y="8"/>
      <point x="253" y="25" type="curve" smooth="yes"/>
      <point x="248" y="34"/>
      <point x="245" y="38"/>
      <point x="244" y="38" type="curve" smooth="yes"/>
      <point x="241" y="38"/>
      <point x="235" y="34"/>
      <point x="226" y="25" type="curve"/>
      <point x="207" y="8"/>
      <point x="168" y="-14"/>
      <point x="124" y="-14" type="curve" smooth="yes"/>
      <point x="79" y="-14"/>
      <point x="35" y="26"/>
      <point x="35" y="65" type="curve" smooth="yes"/>
      <point x="35" y="105"/>
      <point x="59" y="135"/>
      <point x="108" y="155" type="curve" smooth="yes"/>
      <point x="210" y="197" type="line" smooth="yes"/>
      <point x="235" y="208"/>
      <point x="237" y="210"/>
      <point x="238" y="237" type="curve" smooth="yes"/>
      <point x="240" y="299" type="line"/>
      <point x="240" y="301" type="line" smooth="yes"/>
      <point x="240" y="336"/>
      <point x="214" y="365"/>
      <point x="186" y="365" type="curve" smooth="yes"/>
      <point x="157" y="365"/>
      <point x="128" y="347"/>
      <point x="121" y="335" type="curve"/>
      <point x="118" y="329"/>
      <point x="116" y="322"/>
      <point x="116" y="314" type="curve"/>
    </contour>
  </outline>
</glyph>
<glyph name="ae" format="1">
  <advance width="544"/>
  <unicode hex="00E6"/>
  <outline>
    <contour>
      <point x="117" y="299" type="line"/>
      <point x="117" y="287"/>
      <point x="63" y="264"/>
      <point x="50" y="264" type="curve" smooth="yes"/>
      <point x="43" y="264"/>
      <point x="40" y="267"/>
      <point x="40" y="273" type="curve" smooth="yes"/>
      <point x="40" y="318"/>
      <point x="95" y="360"/>
      <point x="151" y="391" type="curve" smooth="yes"/>
      <point x="179" y="406"/>
      <point x="205" y="414"/>
      <point x="229" y="414" type="curve" smooth="yes"/>
      <point x="249" y="414"/>
      <point x="284" y="395"/>
      <point x="291" y="383" type="curve"/>
      <point x="294" y="377"/>
      <point x="299" y="376"/>
      <point x="304" y="380" type="curve"/>
      <point x="328" y="397"/>
      <point x="376" y="413"/>
      <point x="421" y="413" type="curve" smooth="yes"/>
      <point x="466" y="413"/>
      <point x="528" y="378"/>
      <point x="528" y="318" type="curve" smooth="yes"/>
      <point x="528" y="298"/>
      <point x="520" y="292"/>
      <point x="508" y="286" type="curve"/>
      <point x="501" y="283"/>
      <point x="486" y="276"/>
      <point x="461" y="265" type="curve" smooth="yes"/>
      <point x="436" y="254"/>
      <point x="408" y="241"/>
      <point x="377" y="228" type="curve" smooth="yes"/>
      <point x="345" y="214"/>
      <point x="326" y="206"/>
      <point x="319" y="203" type="curve" smooth="yes"/>
      <point x="312" y="200"/>
      <point x="309" y="194"/>
      <point x="309" y="185" type="curve" smooth="yes"/>
      <point x="309" y="129" type="line" smooth="yes"/>
      <point x="309" y="74"/>
      <point x="338" y="46"/>
      <point x="397" y="46" type="curve" smooth="yes"/>
      <point x="443" y="46"/>
      <point x="480" y="62"/>
      <point x="508" y="94" type="curve"/>
      <point x="511" y="97"/>
      <point x="514" y="98"/>
      <point x="517" y="98" type="curve" smooth="yes"/>
      <point x="526" y="98"/>
      <point x="530" y="94"/>
      <point x="530" y="87" type="curve" smooth="yes"/>
      <point x="530" y="85"/>
      <point x="530" y="84"/>
      <point x="529" y="83" type="curve"/>
      <point x="482" y="15"/>
      <point x="440" y="-14"/>
      <point x="363" y="-14" type="curve" smooth="yes"/>
      <point x="324" y="-14"/>
      <point x="289" y="-1"/>
      <point x="257" y="26" type="curve"/>
      <point x="249" y="34"/>
      <point x="244" y="38"/>
      <point x="243" y="38" type="curve" smooth="yes"/>
      <point x="241" y="38"/>
      <point x="239" y="37"/>
      <point x="238" y="36" type="curve" smooth="yes"/>
      <point x="234" y="32"/>
      <point x="218" y="18"/>
      <point x="208" y="12" type="curve" smooth="yes"/>
      <point x="203" y="9"/>
      <point x="196" y="5"/>
      <point x="187" y="0" type="curve" smooth="yes"/>
      <point x="170" y="-9"/>
      <point x="149" y="-14"/>
      <point x="126" y="-14" type="curve" smooth="yes"/>
      <point x="78" y="-14"/>
      <point x="35" y="26"/>
      <point x="35" y="65" type="curve" smooth="yes"/>
      <point x="35" y="103"/>
      <point x="59" y="133"/>
      <point x="108" y="155" type="curve" smooth="yes"/>
      <point x="212" y="202" type="line" smooth="yes"/>
      <point x="239" y="214"/>
      <point x="241" y="217"/>
      <point x="241" y="233" type="curve" smooth="yes"/>
      <point x="241" y="299" type="line" smooth="yes"/>
      <point x="241" y="335"/>
      <point x="215" y="365"/>
      <point x="186" y="365" type="curve" smooth="yes"/>
      <point x="157" y="365"/>
      <point x="128" y="346"/>
      <point x="121" y="334" type="curve"/>
      <point x="118" y="328"/>
      <point x="116" y="321"/>
      <point x="116" y="313" type="curve"/>
    </contour>
    <contour>
      <point x="310" y="254" type="line" smooth="yes"/>
      <point x="310" y="249"/>
      <point x="312" y="246"/>
      <point x="315" y="245" type="curve"/>
      <point x="318" y="243"/>
      <point x="326" y="244"/>
      <point x="337" y="249" type="curve"/>
      <point x="359" y="257"/>
      <point x="443" y="288"/>
      <point x="452" y="292" type="curve"/>
      <point x="457" y="293"/>
      <point x="459" y="298"/>
      <point x="459" y="305" type="curve" smooth="yes"/>
      <point x="459" y="312"/>
      <point x="458" y="320"/>
      <point x="455" y="328" type="curve" smooth="yes"/>
      <point x="442" y="361"/>
      <point x="418" y="378"/>
      <point x="385" y="378" type="curve" smooth="yes"/>
      <point x="361" y="378"/>
      <point x="311" y="352"/>
      <point x="310" y="321" type="curve" smooth="yes"/>
    </contour>
    <contour>
      <point x="160" y="149"/>
      <point x="116" y="118"/>
      <point x="116" y="86" type="curve" smooth="yes"/>
      <point x="115" y="53"/>
      <point x="139" y="32"/>
      <point x="171" y="32" type="curve" smooth="yes"/>
      <point x="203" y="32"/>
      <point x="240" y="63"/>
      <point x="240" y="96" type="curve" smooth="yes"/>
      <point x="240" y="148" type="line" smooth="yes"/>
      <point x="240" y="164"/>
      <point x="237" y="172"/>
      <point x="232" y="172" type="curve" smooth="yes"/>
      <point x="225" y="172"/>
      <point x="212" y="169"/>
      <point x="195" y="162" type="curve"/>
    </contour>
  </outline>
</glyph>
<glyph name="ccedilla" format="1">
  <advance width="377"/>
  <unicode hex="00E7"/>
  <outline>
    <contour>
      <point x="151" y="-129" type="line"/>
      <point x="143" y="-129"/>
      <point x="133" y="-121"/>
      <point x="133" y="-115" type="curve" smooth="yes"/>
      <point x="133" y="-112"/>
      <point x="135" y="-109"/>
      <point x="138" y="-104" type="curve"/>
      <point x="209" y="-14" type="line"/>
      <point x="206" y="-14" type="line" smooth="yes"/>
      <point x="107" y="-14"/>
      <point x="35" y="72"/>
      <point x="35" y="188" type="curve" smooth="yes"/>
      <point x="35" y="304"/>
      <point x="128" y="413"/>
      <point x="242" y="413" type="curve" smooth="yes"/>
      <point x="299" y="413"/>
      <point x="340" y="397"/>
      <point x="366" y="365" type="curve"/>
      <point x="369" y="360"/>
      <point x="371" y="355"/>
      <point x="371" y="350" type="curve" smooth="yes"/>
      <point x="371" y="338"/>
      <point x="346" y="319"/>
      <point x="330" y="319" type="curve" smooth="yes"/>
      <point x="322" y="319"/>
      <point x="315" y="322"/>
      <point x="308" y="329" type="curve"/>
      <point x="272" y="368"/>
      <point x="261" y="376"/>
      <point x="214" y="376" type="curve" smooth="yes"/>
      <point x="145" y="376"/>
      <point x="104" y="309"/>
      <point x="104" y="219" type="curve" smooth="yes"/>
      <point x="104" y="129"/>
      <point x="170" y="38"/>
      <point x="263" y="38" type="curve" smooth="yes"/>
      <point x="303" y="38"/>
      <point x="323" y="52"/>
      <point x="351" y="88" type="curve"/>
      <point x="354" y="91"/>
      <point x="357" y="93"/>
      <point x="360" y="93" type="curve" smooth="yes"/>
      <point x="365" y="93"/>
      <point x="372" y="86"/>
      <point x="372" y="79" type="curve" smooth="yes"/>
      <point x="372" y="46"/>
      <point x="312" y="1"/>
      <point x="243" y="-11" type="curve"/>
      <point x="218" y="-43" type="line"/>
      <point x="215" y="-46"/>
      <point x="214" y="-48"/>
      <point x="214" y="-51" type="curve" smooth="yes"/>
      <point x="214" y="-57"/>
      <point x="220" y="-62"/>
      <point x="233" y="-67" type="curve" smooth="yes"/>
      <point x="257" y="-76"/>
      <point x="286" y="-107"/>
      <point x="286" y="-139" type="curve" smooth="yes"/>
      <point x="286" y="-211"/>
      <point x="206" y="-274"/>
      <point x="161" y="-274" type="curve" smooth="yes"/>
      <point x="141" y="-274"/>
      <point x="131" y="-260"/>
      <point x="131" y="-233" type="curve" smooth="yes"/>
      <point x="131" y="-221"/>
      <point x="139" y="-214"/>
      <point x="144" y="-214" type="curve"/>
      <point x="160" y="-220" type="line" smooth="yes"/>
      <point x="181" y="-228"/>
      <point x="236" y="-240"/>
      <point x="236" y="-180" type="curve" smooth="yes"/>
      <point x="236" y="-144"/>
      <point x="213" y="-123"/>
      <point x="177" y="-123" type="curve"/>
    </contour>
  </outline>
</glyph>
<glyph name="ecircumflex" format="1">
  <advance width="388"/>
  <unicode hex="00EA"/>
  <outline>
    <contour>
      <point x="196" y="529"/>
      <point x="174" y="501"/>
      <point x="150" y="469" type="curve" smooth="yes"/>
      <point x="139" y="454"/>
      <point x="129" y="447"/>
      <point x="120" y="447" type="curve" smooth="yes"/>
      <point x="114" y="447"/>
      <point x="111" y="451"/>
      <point x="111" y="459" type="curve" smooth="yes"/>
      <point x="111" y="474"/>
      <point x="173" y="586"/>
      <point x="194" y="622" type="curve" smooth="yes"/>
      <point x="204" y="639"/>
      <point x="212" y="648"/>
      <point x="219" y="648" type="curve" smooth="yes"/>
      <point x="226" y="648"/>
      <point x="234" y="639"/>
      <point x="245" y="621" type="curve" smooth="yes"/>
      <point x="266" y="585"/>
      <point x="328" y="474"/>
      <point x="328" y="459" type="curve" smooth="yes"/>
      <point x="328" y="451"/>
      <point x="324" y="447"/>
      <point x="316" y="447" type="curve" smooth="yes"/>
      <point x="308" y="447"/>
      <point x="299" y="454"/>
      <point x="289" y="469" type="curve"/>
      <point x="277" y="485"/>
      <point x="255" y="513"/>
      <point x="223" y="553" type="curve"/>
      <point x="220" y="556"/>
      <point x="218" y="556"/>
      <point x="216" y="553" type="curve"/>
    </contour>
    <contour>
      <point x="309" y="414"/>
      <point x="358" y="378"/>
      <point x="358" y="321" type="curve" smooth="yes"/>
      <point x="358" y="264"/>
      <point x="326" y="257"/>
      <point x="281" y="257" type="curve" smooth="yes"/>
      <point x="117" y="257" type="line" smooth="yes"/>
      <point x="98" y="257"/>
      <point x="92" y="252"/>
      <point x="92" y="220" type="curve" smooth="yes"/>
      <point x="92" y="127"/>
      <point x="157" y="46"/>
      <point x="241" y="46" type="curve" smooth="yes"/>
      <point x="282" y="46"/>
      <point x="314" y="61"/>
      <point x="337" y="90" type="curve"/>
      <point x="342" y="95"/>
      <point x="345" y="97"/>
      <point x="348" y="97" type="curve" smooth="yes"/>
      <point x="355" y="97"/>
      <point x="357" y="88"/>
      <point x="352" y="71" type="curve" smooth="yes"/>
      <point x="343" y="36"/>
      <point x="282" y="-14"/>
      <point x="194" y="-14" type="curve" smooth="yes"/>
      <point x="106" y="-14"/>
      <point x="30" y="76"/>
      <point x="30" y="198" type="curve" smooth="yes"/>
      <point x="30" y="320"/>
      <point x="117" y="414"/>
      <point x="229" y="414" type="curve" smooth="yes"/>
    </contour>
    <contour>
      <point x="295" y="358"/>
      <point x="257" y="383"/>
      <point x="210" y="383" type="curve" smooth="yes"/>
      <point x="162" y="383"/>
      <point x="111" y="334"/>
      <point x="111" y="303" type="curve" smooth="yes"/>
      <point x="111" y="293"/>
      <point x="117" y="288"/>
      <point x="130" y="288" type="curve" smooth="yes"/>
      <point x="212" y="288" type="line" smooth="yes"/>
      <point x="243" y="288"/>
      <point x="268" y="290"/>
      <point x="285" y="293" type="curve" smooth="yes"/>
      <point x="292" y="294"/>
      <point x="295" y="303"/>
      <point x="295" y="322" type="curve" smooth="yes"/>
    </contour>
  </outline>
</glyph>
<glyph name="edieresis" format="1">
  <advance width="388"/>
  <unicode hex="00EB"/>
  <outline>
    <contour>
      <point x="288" y="588"/>
      <point x="299" y="593"/>
      <point x="312" y="593" type="curve" smooth="yes"/>
      <point x="337" y="593"/>
      <point x="362" y="568"/>
      <point x="362" y="543" type="curve" smooth="yes"/>
      <point x="362" y="518"/>
      <point x="337" y="493"/>
      <point x="312" y="493" type="curve" smooth="yes"/>
      <point x="287" y="493"/>
      <point x="262" y="518"/>
      <point x="262" y="543" type="curve" smooth="yes"/>
      <point x="262" y="556"/>
      <point x="267" y="567"/>
      <point x="278" y="578" type="curve" smooth="yes"/>
    </contour>
    <contour>
      <point x="111" y="588"/>
      <point x="122" y="593"/>
      <point x="135" y="593" type="curve" smooth="yes"/>
      <point x="160" y="593"/>
      <point x="185" y="568"/>
      <point x="185" y="543" type="curve" smooth="yes"/>
      <point x="185" y="518"/>
      <point x="160" y="493"/>
      <point x="135" y="493" type="curve" smooth="yes"/>
      <point x="110" y="493"/>
      <point x="85" y="518"/>
      <point x="85" y="543" type="curve" smooth="yes"/>
      <point x="85" y="556"/>
      <point x="90" y="567"/>
      <point x="101" y="578" type="curve" smooth="yes"/>
    </contour>
    <contour>
      <point x="309" y="414"/>
      <point x="358" y="378"/>
      <point x="358" y="321" type="curve" smooth="yes"/>
      <point x="358" y="264"/>
      <point x="326" y="257"/>
      <point x="281" y="257" type="curve" smooth="yes"/>
      <point x="117" y="257" type="line" smooth="yes"/>
      <point x="98" y="257"/>
      <point x="92" y="252"/>
      <point x="92" y="220" type="curve" smooth="yes"/>
      <point x="92" y="127"/>
      <point x="157" y="46"/>
      <point x="241" y="46" type="curve" smooth="yes"/>
      <point x="282" y="46"/>
      <point x="314" y="61"/>
      <point x="337" y="90" type="curve"/>
      <point x="342" y="95"/>
      <point x="345" y="97"/>
      <point x="348" y="97" type="curve" smooth="yes"/>
      <point x="355" y="97"/>
      <point x="357" y="88"/>
      <point x="352" y="71" type="curve" smooth="yes"/>
      <point x="343" y="36"/>
      <point x="282" y="-14"/>
      <point x="194" y="-14" type="curve" smooth="yes"/>
      <point x="106" y="-14"/>
      <point x="30" y="76"/>
      <point x="30" y="198" type="curve" smooth="yes"/>
      <point x="30" y="320"/>
      <point x="117" y="414"/>
      <point x="229" y="414" type="curve" smooth="yes"/>
    </contour>
    <contour>
      <point x="295" y="358"/>
      <point x="257" y="383"/>
      <point x="210" y="383" type="curve" smooth="yes"/>
      <point x="162" y="383"/>
      <point x="111" y="334"/>
      <point x="111" y="303" type="curve" smooth="yes"/>
      <point x="111" y="293"/>
      <point x="117" y="288"/>
      <point x="130" y="288" type="curve" smooth="yes"/>
      <point x="212" y="288" type="line" smooth="yes"/>
      <point x="243" y="288"/>
      <point x="268" y="290"/>
      <point x="285" y="293" type="curve" smooth="yes"/>
      <point x="292" y="294"/>
      <point x="295" y="303"/>
      <point x="295" y="322" type="curve" smooth="yes"/>
    </contour>
  </outline>
</glyph>
<glyph name="igrave" format="1">
  <advance width="245"/>
  <unicode hex="00EC"/>
  <outline>
    <contour>
      <point x="120" y="537"/>
      <point x="147" y="484"/>
      <point x="147" y="473" type="curve" smooth="yes"/>
      <point x="147" y="462"/>
      <point x="144" y="456"/>
      <point x="138" y="456" type="curve" smooth="yes"/>
      <point x="131" y="456"/>
      <point x="120" y="465"/>
      <point x="103" y="484" type="curve" smooth="yes"/>
      <point x="69" y="520"/>
      <point x="-10" y="614"/>
      <point x="-10" y="626" type="curve" smooth="yes"/>
      <point x="-10" y="641"/>
      <point x="6" y="649"/>
      <point x="39" y="649" type="curve" smooth="yes"/>
      <point x="50" y="649"/>
      <point x="59" y="643"/>
      <point x="66" y="631" type="curve" smooth="yes"/>
    </contour>
    <contour>
      <point x="125" y="2" type="line"/>
      <point x="44" y="-3" type="line"/>
      <point x="31" y="-3"/>
      <point x="24" y="0"/>
      <point x="24" y="7" type="curve" smooth="yes"/>
      <point x="24" y="13"/>
      <point x="33" y="19"/>
      <point x="52" y="25" type="curve" smooth="yes"/>
      <point x="71" y="31"/>
      <point x="82" y="37"/>
      <point x="85" y="44" type="curve"/>
      <point x="88" y="50"/>
      <point x="90" y="56"/>
      <point x="90" y="62" type="curve" smooth="yes"/>
      <point x="90" y="279" type="line" smooth="yes"/>
      <point x="90" y="321"/>
      <point x="74" y="345"/>
      <point x="43" y="352" type="curve" smooth="yes"/>
      <point x="38" y="353"/>
      <point x="35" y="358"/>
      <point x="35" y="365" type="curve" smooth="yes"/>
      <point x="35" y="372"/>
      <point x="37" y="376"/>
      <point x="42" y="377" type="curve"/>
      <point x="75" y="385"/>
      <point x="109" y="401"/>
      <point x="144" y="424" type="curve" smooth="yes"/>
      <point x="155" y="431"/>
      <point x="161" y="434"/>
      <point x="162" y="434" type="curve" smooth="yes"/>
      <point x="167" y="434"/>
      <point x="169" y="432"/>
      <point x="169" y="429" type="curve"/>
      <point x="163" y="368"/>
      <point x="160" y="323"/>
      <point x="160" y="294" type="curve" smooth="yes"/>
      <point x="160" y="62" type="line" smooth="yes"/>
      <point x="160" y="35"/>
      <point x="178" y="32"/>
      <point x="206" y="23" type="curve"/>
      <point x="219" y="18"/>
      <point x="226" y="13"/>
      <point x="226" y="7" type="curve" smooth="yes"/>
      <point x="226" y="0"/>
      <point x="219" y="-3"/>
      <point x="206" y="-3" type="curve"/>
    </contour>
  </outline>
</glyph>
<glyph name="icircumflex" format="1">
  <advance width="245"/>
  <unicode hex="00EE"/>
  <outline>
    <contour>
      <point x="92" y="529"/>
      <point x="70" y="501"/>
      <point x="46" y="469" type="curve" smooth="yes"/>
      <point x="35" y="454"/>
      <point x="25" y="447"/>
      <point x="16" y="447" type="curve" smooth="yes"/>
      <point x="10" y="447"/>
      <point x="7" y="451"/>
      <point x="7" y="459" type="curve" smooth="yes"/>
      <point x="7" y="474"/>
      <point x="69" y="586"/>
      <point x="90" y="622" type="curve" smooth="yes"/>
      <point x="100" y="639"/>
      <point x="108" y="648"/>
      <point x="115" y="648" type="curve" smooth="yes"/>
      <point x="122" y="648"/>
      <point x="130" y="639"/>
      <point x="141" y="621" type="curve" smooth="yes"/>
      <point x="162" y="585"/>
      <point x="224" y="474"/>
      <point x="224" y="459" type="curve" smooth="yes"/>
      <point x="224" y="451"/>
      <point x="220" y="447"/>
      <point x="212" y="447" type="curve" smooth="yes"/>
      <point x="204" y="447"/>
      <point x="195" y="454"/>
      <point x="185" y="469" type="curve"/>
      <point x="173" y="485"/>
      <point x="151" y="513"/>
      <point x="119" y="553" type="curve"/>
      <point x="116" y="556"/>
      <point x="114" y="556"/>
      <point x="112" y="553" type="curve"/>
    </contour>
    <contour>
      <point x="125" y="2" type="line"/>
      <point x="44" y="-3" type="line"/>
      <point x="31" y="-3"/>
      <point x="24" y="0"/>
      <point x="24" y="7" type="curve" smooth="yes"/>
      <point x="24" y="13"/>
      <point x="33" y="19"/>
      <point x="52" y="25" type="curve" smooth="yes"/>
      <point x="71" y="31"/>
      <point x="82" y="37"/>
      <point x="85" y="44" type="curve"/>
      <point x="88" y="50"/>
      <point x="90" y="56"/>
      <point x="90" y="62" type="curve" smooth="yes"/>
      <point x="90" y="279" type="line" smooth="yes"/>
      <point x="90" y="321"/>
      <point x="74" y="345"/>
      <point x="43" y="352" type="curve" smooth="yes"/>
      <point x="38" y="353"/>
      <point x="35" y="358"/>
      <point x="35" y="365" type="curve" smooth="yes"/>
      <point x="35" y="372"/>
      <point x="37" y="376"/>
      <point x="42" y="377" type="curve"/>
      <point x="75" y="385"/>
      <point x="109" y="401"/>
      <point x="144" y="424" type="curve" smooth="yes"/>
      <point x="155" y="431"/>
      <point x="161" y="434"/>
      <point x="162" y="434" type="curve" smooth="yes"/>
      <point x="167" y="434"/>
      <point x="169" y="432"/>
      <point x="169" y="429" type="curve"/>
      <point x="163" y="368"/>
      <point x="160" y="323"/>
      <point x="160" y="294" type="curve" smooth="yes"/>
      <point x="160" y="62" type="line" smooth="yes"/>
      <point x="160" y="35"/>
      <point x="178" y="32"/>
      <point x="206" y="23" type="curve"/>
      <point x="219" y="18"/>
      <point x="226" y="13"/>
      <point x="226" y="7" type="curve" smooth="yes"/>
      <point x="226" y="0"/>
      <point x="219" y="-3"/>
      <point x="206" y="-3" type="curve"/>
    </contour>
  </outline>
</glyph>
<glyph name="ocircumflex" format="1">
  <advance width="495"/>
  <unicode hex="00F4"/>
  <outline>
    <contour>
      <point x="223" y="529"/>
      <point x="201" y="501"/>
      <point x="177" y="469" type="curve" smooth="yes"/>
      <point x="166" y="454"/>
      <point x="156" y="447"/>
      <point x="147" y="447" type="curve" smooth="yes"/>
      <point x="141" y="447"/>
      <point x="138" y="451"/>
      <point x="138" y="459" type="curve" smooth="yes"/>
      <point x="138" y="474"/>
      <point x="200" y="586"/>
      <point x="221" y="622" type="curve" smooth="yes"/>
      <point x="231" y="639"/>
      <point x="239" y="648"/>
      <point x="246" y="648" type="curve" smooth="yes"/>
      <point x="253" y="648"/>
      <point x="261" y="639"/>
      <point x="272" y="621" type="curve" smooth="yes"/>
      <point x="293" y="585"/>
      <point x="355" y="474"/>
      <point x="355" y="459" type="curve" smooth="yes"/>
      <point x="355" y="451"/>
      <point x="351" y="447"/>
      <point x="343" y="447" type="curve" smooth="yes"/>
      <point x="335" y="447"/>
      <point x="326" y="454"/>
      <point x="316" y="469" type="curve"/>
      <point x="304" y="485"/>
      <point x="282" y="513"/>
      <point x="250" y="553" type="curve"/>
      <point x="247" y="556"/>
      <point x="245" y="556"/>
      <point x="243" y="553" type="curve"/>
    </contour>
    <contour>
      <point x="157" y="383"/>
      <point x="117" y="325"/>
      <point x="117" y="210" type="curve" smooth="yes"/>
      <point x="117" y="107"/>
      <point x="178" y="16"/>
      <point x="255" y="16" type="curve" smooth="yes"/>
      <point x="355" y="16"/>
      <point x="378" y="84"/>
      <point x="378" y="187" type="curve" smooth="yes"/>
      <point x="378" y="290"/>
      <point x="318" y="383"/>
      <point x="237" y="383" type="curve" smooth="yes"/>
    </contour>
    <contour>
      <point x="35" y="302"/>
      <point x="135" y="414"/>
      <point x="252" y="414" type="curve" smooth="yes"/>
      <point x="369" y="414"/>
      <point x="460" y="324"/>
      <point x="460" y="207" type="curve" smooth="yes"/>
      <point x="460" y="90"/>
      <point x="377" y="-14"/>
      <point x="234" y="-14" type="curve" smooth="yes"/>
      <point x="121" y="-14"/>
      <point x="35" y="71"/>
      <point x="35" y="187" type="curve" smooth="yes"/>
    </contour>
  </outline>
</glyph>
<glyph name="otilde" format="1">
  <advance width="495"/>
  <unicode hex="00F5"/>
  <outline>
    <contour>
      <point x="191" y="507" type="line"/>
      <point x="181" y="507"/>
      <point x="169" y="501"/>
      <point x="156" y="489" type="curve"/>
      <point x="143" y="476"/>
      <point x="135" y="470"/>
      <point x="134" y="470" type="curve" smooth="yes"/>
      <point x="125" y="470"/>
      <point x="120" y="477"/>
      <point x="120" y="490" type="curve" smooth="yes"/>
      <point x="120" y="503"/>
      <point x="185" y="574"/>
      <point x="208" y="574" type="curve"/>
      <point x="315" y="566" type="line"/>
      <point x="329" y="566"/>
      <point x="342" y="572"/>
      <point x="354" y="583" type="curve"/>
      <point x="365" y="594"/>
      <point x="371" y="600"/>
      <point x="372" y="600" type="curve" smooth="yes"/>
      <point x="383" y="600"/>
      <point x="388" y="594"/>
      <point x="388" y="583" type="curve" smooth="yes"/>
      <point x="388" y="570"/>
      <point x="326" y="500"/>
      <point x="303" y="500" type="curve"/>
    </contour>
    <contour>
      <point x="157" y="383"/>
      <point x="117" y="325"/>
      <point x="117" y="210" type="curve" smooth="yes"/>
      <point x="117" y="107"/>
      <point x="178" y="16"/>
      <point x="255" y="16" type="curve" smooth="yes"/>
      <point x="355" y="16"/>
      <point x="378" y="84"/>
      <point x="378" y="187" type="curve" smooth="yes"/>
      <point x="378" y="290"/>
      <point x="318" y="383"/>
      <point x="237" y="383" type="curve" smooth="yes"/>
    </contour>
    <contour>
      <point x="35" y="302"/>
      <point x="135" y="414"/>
      <point x="252" y="414" type="curve" smooth="yes"/>
      <point x="369" y="414"/>
      <point x="460" y="324"/>
      <point x="460" y="207" type="curve" smooth="yes"/>
      <point x="460" y="90"/>
      <point x="377" y="-14"/>
      <point x="234" y="-14" type="curve" smooth="yes"/>
      <point x="121" y="-14"/>
      <point x="35" y="71"/>
      <point x="35" y="187" type="curve" smooth="yes"/>
    </contour>
  </outline>
</glyph>
<glyph name="ucircumflex" format="1">
  <advance width="527"/>
  <unicode hex="00FB"/>
  <outline>
    <contour>
      <point x="228" y="529"/>
      <point x="206" y="501"/>
      <point x="182" y="469" type="curve" smooth="yes"/>
      <point x="171" y="454"/>
      <point x="161" y="447"/>
      <point x="152" y="447" type="curve" smooth="yes"/>
      <point x="146" y="447"/>
      <point x="143" y="451"/>
      <point x="143" y="459" type="curve" smooth="yes"/>
      <point x="143" y="474"/>
      <point x="205" y="586"/>
      <point x="226" y="622" type="curve" smooth="yes"/>
      <point x="236" y="639"/>
      <point x="244" y="648"/>
      <point x="251" y="648" type="curve" smooth="yes"/>
      <point x="258" y="648"/>
      <point x="266" y="639"/>
      <point x="277" y="621" type="curve" smooth="yes"/>
      <point x="298" y="585"/>
      <point x="360" y="474"/>
      <point x="360" y="459" type="curve" smooth="yes"/>
      <point x="360" y="451"/>
      <point x="356" y="447"/>
      <point x="348" y="447" type="curve" smooth="yes"/>
      <point x="340" y="447"/>
      <point x="331" y="454"/>
      <point x="321" y="469" type="curve"/>
      <point x="309" y="485"/>
      <point x="287" y="513"/>
      <point x="255" y="553" type="curve"/>
      <point x="252" y="556"/>
      <point x="250" y="556"/>
      <point x="248" y="553" type="curve"/>
    </contour>
    <contour>
      <point x="364" y="51" type="line"/>
      <point x="364" y="57" type="line"/>
      <point x="316" y="10"/>
      <point x="261" y="-14"/>
      <point x="199" y="-14" type="curve" smooth="yes"/>
      <point x="131" y="-14"/>
      <point x="85" y="29"/>
      <point x="85" y="105" type="curve" smooth="yes"/>
      <point x="85" y="308" type="line" smooth="yes"/>
      <point x="85" y="335"/>
      <point x="71" y="354"/>
      <point x="42" y="365" type="curve"/>
      <point x="33" y="368"/>
      <point x="29" y="373"/>
      <point x="29" y="382" type="curve" smooth="yes"/>
      <point x="29" y="390"/>
      <point x="34" y="395"/>
      <point x="44" y="397" type="curve"/>
      <point x="67" y="398"/>
      <point x="102" y="403"/>
      <point x="147" y="414" type="curve"/>
      <point x="156" y="415"/>
      <point x="162" y="409"/>
      <point x="161" y="400" type="curve" smooth="yes"/>
      <point x="157" y="369"/>
      <point x="155" y="344"/>
      <point x="155" y="323" type="curve" smooth="yes"/>
      <point x="155" y="128" type="line" smooth="yes"/>
      <point x="155" y="80"/>
      <point x="196" y="37"/>
      <point x="239" y="37" type="curve" smooth="yes"/>
      <point x="316" y="37"/>
      <point x="368" y="76"/>
      <point x="368" y="132" type="curve" smooth="yes"/>
      <point x="368" y="315" type="line" smooth="yes"/>
      <point x="368" y="351"/>
      <point x="334" y="364"/>
      <point x="303" y="365" type="curve" smooth="yes"/>
      <point x="288" y="365"/>
      <point x="280" y="371"/>
      <point x="280" y="382" type="curve" smooth="yes"/>
      <point x="280" y="387"/>
      <point x="283" y="391"/>
      <point x="289" y="394" type="curve"/>
      <point x="294" y="396"/>
      <point x="303" y="397"/>
      <point x="315" y="398" type="curve"/>
      <point x="339" y="398"/>
      <point x="365" y="400"/>
      <point x="382" y="403" type="curve"/>
      <point x="391" y="404"/>
      <point x="397" y="405"/>
      <point x="400" y="406" type="curve"/>
      <point x="404" y="406"/>
      <point x="415" y="409"/>
      <point x="432" y="415" type="curve"/>
      <point x="434" y="415" type="line" smooth="yes"/>
      <point x="443" y="415"/>
      <point x="452" y="406"/>
      <point x="444" y="393" type="curve" smooth="yes"/>
      <point x="440" y="386"/>
      <point x="438" y="364"/>
      <point x="438" y="326" type="curve" smooth="yes"/>
      <point x="438" y="114" type="line" smooth="yes"/>
      <point x="438" y="68"/>
      <point x="444" y="45"/>
      <point x="456" y="45" type="curve" smooth="yes"/>
      <point x="477" y="45"/>
      <point x="492" y="46"/>
      <point x="502" y="48" type="curve" smooth="yes"/>
      <point x="512" y="50"/>
      <point x="517" y="46"/>
      <point x="517" y="36" type="curve" smooth="yes"/>
      <point x="517" y="26"/>
      <point x="512" y="21"/>
      <point x="503" y="21" type="curve"/>
      <point x="468" y="16"/>
      <point x="438" y="9"/>
      <point x="413" y="-2" type="curve" smooth="yes"/>
      <point x="387" y="-13"/>
      <point x="372" y="-19"/>
      <point x="367" y="-19" type="curve" smooth="yes"/>
      <point x="362" y="-19"/>
      <point x="359" y="-18"/>
      <point x="359" y="-15" type="curve"/>
    </contour>
  </outline>
</glyph>
<glyph name="yacute" format="1">
  <advance width="438"/>
  <unicode hex="00FD"/>
  <outline>
    <contour>
      <point x="359" y="614"/>
      <point x="281" y="520"/>
      <point x="247" y="484" type="curve" smooth="yes"/>
      <point x="230" y="465"/>
      <point x="218" y="456"/>
      <point x="212" y="456" type="curve" smooth="yes"/>
      <point x="205" y="456"/>
      <point x="202" y="462"/>
      <point x="202" y="473" type="curve" smooth="yes"/>
      <point x="202" y="484"/>
      <point x="229" y="537"/>
      <point x="283" y="631" type="curve" smooth="yes"/>
      <point x="290" y="643"/>
      <point x="299" y="649"/>
      <point x="310" y="649" type="curve" smooth="yes"/>
      <point x="343" y="649"/>
      <point x="359" y="641"/>
      <point x="359" y="626" type="curve" smooth="yes"/>
    </contour>
    <contour>
      <point x="364" y="400" type="line"/>
      <point x="423" y="405" type="line"/>
      <point x="436" y="405"/>
      <point x="443" y="402"/>
      <point x="443" y="396" type="curve" smooth="yes"/>
      <point x="443" y="389"/>
      <point x="437" y="384"/>
      <point x="424" y="380" type="curve"/>
      <point x="399" y="371"/>
      <point x="374" y="343"/>
      <point x="361" y="311" type="curve" smooth="yes"/>
      <point x="225" y="-13" type="line"/>
      <point x="224" y="-15"/>
      <point x="219" y="-28"/>
      <point x="209" y="-53" type="curve" smooth="yes"/>
      <point x="198" y="-78"/>
      <point x="185" y="-109"/>
      <point x="170" y="-146" type="curve" smooth="yes"/>
      <point x="139" y="-221"/>
      <point x="127" y="-285"/>
      <point x="64" y="-285" type="curve" smooth="yes"/>
      <point x="39" y="-285"/>
      <point x="13" y="-270"/>
      <point x="13" y="-249" type="curve" smooth="yes"/>
      <point x="13" y="-229"/>
      <point x="22" y="-219"/>
      <point x="40" y="-219" type="curve"/>
      <point x="80" y="-225" type="line"/>
      <point x="88" y="-225"/>
      <point x="94" y="-221"/>
      <point x="99" y="-214" type="curve"/>
      <point x="130" y="-161"/>
      <point x="160" y="-95"/>
      <point x="190" y="-16" type="curve"/>
      <point x="192" y="-10"/>
      <point x="193" y="-2"/>
      <point x="193" y="9" type="curve" smooth="yes"/>
      <point x="193" y="20"/>
      <point x="192" y="29"/>
      <point x="189" y="36" type="curve" smooth="yes"/>
      <point x="73" y="329" type="line" smooth="yes"/>
      <point x="62" y="356"/>
      <point x="47" y="373"/>
      <point x="28" y="378" type="curve"/>
      <point x="13" y="383"/>
      <point x="5" y="389"/>
      <point x="5" y="396" type="curve" smooth="yes"/>
      <point x="5" y="402"/>
      <point x="12" y="405"/>
      <point x="25" y="405" type="curve"/>
      <point x="98" y="400" type="line"/>
      <point x="174" y="405" type="line"/>
      <point x="187" y="405"/>
      <point x="194" y="401"/>
      <point x="194" y="394" type="curve" smooth="yes"/>
      <point x="194" y="385"/>
      <point x="184" y="377"/>
      <point x="165" y="372" type="curve"/>
      <point x="152" y="368"/>
      <point x="145" y="357"/>
      <point x="145" y="340" type="curve" smooth="yes"/>
      <point x="145" y="334"/>
      <point x="148" y="325"/>
      <point x="153" y="312" type="curve" smooth="yes"/>
      <point x="232" y="116" type="line" smooth="yes"/>
      <point x="237" y="103"/>
      <point x="242" y="104"/>
      <point x="247" y="117" type="curve" smooth="yes"/>
      <point x="314" y="295" type="line" smooth="yes"/>
      <point x="319" y="307"/>
      <point x="322" y="321"/>
      <point x="322" y="338" type="curve" smooth="yes"/>
      <point x="322" y="354"/>
      <point x="314" y="366"/>
      <point x="298" y="373" type="curve" smooth="yes"/>
      <point x="281" y="380"/>
      <point x="273" y="387"/>
      <point x="273" y="394" type="curve" smooth="yes"/>
      <point x="273" y="401"/>
      <point x="280" y="405"/>
      <point x="293" y="405" type="curve"/>
    </contour>
  </outline>
</glyph>
<glyph name="Dcaron" format="1">
  <advance width="754"/>
  <unicode hex="010E"/>
  <outline>
    <contour>
      <point x="196" y="829"/>
      <point x="200" y="832"/>
      <point x="208" y="832" type="curve" smooth="yes"/>
      <point x="224" y="832"/>
      <point x="304" y="793"/>
      <point x="326" y="781" type="curve"/>
      <point x="337" y="774"/>
      <point x="345" y="773"/>
      <point x="352" y="777" type="curve" smooth="yes"/>
      <point x="384" y="796"/>
      <point x="460" y="833"/>
      <point x="476" y="833" type="curve" smooth="yes"/>
      <point x="483" y="833"/>
      <point x="487" y="829"/>
      <point x="487" y="822" type="curve" smooth="yes"/>
      <point x="487" y="817"/>
      <point x="485" y="813"/>
      <point x="481" y="810" type="curve"/>
      <point x="383" y="722" type="line" smooth="yes"/>
      <point x="366" y="707"/>
      <point x="353" y="700"/>
      <point x="342" y="700" type="curve" smooth="yes"/>
      <point x="331" y="700"/>
      <point x="318" y="707"/>
      <point x="301" y="722" type="curve" smooth="yes"/>
      <point x="203" y="810" type="line"/>
      <point x="198" y="814"/>
      <point x="196" y="818"/>
      <point x="196" y="822" type="curve" smooth="yes"/>
    </contour>
    <contour>
      <point x="169" y="651" type="line"/>
      <point x="340" y="659" type="line"/>
      <point x="597" y="659"/>
      <point x="719" y="531"/>
      <point x="719" y="341" type="curve" smooth="yes"/>
      <point x="719" y="151"/>
      <point x="562" y="-7"/>
      <point x="371" y="-7" type="curve" smooth="yes"/>
      <point x="369" y="-7"/>
      <point x="342" y="-6"/>
      <point x="289" y="-3" type="curve" smooth="yes"/>
      <point x="236" y="-1"/>
      <point x="194" y="0"/>
      <point x="163" y="0" type="curve"/>
      <point x="58" y="-5" type="line"/>
      <point x="39" y="-5"/>
      <point x="29" y="-1"/>
      <point x="29" y="7" type="curve" smooth="yes"/>
      <point x="29" y="14"/>
      <point x="41" y="20"/>
      <point x="65" y="25" type="curve"/>
      <point x="112" y="33"/>
      <point x="129" y="51"/>
      <point x="129" y="99" type="curve" smooth="yes"/>
      <point x="129" y="549" type="line" smooth="yes"/>
      <point x="129" y="596"/>
      <point x="112" y="613"/>
      <point x="65" y="622" type="curve" smooth="yes"/>
      <point x="41" y="626"/>
      <point x="29" y="633"/>
      <point x="29" y="642" type="curve" smooth="yes"/>
      <point x="29" y="649"/>
      <point x="39" y="653"/>
      <point x="58" y="653" type="curve" smooth="yes"/>
      <point x="162" y="651" type="line"/>
    </contour>
    <contour>
      <point x="209" y="121" type="line" smooth="yes"/>
      <point x="209" y="42"/>
      <point x="278" y="28"/>
      <point x="359" y="28" type="curve" smooth="yes"/>
      <point x="515" y="28"/>
      <point x="624" y="149"/>
      <point x="624" y="328" type="curve" smooth="yes"/>
      <point x="624" y="507"/>
      <point x="492" y="628"/>
      <point x="345" y="628" type="curve" smooth="yes"/>
      <point x="282" y="628"/>
      <point x="244" y="623"/>
      <point x="231" y="614" type="curve" smooth="yes"/>
      <point x="216" y="604"/>
      <point x="209" y="588"/>
      <point x="209" y="567" type="curve" smooth="yes"/>
    </contour>
  </outline>
</glyph>
<glyph name="Emacron" format="1">
  <advance width="535"/>
  <unicode hex="0112"/>
  <outline>
    <contour>
      <point x="424" y="778" type="line" smooth="yes"/>
      <point x="431" y="778"/>
      <point x="437" y="773"/>
      <point x="437" y="761" type="curve" smooth="yes"/>
      <point x="437" y="748"/>
      <point x="422" y="724"/>
      <point x="406" y="724" type="curve" smooth="yes"/>
      <point x="151" y="724" type="line" smooth="yes"/>
      <point x="144" y="724"/>
      <point x="137" y="728"/>
      <point x="137" y="740" type="curve" smooth="yes"/>
      <point x="137" y="751"/>
      <point x="145" y="778"/>
      <point x="161" y="778" type="curve" smooth="yes"/>
    </contour>
    <contour>
      <point x="413" y="337" type="line"/>
      <point x="415" y="269" type="line" smooth="yes"/>
      <point x="415" y="258"/>
      <point x="412" y="252"/>
      <point x="406" y="252" type="curve" smooth="yes"/>
      <point x="395" y="252"/>
      <point x="388" y="260"/>
      <point x="383" y="275" type="curve" smooth="yes"/>
      <point x="373" y="305"/>
      <point x="358" y="320"/>
      <point x="337" y="320" type="curve" smooth="yes"/>
      <point x="244" y="320" type="line" smooth="yes"/>
      <point x="219" y="320"/>
      <point x="210" y="315"/>
      <point x="210" y="294" type="curve" smooth="yes"/>
      <point x="210" y="102" type="line" smooth="yes"/>
      <point x="210" y="53"/>
      <point x="229" y="35"/>
      <point x="276" y="35" type="curve" smooth="yes"/>
      <point x="380" y="35" type="line" smooth="yes"/>
      <point x="451" y="35"/>
      <point x="467" y="52"/>
      <point x="498" y="116" type="curve"/>
      <point x="506" y="131"/>
      <point x="525" y="127"/>
      <point x="525" y="115" type="curve" smooth="yes"/>
      <point x="525" y="88"/>
      <point x="519" y="54"/>
      <point x="508" y="12" type="curve" smooth="yes"/>
      <point x="505" y="1"/>
      <point x="501" y="-5"/>
      <point x="494" y="-5" type="curve" smooth="yes"/>
      <point x="167" y="1" type="line"/>
      <point x="52" y="-5" type="line"/>
      <point x="33" y="-5"/>
      <point x="23" y="-1"/>
      <point x="23" y="7" type="curve" smooth="yes"/>
      <point x="23" y="14"/>
      <point x="35" y="20"/>
      <point x="59" y="25" type="curve"/>
      <point x="107" y="33"/>
      <point x="130" y="52"/>
      <point x="130" y="99" type="curve" smooth="yes"/>
      <point x="130" y="549" type="line" smooth="yes"/>
      <point x="130" y="596"/>
      <point x="113" y="613"/>
      <point x="66" y="622" type="curve" smooth="yes"/>
      <point x="42" y="626"/>
      <point x="30" y="633"/>
      <point x="30" y="642" type="curve" smooth="yes"/>
      <point x="30" y="649"/>
      <point x="40" y="653"/>
      <point x="59" y="653" type="curve" smooth="yes"/>
      <point x="236" y="650" type="line"/>
      <point x="458" y="653" type="line" smooth="yes"/>
      <point x="469" y="653"/>
      <point x="475" y="650"/>
      <point x="476" y="644" type="curve" smooth="yes"/>
      <point x="486" y="590"/>
      <point x="491" y="557"/>
      <point x="491" y="545" type="curve" smooth="yes"/>
      <point x="491" y="532"/>
      <point x="486" y="526"/>
      <point x="477" y="526" type="curve" smooth="yes"/>
      <point x="472" y="526"/>
      <point x="468" y="529"/>
      <point x="466" y="536" type="curve" smooth="yes"/>
      <point x="446" y="599"/>
      <point x="434" y="618"/>
      <point x="377" y="618" type="curve" smooth="yes"/>
      <point x="246" y="618" type="line" smooth="yes"/>
      <point x="233" y="618"/>
      <point x="210" y="603"/>
      <point x="210" y="586" type="curve" smooth="yes"/>
      <point x="210" y="374" type="line" smooth="yes"/>
      <point x="210" y="362"/>
      <point x="219" y="352"/>
      <point x="228" y="352" type="curve" smooth="yes"/>
      <point x="324" y="352" type="line" smooth="yes"/>
      <point x="353" y="352"/>
      <point x="374" y="365"/>
      <point x="385" y="391" type="curve"/>
      <point x="388" y="396"/>
      <point x="399" y="408"/>
      <point x="404" y="408" type="curve" smooth="yes"/>
      <point x="408" y="408"/>
      <point x="416" y="401"/>
      <point x="416" y="392" type="curve"/>
    </contour>
  </outline>
</glyph>
<glyph name="emacron" format="1">
  <advance width="388"/>
  <unicode hex="0113"/>
  <outline>
    <contour>
      <point x="326" y="555" type="line" smooth="yes"/>
      <point x="333" y="555"/>
      <point x="339" y="551"/>
      <point x="339" y="536" type="curve" smooth="yes"/>
      <point x="339" y="521"/>
      <point x="328" y="500"/>
      <point x="308" y="500" type="curve" smooth="yes"/>
      <point x="113" y="500" type="line" smooth="yes"/>
      <point x="106" y="500"/>
      <point x="99" y="505"/>
      <point x="99" y="516" type="curve" smooth="yes"/>
      <point x="99" y="527"/>
      <point x="107" y="555"/>
      <point x="123" y="555" type="curve" smooth="yes"/>
    </contour>
    <contour>
      <point x="309" y="414"/>
      <point x="358" y="378"/>
      <point x="358" y="321" type="curve" smooth="yes"/>
      <point x="358" y="264"/>
      <point x="326" y="257"/>
      <point x="281" y="257" type="curve" smooth="yes"/>
      <point x="117" y="257" type="line" smooth="yes"/>
      <point x="98" y="257"/>
      <point x="92" y="252"/>
      <point x="92" y="220" type="curve" smooth="yes"/>
      <point x="92" y="127"/>
      <point x="157" y="46"/>
      <point x="241" y="46" type="curve" smooth="yes"/>
      <point x="282" y="46"/>
      <point x="314" y="61"/>
      <point x="337" y="90" type="curve"/>
      <point x="342" y="95"/>
      <point x="345" y="97"/>
      <point x="348" y="97" type="curve" smooth="yes"/>
      <point x="355" y="97"/>
      <point x="357" y="88"/>
      <point x="352" y="71" type="curve" smooth="yes"/>
      <point x="343" y="36"/>
      <point x="282" y="-14"/>
      <point x="194" y="-14" type="curve" smooth="yes"/>
      <point x="106" y="-14"/>
      <point x="30" y="76"/>
      <point x="30" y="198" type="curve" smooth="yes"/>
      <point x="30" y="320"/>
      <point x="117" y="414"/>
      <point x="229" y="414" type="curve" smooth="yes"/>
    </contour>
    <contour>
      <point x="295" y="358"/>
      <point x="257" y="383"/>
      <point x="210" y="383" type="curve" smooth="yes"/>
      <point x="162" y="383"/>
      <point x="111" y="334"/>
      <point x="111" y="303" type="curve" smooth="yes"/>
      <point x="111" y="293"/>
      <point x="117" y="288"/>
      <point x="130" y="288" type="curve" smooth="yes"/>
      <point x="212" y="288" type="line" smooth="yes"/>
      <point x="243" y="288"/>
      <point x="268" y="290"/>
      <point x="285" y="293" type="curve" smooth="yes"/>
      <point x="292" y="294"/>
      <point x="295" y="303"/>
      <point x="295" y="322" type="curve" smooth="yes"/>
    </contour>
  </outline>
</glyph>
<glyph name="edotaccent" format="1">
  <advance width="388"/>
  <unicode hex="0117"/>
  <outline>
    <contour>
      <point x="192" y="493"/>
      <point x="170" y="515"/>
      <point x="170" y="544" type="curve" smooth="yes"/>
      <point x="170" y="572"/>
      <point x="192" y="594"/>
      <point x="221" y="594" type="curve" smooth="yes"/>
      <point x="249" y="594"/>
      <point x="271" y="572"/>
      <point x="271" y="544" type="curve" smooth="yes"/>
      <point x="271" y="515"/>
      <point x="249" y="493"/>
      <point x="221" y="493" type="curve" smooth="yes"/>
    </contour>
    <contour>
      <point x="309" y="414"/>
      <point x="358" y="378"/>
      <point x="358" y="321" type="curve" smooth="yes"/>
      <point x="358" y="264"/>
      <point x="326" y="257"/>
      <point x="281" y="257" type="curve" smooth="yes"/>
      <point x="117" y="257" type="line" smooth="yes"/>
      <point x="98" y="257"/>
      <point x="92" y="252"/>
      <point x="92" y="220" type="curve" smooth="yes"/>
      <point x="92" y="127"/>
      <point x="157" y="46"/>
      <point x="241" y="46" type="curve" smooth="yes"/>
      <point x="282" y="46"/>
      <point x="314" y="61"/>
      <point x="337" y="90" type="curve"/>
      <point x="342" y="95"/>
      <point x="345" y="97"/>
      <point x="348" y="97" type="curve" smooth="yes"/>
      <point x="355" y="97"/>
      <point x="357" y="88"/>
      <point x="352" y="71" type="curve" smooth="yes"/>
      <point x="343" y="36"/>
      <point x="282" y="-14"/>
      <point x="194" y="-14" type="curve" smooth="yes"/>
      <point x="106" y="-14"/>
      <point x="30" y="76"/>
      <point x="30" y="198" type="curve" smooth="yes"/>
      <point x="30" y="320"/>
      <point x="117" y="414"/>
      <point x="229" y="414" type="curve" smooth="yes"/>
    </contour>
    <contour>
      <point x="295" y="358"/>
      <point x="257" y="383"/>
      <point x="210" y="383" type="curve" smooth="yes"/>
      <point x="162" y="383"/>
      <point x="111" y="334"/>
      <point x="111" y="303" type="curve" smooth="yes"/>
      <point x="111" y="293"/>
      <point x="117" y="288"/>
      <point x="130" y="288" type="curve" smooth="yes"/>
      <point x="212" y="288" type="line" smooth="yes"/>
      <point x="243" y="288"/>
      <point x="268" y="290"/>
      <point x="285" y="293" type="curve" smooth="yes"/>
      <point x="292" y="294"/>
      <point x="295" y="303"/>
      <point x="295" y="322" type="curve" smooth="yes"/>
    </contour>
  </outline>
</glyph>
<glyph name="eogonek" format="1">
  <advance width="388"/>
  <unicode hex="0119"/>
  <outline>
    <contour>
      <point x="343" y="-232"/>
      <point x="294" y="-287"/>
      <point x="239" y="-287" type="curve" smooth="yes"/>
      <point x="183" y="-287"/>
      <point x="142" y="-250"/>
      <point x="142" y="-179" type="curve" smooth="yes"/>
      <point x="142" y="-122"/>
      <point x="176" y="-66"/>
      <point x="245" y="-9" type="curve"/>
      <point x="230" y="-12"/>
      <point x="214" y="-14"/>
      <point x="198" y="-14" type="curve" smooth="yes"/>
      <point x="105" y="-14"/>
      <point x="30" y="76"/>
      <point x="30" y="198" type="curve" smooth="yes"/>
      <point x="30" y="320"/>
      <point x="117" y="414"/>
      <point x="229" y="414" type="curve" smooth="yes"/>
      <point x="309" y="414"/>
      <point x="358" y="378"/>
      <point x="358" y="321" type="curve" smooth="yes"/>
      <point x="358" y="264"/>
      <point x="326" y="257"/>
      <point x="281" y="257" type="curve" smooth="yes"/>
      <point x="117" y="257" type="line" smooth="yes"/>
      <point x="98" y="257"/>
      <point x="92" y="252"/>
      <point x="92" y="220" type="curve" smooth="yes"/>
      <point x="92" y="127"/>
      <point x="157" y="46"/>
      <point x="241" y="46" type="curve" smooth="yes"/>
      <point x="282" y="46"/>
      <point x="314" y="61"/>
      <point x="337" y="90" type="curve"/>
      <point x="342" y="95"/>
      <point x="345" y="97"/>
      <point x="348" y="97" type="curve" smooth="yes"/>
      <point x="355" y="97"/>
      <point x="357" y="90"/>
      <point x="354" y="77" type="curve"/>
      <point x="348" y="55"/>
      <point x="331" y="35"/>
      <point x="303" y="16" type="curve"/>
      <point x="283" y="1"/>
      <point x="263" y="-15"/>
      <point x="236" y="-68" type="curve" smooth="yes"/>
      <point x="223" y="-95"/>
      <point x="216" y="-121"/>
      <point x="216" y="-146" type="curve" smooth="yes"/>
      <point x="216" y="-197"/>
      <point x="243" y="-221"/>
      <point x="271" y="-221" type="curve" smooth="yes"/>
      <point x="298" y="-221"/>
      <point x="315" y="-212"/>
      <point x="326" y="-205" type="curve" smooth="yes"/>
      <point x="331" y="-202"/>
      <point x="334" y="-200"/>
      <point x="335" y="-200" type="curve" smooth="yes"/>
      <point x="340" y="-200"/>
      <point x="343" y="-202"/>
      <point x="343" y="-207" type="curve" smooth="yes"/>
    </contour>
    <contour>
      <point x="295" y="358"/>
      <point x="257" y="383"/>
      <point x="210" y="383" type="curve" smooth="yes"/>
      <point x="162" y="383"/>
      <point x="111" y="334"/>
      <point x="111" y="303" type="curve" smooth="yes"/>
      <point x="111" y="293"/>
      <point x="117" y="288"/>
      <point x="130" y="288" type="curve" smooth="yes"/>
      <point x="212" y="288" type="line" smooth="yes"/>
      <point x="243" y="288"/>
      <point x="268" y="290"/>
      <point x="285" y="293" type="curve" smooth="yes"/>
      <point x="292" y="294"/>
      <point x="295" y="303"/>
      <point x="295" y="322" type="curve" smooth="yes"/>
    </contour>
  </outline>
</glyph>
<glyph name="gcommaaccent" format="1">
  <advance width="435"/>
  <unicode hex="0123"/>
  <outline>
    <contour>
      <point x="183" y="568"/>
      <point x="194" y="547"/>
      <point x="218" y="547" type="curve" smooth="yes"/>
      <point x="241" y="547"/>
      <point x="261" y="527"/>
      <point x="261" y="507" type="curve" smooth="yes"/>
      <point x="261" y="487"/>
      <point x="241" y="469"/>
      <point x="214" y="469" type="curve" smooth="yes"/>
      <point x="166" y="469"/>
      <point x="131" y="509"/>
      <point x="131" y="568" type="curve" smooth="yes"/>
      <point x="131" y="627"/>
      <point x="200" y="686"/>
      <point x="255" y="689" type="curve"/>
      <point x="257" y="689" type="line" smooth="yes"/>
      <point x="269" y="689"/>
      <point x="275" y="686"/>
      <point x="275" y="679" type="curve" smooth="yes"/>
      <point x="275" y="674"/>
      <point x="270" y="670"/>
      <point x="261" y="668" type="curve" smooth="yes"/>
      <point x="217" y="659"/>
      <point x="183" y="624"/>
      <point x="183" y="596" type="curve" smooth="yes"/>
    </contour>
    <contour>
      <point x="82" y="-202"/>
      <point x="131" y="-250"/>
      <point x="210" y="-250" type="curve" smooth="yes"/>
      <point x="289" y="-250"/>
      <point x="357" y="-190"/>
      <point x="357" y="-109" type="curve" smooth="yes"/>
      <point x="357" y="-76"/>
      <point x="319" y="-52"/>
      <point x="274" y="-43" type="curve" smooth="yes"/>
      <point x="251" y="-39"/>
      <point x="220" y="-36"/>
      <point x="179" y="-34" type="curve"/>
      <point x="156" y="-34" type="line"/>
      <point x="148" y="-39"/>
      <point x="131" y="-55"/>
      <point x="106" y="-80" type="curve"/>
      <point x="90" y="-99"/>
      <point x="82" y="-117"/>
      <point x="82" y="-134" type="curve" smooth="yes"/>
    </contour>
    <contour>
      <point x="295" y="328"/>
      <point x="254" y="386"/>
      <point x="201" y="386" type="curve" smooth="yes"/>
      <point x="148" y="386"/>
      <point x="113" y="326"/>
      <point x="113" y="266" type="curve" smooth="yes"/>
      <point x="113" y="206"/>
      <point x="153" y="141"/>
      <point x="205" y="141" type="curve" smooth="yes"/>
      <point x="257" y="141"/>
      <point x="295" y="199"/>
      <point x="295" y="264" type="curve" smooth="yes"/>
    </contour>
    <contour>
      <point x="405" y="386" type="line" smooth="yes"/>
      <point x="421" y="386"/>
      <point x="435" y="390"/>
      <point x="435" y="367" type="curve" smooth="yes"/>
      <point x="435" y="355"/>
      <point x="432" y="349"/>
      <point x="426" y="349" type="curve" smooth="yes"/>
      <point x="401" y="349"/>
      <point x="387" y="348"/>
      <point x="384" y="347" type="curve" smooth="yes"/>
      <point x="381" y="346"/>
      <point x="378" y="345"/>
      <point x="376" y="344" type="curve" smooth="yes"/>
      <point x="374" y="343"/>
      <point x="372" y="342"/>
      <point x="369" y="341" type="curve"/>
      <point x="366" y="334"/>
      <point x="365" y="318"/>
      <point x="365" y="295" type="curve" smooth="yes"/>
      <point x="365" y="195"/>
      <point x="293" y="106"/>
      <point x="197" y="106" type="curve" smooth="yes"/>
      <point x="176" y="106"/>
      <point x="158" y="110"/>
      <point x="143" y="118" type="curve"/>
      <point x="114" y="95"/>
      <point x="99" y="79"/>
      <point x="99" y="69" type="curve" smooth="yes"/>
      <point x="99" y="48"/>
      <point x="131" y="34"/>
      <point x="195" y="28" type="curve" smooth="yes"/>
      <point x="282" y="20"/>
      <point x="333" y="13"/>
      <point x="348" y="6" type="curve" smooth="yes"/>
      <point x="378" y="-7"/>
      <point x="418" y="-20"/>
      <point x="418" y="-77" type="curve" smooth="yes"/>
      <point x="418" y="-184"/>
      <point x="299" y="-290"/>
      <point x="197" y="-290" type="curve" smooth="yes"/>
      <point x="95" y="-290"/>
      <point x="11" y="-256"/>
      <point x="11" y="-176" type="curve" smooth="yes"/>
      <point x="11" y="-135"/>
      <point x="30" y="-108"/>
      <point x="79" y="-77" type="curve" smooth="yes"/>
      <point x="103" y="-62"/>
      <point x="120" y="-46"/>
      <point x="130" y="-31" type="curve"/>
      <point x="85" y="-22"/>
      <point x="40" y="3"/>
      <point x="40" y="44" type="curve" smooth="yes"/>
      <point x="40" y="57"/>
      <point x="48" y="69"/>
      <point x="63" y="81" type="curve" smooth="yes"/>
      <point x="67" y="84"/>
      <point x="73" y="88"/>
      <point x="82" y="93" type="curve"/>
      <point x="100" y="104"/>
      <point x="113" y="115"/>
      <point x="122" y="127" type="curve"/>
      <point x="113" y="129"/>
      <point x="100" y="138"/>
      <point x="84" y="153" type="curve" smooth="yes"/>
      <point x="51" y="184"/>
      <point x="35" y="221"/>
      <point x="35" y="264" type="curve" smooth="yes"/>
      <point x="35" y="351"/>
      <point x="120" y="416"/>
      <point x="213" y="416" type="curve" smooth="yes"/>
      <point x="230" y="416"/>
      <point x="249" y="412"/>
      <point x="272" y="405" type="curve" smooth="yes"/>
      <point x="314" y="392"/>
      <point x="348" y="385"/>
      <point x="373" y="385" type="curve" smooth="yes"/>
    </contour>
  </outline>
</glyph>
<glyph name="Hcircumflex" format="1">
  <advance width="810"/>
  <unicode hex="0124"/>
  <outline>
    <contour>
      <point x="365" y="739"/>
      <point x="288" y="701"/>
      <point x="272" y="701" type="curve" smooth="yes"/>
      <point x="264" y="701"/>
      <point x="260" y="704"/>
      <point x="260" y="711" type="curve" smooth="yes"/>
      <point x="260" y="715"/>
      <point x="262" y="719"/>
      <point x="267" y="723" type="curve"/>
      <point x="365" y="811" type="line" smooth="yes"/>
      <point x="382" y="826"/>
      <point x="395" y="833"/>
      <point x="406" y="833" type="curve" smooth="yes"/>
      <point x="417" y="833"/>
      <point x="430" y="826"/>
      <point x="447" y="811" type="curve" smooth="yes"/>
      <point x="545" y="723" type="line"/>
      <point x="549" y="720"/>
      <point x="551" y="716"/>
      <point x="551" y="711" type="curve" smooth="yes"/>
      <point x="551" y="704"/>
      <point x="547" y="700"/>
      <point x="540" y="700" type="curve" smooth="yes"/>
      <point x="524" y="700"/>
      <point x="446" y="739"/>
      <point x="423" y="752" type="curve"/>
      <point x="412" y="759"/>
      <point x="403" y="760"/>
      <point x="396" y="756" type="curve" smooth="yes"/>
    </contour>
    <contour>
      <point x="648" y="650" type="line"/>
      <point x="739" y="653" type="line" smooth="yes"/>
      <point x="758" y="653"/>
      <point x="768" y="649"/>
      <point x="768" y="642" type="curve" smooth="yes"/>
      <point x="768" y="633"/>
      <point x="757" y="626"/>
      <point x="735" y="622" type="curve" smooth="yes"/>
      <point x="690" y="614"/>
      <point x="682" y="596"/>
      <point x="682" y="552" type="curve" smooth="yes"/>
      <point x="682" y="100" type="line" smooth="yes"/>
      <point x="682" y="48"/>
      <point x="690" y="32"/>
      <point x="736" y="24" type="curve" smooth="yes"/>
      <point x="759" y="20"/>
      <point x="770" y="14"/>
      <point x="770" y="7" type="curve" smooth="yes"/>
      <point x="770" y="-1"/>
      <point x="760" y="-5"/>
      <point x="741" y="-5" type="curve"/>
      <point x="637" y="0" type="line"/>
      <point x="530" y="-5" type="line"/>
      <point x="511" y="-5"/>
      <point x="501" y="-1"/>
      <point x="501" y="7" type="curve" smooth="yes"/>
      <point x="501" y="14"/>
      <point x="512" y="20"/>
      <point x="534" y="24" type="curve" smooth="yes"/>
      <point x="579" y="33"/>
      <point x="602" y="57"/>
      <point x="602" y="97" type="curve" smooth="yes"/>
      <point x="602" y="287" type="line" smooth="yes"/>
      <point x="602" y="297"/>
      <point x="600" y="302"/>
      <point x="597" y="302" type="curve" smooth="yes"/>
      <point x="215" y="302" type="line" smooth="yes"/>
      <point x="212" y="302"/>
      <point x="210" y="298"/>
      <point x="210" y="291" type="curve" smooth="yes"/>
      <point x="210" y="106" type="line" smooth="yes"/>
      <point x="210" y="65"/>
      <point x="243" y="32"/>
      <point x="288" y="24" type="curve" smooth="yes"/>
      <point x="311" y="20"/>
      <point x="322" y="14"/>
      <point x="322" y="7" type="curve" smooth="yes"/>
      <point x="322" y="-1"/>
      <point x="312" y="-5"/>
      <point x="293" y="-5" type="curve"/>
      <point x="176" y="0" type="line"/>
      <point x="66" y="-5" type="line"/>
      <point x="47" y="-5"/>
      <point x="37" y="-1"/>
      <point x="37" y="7" type="curve" smooth="yes"/>
      <point x="37" y="14"/>
      <point x="49" y="20"/>
      <point x="72" y="25" type="curve"/>
      <point x="118" y="33"/>
      <point x="130" y="50"/>
      <point x="130" y="99" type="curve" smooth="yes"/>
      <point x="130" y="551" type="line" smooth="yes"/>
      <point x="130" y="600"/>
      <point x="123" y="614"/>
      <point x="78" y="622" type="curve" smooth="yes"/>
      <point x="55" y="626"/>
      <point x="44" y="633"/>
      <point x="44" y="642" type="curve" smooth="yes"/>
      <point x="44" y="649"/>
      <point x="54" y="653"/>
      <point x="73" y="653" type="curve" smooth="yes"/>
      <point x="176" y="650" type="line"/>
      <point x="282" y="653" type="line" smooth="yes"/>
      <point x="301" y="653"/>
      <point x="311" y="649"/>
      <point x="311" y="642" type="curve" smooth="yes"/>
      <point x="311" y="633"/>
      <point x="300" y="626"/>
      <point x="278" y="622" type="curve" smooth="yes"/>
      <point x="233" y="614"/>
      <point x="210" y="590"/>
      <point x="210" y="551" type="curve" smooth="yes"/>
      <point x="210" y="359" type="line" smooth="yes"/>
      <point x="210" y="353"/>
      <point x="215" y="350"/>
      <point x="224" y="350" type="curve" smooth="yes"/>
      <point x="595" y="350" type="line" smooth="yes"/>
      <point x="600" y="350"/>
      <point x="602" y="354"/>
      <point x="602" y="362" type="curve" smooth="yes"/>
      <point x="602" y="552" type="line" smooth="yes"/>
      <point x="602" y="591"/>
      <point x="580" y="614"/>
      <point x="536" y="622" type="curve" smooth="yes"/>
      <point x="514" y="626"/>
      <point x="503" y="633"/>
      <point x="503" y="642" type="curve" smooth="yes"/>
      <point x="503" y="649"/>
      <point x="513" y="653"/>
      <point x="532" y="653" type="curve" smooth="yes"/>
    </contour>
  </outline>
</glyph>
<glyph name="Hbar" format="1">
  <advance width="810"/>
  <unicode hex="0126"/>
  <outline>
    <contour>
      <point x="739" y="653" type="line" smooth="yes"/>
      <point x="758" y="653"/>
      <point x="768" y="649"/>
      <point x="768" y="642" type="curve" smooth="yes"/>
      <point x="768" y="633"/>
      <point x="757" y="626"/>
      <point x="735" y="622" type="curve" smooth="yes"/>
      <point x="690" y="614"/>
      <point x="682" y="596"/>
      <point x="682" y="552" type="curve" smooth="yes"/>
      <point x="682" y="492" type="line"/>
      <point x="749" y="492" type="line" smooth="yes"/>
      <point x="757" y="492"/>
      <point x="765" y="485"/>
      <point x="762" y="478" type="curve"/>
      <point x="754" y="463"/>
      <point x="744" y="456"/>
      <point x="731" y="456" type="curve" smooth="yes"/>
      <point x="682" y="456" type="line"/>
      <point x="682" y="100" type="line" smooth="yes"/>
      <point x="682" y="48"/>
      <point x="690" y="32"/>
      <point x="736" y="24" type="curve" smooth="yes"/>
      <point x="759" y="20"/>
      <point x="770" y="14"/>
      <point x="770" y="7" type="curve" smooth="yes"/>
      <point x="770" y="-1"/>
      <point x="760" y="-5"/>
      <point x="741" y="-5" type="curve"/>
      <point x="637" y="0" type="line"/>
      <point x="530" y="-5" type="line"/>
      <point x="511" y="-5"/>
      <point x="501" y="-1"/>
      <point x="501" y="7" type="curve" smooth="yes"/>
      <point x="501" y="14"/>
      <point x="512" y="20"/>
      <point x="534" y="24" type="curve" smooth="yes"/>
      <point x="579" y="33"/>
      <point x="602" y="57"/>
      <point x="602" y="97" type="curve" smooth="yes"/>
      <point x="602" y="287" type="line" smooth="yes"/>
      <point x="602" y="297"/>
      <point x="600" y="302"/>
      <point x="597" y="302" type="curve" smooth="yes"/>
      <point x="215" y="302" type="line" smooth="yes"/>
      <point x="212" y="302"/>
      <point x="210" y="298"/>
      <point x="210" y="291" type="curve" smooth="yes"/>
      <point x="210" y="106" type="line" smooth="yes"/>
      <point x="210" y="65"/>
      <point x="243" y="32"/>
      <point x="288" y="24" type="curve" smooth="yes"/>
      <point x="311" y="20"/>
      <point x="322" y="14"/>
      <point x="322" y="7" type="curve" smooth="yes"/>
      <point x="322" y="-1"/>
      <point x="312" y="-5"/>
      <point x="293" y="-5" type="curve"/>
      <point x="176" y="0" type="line"/>
      <point x="66" y="-5" type="line"/>
      <point x="47" y="-5"/>
      <point x="37" y="-1"/>
      <point x="37" y="7" type="curve" smooth="yes"/>
      <point x="37" y="14"/>
      <point x="49" y="20"/>
      <point x="72" y="25" type="curve"/>
      <point x="118" y="33"/>
      <point x="130" y="50"/>
      <point x="130" y="99" type="curve" smooth="yes"/>
      <point x="130" y="456" type="line"/>
      <point x="66" y="456" type="line" smooth="yes"/>
      <point x="58" y="456"/>
      <point x="52" y="466"/>
      <point x="52" y="475" type="curve" smooth="yes"/>
      <point x="52" y="483"/>
      <point x="64" y="492"/>
      <point x="76" y="492" type="curve" smooth="yes"/>
      <point x="130" y="492" type="line"/>
      <point x="130" y="551" type="line" smooth="yes"/>
      <point x="130" y="600"/>
      <point x="123" y="614"/>
      <point x="78" y="622" type="curve" smooth="yes"/>
      <point x="55" y="626"/>
      <point x="44" y="633"/>
      <point x="44" y="642" type="curve" smooth="yes"/>
      <point x="44" y="649"/>
      <point x="54" y="653"/>
      <point x="73" y="653" type="curve" smooth="yes"/>
      <point x="176" y="650" type="line"/>
      <point x="176" y="650"/>
      <point x="211" y="651"/>
      <point x="282" y="653" type="curve" smooth="yes"/>
      <point x="301" y="653"/>
      <point x="311" y="649"/>
      <point x="311" y="642" type="curve" smooth="yes"/>
      <point x="311" y="633"/>
      <point x="300" y="626"/>
      <point x="278" y="622" type="curve" smooth="yes"/>
      <point x="233" y="614"/>
      <point x="210" y="590"/>
      <point x="210" y="551" type="curve" smooth="yes"/>
      <point x="210" y="492" type="line"/>
      <point x="602" y="492" type="line"/>
      <point x="602" y="552" type="line" smooth="yes"/>
      <point x="602" y="591"/>
      <point x="580" y="614"/>
      <point x="536" y="622" type="curve" smooth="yes"/>
      <point x="514" y="626"/>
      <point x="503" y="633"/>
      <point x="503" y="642" type="curve" smooth="yes"/>
      <point x="503" y="649"/>
      <point x="513" y="653"/>
      <point x="532" y="653" type="curve"/>
      <point x="532" y="653"/>
      <point x="571" y="652"/>
      <point x="648" y="650" type="curve"/>
    </contour>
    <contour>
      <point x="602" y="456" type="line"/>
      <point x="210" y="456" type="line"/>
      <point x="210" y="359" type="line" smooth="yes"/>
      <point x="210" y="353"/>
      <point x="215" y="350"/>
      <point x="224" y="350" type="curve" smooth="yes"/>
      <point x="595" y="350" type="line" smooth="yes"/>
      <point x="600" y="350"/>
      <point x="602" y="354"/>
      <point x="602" y="362" type="curve" smooth="yes"/>
    </contour>
  </outline>
</glyph>
<glyph name="imacron" format="1">
  <advance width="245"/>
  <unicode hex="012B"/>
  <outline>
    <contour>
      <point x="222" y="555" type="line" smooth="yes"/>
      <point x="229" y="555"/>
      <point x="235" y="551"/>
      <point x="235" y="536" type="curve" smooth="yes"/>
      <point x="235" y="521"/>
      <point x="224" y="500"/>
      <point x="204" y="500" type="curve" smooth="yes"/>
      <point x="9" y="500" type="line" smooth="yes"/>
      <point x="2" y="500"/>
      <point x="-5" y="505"/>
      <point x="-5" y="516" type="curve" smooth="yes"/>
      <point x="-5" y="527"/>
      <point x="3" y="555"/>
      <point x="19" y="555" type="curve" smooth="yes"/>
    </contour>
    <contour>
      <point x="125" y="2" type="line"/>
      <point x="44" y="-3" type="line"/>
      <point x="31" y="-3"/>
      <point x="24" y="0"/>
      <point x="24" y="7" type="curve" smooth="yes"/>
      <point x="24" y="13"/>
      <point x="33" y="19"/>
      <point x="52" y="25" type="curve" smooth="yes"/>
      <point x="71" y="31"/>
      <point x="82" y="37"/>
      <point x="85" y="44" type="curve"/>
      <point x="88" y="50"/>
      <point x="90" y="56"/>
      <point x="90" y="62" type="curve" smooth="yes"/>
      <point x="90" y="279" type="line" smooth="yes"/>
      <point x="90" y="321"/>
      <point x="74" y="345"/>
      <point x="43" y="352" type="curve" smooth="yes"/>
      <point x="38" y="353"/>
      <point x="35" y="358"/>
      <point x="35" y="365" type="curve" smooth="yes"/>
      <point x="35" y="372"/>
      <point x="37" y="376"/>
      <point x="42" y="377" type="curve"/>
      <point x="75" y="385"/>
      <point x="109" y="401"/>
      <point x="144" y="424" type="curve" smooth="yes"/>
      <point x="155" y="431"/>
      <point x="161" y="434"/>
      <point x="162" y="434" type="curve" smooth="yes"/>
      <point x="167" y="434"/>
      <point x="169" y="432"/>
      <point x="169" y="429" type="curve"/>
      <point x="163" y="368"/>
      <point x="160" y="323"/>
      <point x="160" y="294" type="curve" smooth="yes"/>
      <point x="160" y="62" type="line" smooth="yes"/>
      <point x="160" y="35"/>
      <point x="178" y="32"/>
      <point x="206" y="23" type="curve"/>
      <point x="219" y="18"/>
      <point x="226" y="13"/>
      <point x="226" y="7" type="curve" smooth="yes"/>
      <point x="226" y="0"/>
      <point x="219" y="-3"/>
      <point x="206" y="-3" type="curve"/>
    </contour>
  </outline>
</glyph>
<glyph name="Iogonek" format="1">
  <advance width="340"/>
  <unicode hex="012E"/>
  <outline>
    <contour>
      <point x="210" y="-1" type="line"/>
      <point x="152" y="-50"/>
      <point x="123" y="-102"/>
      <point x="123" y="-155" type="curve" smooth="yes"/>
      <point x="123" y="-190"/>
      <point x="156" y="-216"/>
      <point x="182" y="-216" type="curve" smooth="yes"/>
      <point x="208" y="-216"/>
      <point x="227" y="-207"/>
      <point x="240" y="-198" type="curve"/>
      <point x="257" y="-185"/>
      <point x="268" y="-178"/>
      <point x="271" y="-176" type="curve" smooth="yes"/>
      <point x="277" y="-172"/>
      <point x="283" y="-174"/>
      <point x="283" y="-182" type="curve" smooth="yes"/>
      <point x="283" y="-225"/>
      <point x="207" y="-287"/>
      <point x="149" y="-287" type="curve" smooth="yes"/>
      <point x="91" y="-287"/>
      <point x="38" y="-237"/>
      <point x="38" y="-173" type="curve" smooth="yes"/>
      <point x="38" y="-109"/>
      <point x="108" y="-45"/>
      <point x="179" y="0" type="curve"/>
      <point x="176" y="0" type="line"/>
      <point x="48" y="-5" type="line"/>
      <point x="29" y="-5"/>
      <point x="19" y="-1"/>
      <point x="19" y="7" type="curve" smooth="yes"/>
      <point x="19" y="14"/>
      <point x="31" y="20"/>
      <point x="56" y="25" type="curve" smooth="yes"/>
      <point x="104" y="33"/>
      <point x="130" y="53"/>
      <point x="130" y="98" type="curve" smooth="yes"/>
      <point x="130" y="550" type="line" smooth="yes"/>
      <point x="130" y="597"/>
      <point x="113" y="613"/>
      <point x="66" y="622" type="curve" smooth="yes"/>
      <point x="42" y="626"/>
      <point x="30" y="633"/>
      <point x="30" y="642" type="curve" smooth="yes"/>
      <point x="30" y="649"/>
      <point x="40" y="653"/>
      <point x="59" y="653" type="curve" smooth="yes"/>
      <point x="176" y="650" type="line"/>
      <point x="285" y="653" type="line" smooth="yes"/>
      <point x="304" y="653"/>
      <point x="314" y="649"/>
      <point x="314" y="642" type="curve" smooth="yes"/>
      <point x="314" y="633"/>
      <point x="302" y="626"/>
      <point x="278" y="622" type="curve" smooth="yes"/>
      <point x="230" y="613"/>
      <point x="210" y="595"/>
      <point x="210" y="550" type="curve" smooth="yes"/>
      <point x="210" y="98" type="line" smooth="yes"/>
      <point x="210" y="53"/>
      <point x="237" y="33"/>
      <point x="286" y="25" type="curve"/>
      <point x="310" y="20"/>
      <point x="322" y="14"/>
      <point x="322" y="7" type="curve" smooth="yes"/>
      <point x="322" y="-1"/>
      <point x="312" y="-5"/>
      <point x="293" y="-5" type="curve"/>
    </contour>
  </outline>
</glyph>
<glyph name="iogonek" format="1">
  <advance width="245"/>
  <unicode hex="012F"/>
  <outline>
    <contour>
      <point x="150" y="1" type="line"/>
      <point x="113" y="-44"/>
      <point x="94" y="-98"/>
      <point x="94" y="-163" type="curve" smooth="yes"/>
      <point x="94" y="-206"/>
      <point x="121" y="-232"/>
      <point x="149" y="-232" type="curve" smooth="yes"/>
      <point x="176" y="-232"/>
      <point x="193" y="-224"/>
      <point x="204" y="-216" type="curve"/>
      <point x="209" y="-213"/>
      <point x="212" y="-211"/>
      <point x="213" y="-211" type="curve" smooth="yes"/>
      <point x="218" y="-211"/>
      <point x="221" y="-213"/>
      <point x="221" y="-218" type="curve" smooth="yes"/>
      <point x="221" y="-243"/>
      <point x="172" y="-298"/>
      <point x="117" y="-298" type="curve" smooth="yes"/>
      <point x="61" y="-298"/>
      <point x="20" y="-259"/>
      <point x="20" y="-195" type="curve" smooth="yes"/>
      <point x="20" y="-132"/>
      <point x="60" y="-66"/>
      <point x="85" y="-37" type="curve"/>
      <point x="98" y="-23"/>
      <point x="110" y="-10"/>
      <point x="123" y="2" type="curve"/>
      <point x="44" y="-3" type="line"/>
      <point x="31" y="-3"/>
      <point x="24" y="0"/>
      <point x="24" y="7" type="curve" smooth="yes"/>
      <point x="24" y="13"/>
      <point x="33" y="19"/>
      <point x="52" y="25" type="curve" smooth="yes"/>
      <point x="71" y="31"/>
      <point x="82" y="37"/>
      <point x="85" y="44" type="curve"/>
      <point x="88" y="50"/>
      <point x="90" y="56"/>
      <point x="90" y="62" type="curve" smooth="yes"/>
      <point x="90" y="279" type="line" smooth="yes"/>
      <point x="90" y="321"/>
      <point x="74" y="345"/>
      <point x="43" y="352" type="curve" smooth="yes"/>
      <point x="38" y="353"/>
      <point x="35" y="358"/>
      <point x="35" y="365" type="curve" smooth="yes"/>
      <point x="35" y="372"/>
      <point x="37" y="376"/>
      <point x="42" y="377" type="curve"/>
      <point x="75" y="385"/>
      <point x="109" y="401"/>
      <point x="144" y="424" type="curve" smooth="yes"/>
      <point x="155" y="431"/>
      <point x="161" y="434"/>
      <point x="162" y="434" type="curve" smooth="yes"/>
      <point x="167" y="434"/>
      <point x="169" y="432"/>
      <point x="169" y="429" type="curve"/>
      <point x="163" y="368"/>
      <point x="160" y="323"/>
      <point x="160" y="294" type="curve" smooth="yes"/>
      <point x="160" y="62" type="line" smooth="yes"/>
      <point x="160" y="35"/>
      <point x="178" y="32"/>
      <point x="206" y="23" type="curve"/>
      <point x="219" y="18"/>
      <point x="226" y="13"/>
      <point x="226" y="7" type="curve" smooth="yes"/>
      <point x="226" y="0"/>
      <point x="219" y="-3"/>
      <point x="206" y="-3" type="curve"/>
    </contour>
    <contour>
      <point x="90" y="513"/>
      <point x="68" y="535"/>
      <point x="68" y="564" type="curve" smooth="yes"/>
      <point x="68" y="592"/>
      <point x="90" y="614"/>
      <point x="119" y="614" type="curve" smooth="yes"/>
      <point x="147" y="614"/>
      <point x="169" y="592"/>
      <point x="169" y="564" type="curve" smooth="yes"/>
      <point x="169" y="535"/>
      <point x="147" y="513"/>
      <point x="119" y="513" type="curve" smooth="yes"/>
    </contour>
  </outline>
</glyph>
<glyph name="Lacute" format="1">
  <advance width="574"/>
  <unicode hex="0139"/>
  <outline>
    <contour>
      <point x="164" y="700"/>
      <point x="158" y="697"/>
      <point x="154" y="697" type="curve" smooth="yes"/>
      <point x="150" y="697"/>
      <point x="148" y="699"/>
      <point x="148" y="704" type="curve" smooth="yes"/>
      <point x="148" y="713"/>
      <point x="175" y="758"/>
      <point x="230" y="837" type="curve" smooth="yes"/>
      <point x="236" y="846"/>
      <point x="244" y="850"/>
      <point x="255" y="850" type="curve" smooth="yes"/>
      <point x="276" y="850"/>
      <point x="315" y="839"/>
      <point x="315" y="828" type="curve" smooth="yes"/>
      <point x="315" y="823"/>
      <point x="311" y="816"/>
      <point x="302" y="808" type="curve" smooth="yes"/>
      <point x="272" y="783"/>
      <point x="229" y="749"/>
      <point x="172" y="706" type="curve" smooth="yes"/>
    </contour>
    <contour>
      <point x="177" y="650" type="line"/>
      <point x="303" y="653" type="line" smooth="yes"/>
      <point x="322" y="653"/>
      <point x="332" y="649"/>
      <point x="332" y="642" type="curve" smooth="yes"/>
      <point x="332" y="633"/>
      <point x="323" y="626"/>
      <point x="304" y="623" type="curve" smooth="yes"/>
      <point x="266" y="616"/>
      <point x="256" y="614"/>
      <point x="236" y="606" type="curve" smooth="yes"/>
      <point x="219" y="599"/>
      <point x="210" y="586"/>
      <point x="210" y="567" type="curve" smooth="yes"/>
      <point x="210" y="96" type="line" smooth="yes"/>
      <point x="210" y="52"/>
      <point x="224" y="35"/>
      <point x="287" y="35" type="curve" smooth="yes"/>
      <point x="433" y="35" type="line" smooth="yes"/>
      <point x="437" y="35"/>
      <point x="445" y="38"/>
      <point x="458" y="43" type="curve"/>
      <point x="493" y="58"/>
      <point x="520" y="87"/>
      <point x="541" y="132" type="curve"/>
      <point x="548" y="152"/>
      <point x="556" y="162"/>
      <point x="564" y="162" type="curve" smooth="yes"/>
      <point x="571" y="162"/>
      <point x="575" y="156"/>
      <point x="575" y="144" type="curve"/>
      <point x="574" y="143"/>
      <point x="574" y="142"/>
      <point x="574" y="141" type="curve" smooth="yes"/>
      <point x="574" y="139" type="line"/>
      <point x="559" y="82"/>
      <point x="550" y="39"/>
      <point x="547" y="12" type="curve" smooth="yes"/>
      <point x="546" y="1"/>
      <point x="541" y="-5"/>
      <point x="533" y="-5" type="curve" smooth="yes"/>
      <point x="190" y="0" type="line"/>
      <point x="55" y="-5" type="line"/>
      <point x="36" y="-5"/>
      <point x="27" y="-1"/>
      <point x="27" y="7" type="curve" smooth="yes"/>
      <point x="27" y="14"/>
      <point x="34" y="20"/>
      <point x="49" y="24" type="curve"/>
      <point x="104" y="35"/>
      <point x="130" y="53"/>
      <point x="130" y="96" type="curve" smooth="yes"/>
      <point x="130" y="560" type="line" smooth="yes"/>
      <point x="130" y="607"/>
      <point x="120" y="613"/>
      <point x="72" y="622" type="curve" smooth="yes"/>
      <point x="48" y="626"/>
      <point x="36" y="633"/>
      <point x="36" y="642" type="curve" smooth="yes"/>
      <point x="36" y="649"/>
      <point x="46" y="653"/>
      <point x="65" y="653" type="curve" smooth="yes"/>
    </contour>
  </outline>
</glyph>
<glyph name="Lcommaaccent" format="1">
  <advance width="574"/>
  <unicode hex="013B"/>
  <outline>
    <contour>
      <point x="263" y="-275"/>
      <point x="259" y="-272"/>
      <point x="259" y="-266" type="curve" smooth="yes"/>
      <point x="259" y="-261"/>
      <point x="266" y="-255"/>
      <point x="280" y="-250" type="curve" smooth="yes"/>
      <point x="307" y="-240"/>
      <point x="326" y="-206"/>
      <point x="326" y="-175" type="curve" smooth="yes"/>
      <point x="326" y="-160"/>
      <point x="316" y="-150"/>
      <point x="296" y="-145" type="curve"/>
      <point x="271" y="-140"/>
      <point x="246" y="-121"/>
      <point x="246" y="-98" type="curve" smooth="yes"/>
      <point x="246" y="-75"/>
      <point x="264" y="-57"/>
      <point x="292" y="-57" type="curve" smooth="yes"/>
      <point x="340" y="-57"/>
      <point x="380" y="-97"/>
      <point x="380" y="-161" type="curve" smooth="yes"/>
      <point x="380" y="-226"/>
      <point x="311" y="-275"/>
      <point x="272" y="-275" type="curve" smooth="yes"/>
    </contour>
    <contour>
      <point x="177" y="650" type="line"/>
      <point x="303" y="653" type="line" smooth="yes"/>
      <point x="322" y="653"/>
      <point x="332" y="649"/>
      <point x="332" y="642" type="curve" smooth="yes"/>
      <point x="332" y="633"/>
      <point x="323" y="626"/>
      <point x="304" y="623" type="curve" smooth="yes"/>
      <point x="266" y="616"/>
      <point x="256" y="614"/>
      <point x="236" y="606" type="curve" smooth="yes"/>
      <point x="219" y="599"/>
      <point x="210" y="586"/>
      <point x="210" y="567" type="curve" smooth="yes"/>
      <point x="210" y="96" type="line" smooth="yes"/>
      <point x="210" y="52"/>
      <point x="224" y="35"/>
      <point x="287" y="35" type="curve" smooth="yes"/>
      <point x="433" y="35" type="line" smooth="yes"/>
      <point x="437" y="35"/>
      <point x="445" y="38"/>
      <point x="458" y="43" type="curve"/>
      <point x="493" y="58"/>
      <point x="520" y="87"/>
      <point x="541" y="132" type="curve"/>
      <point x="548" y="152"/>
      <point x="556" y="162"/>
      <point x="564" y="162" type="curve" smooth="yes"/>
      <point x="571" y="162"/>
      <point x="575" y="156"/>
      <point x="575" y="144" type="curve"/>
      <point x="574" y="143"/>
      <point x="574" y="142"/>
      <point x="574" y="141" type="curve" smooth="yes"/>
      <point x="574" y="139" type="line"/>
      <point x="559" y="82"/>
      <point x="550" y="39"/>
      <point x="547" y="12" type="curve" smooth="yes"/>
      <point x="546" y="1"/>
      <point x="541" y="-5"/>
      <point x="533" y="-5" type="curve" smooth="yes"/>
      <point x="190" y="0" type="line"/>
      <point x="55" y="-5" type="line"/>
      <point x="36" y="-5"/>
      <point x="27" y="-1"/>
      <point x="27" y="7" type="curve" smooth="yes"/>
      <point x="27" y="14"/>
      <point x="34" y="20"/>
      <point x="49" y="24" type="curve"/>
      <point x="104" y="35"/>
      <point x="130" y="53"/>
      <point x="130" y="96" type="curve" smooth="yes"/>
      <point x="130" y="560" type="line" smooth="yes"/>
      <point x="130" y="607"/>
      <point x="120" y="613"/>
      <point x="72" y="622" type="curve" smooth="yes"/>
      <point x="48" y="626"/>
      <point x="36" y="633"/>
      <point x="36" y="642" type="curve" smooth="yes"/>
      <point x="36" y="649"/>
      <point x="46" y="653"/>
      <point x="65" y="653" type="curve" smooth="yes"/>
    </contour>
  </outline>
</glyph>
<glyph name="ldot" format="1">
  <advance width="256"/>
  <unicode hex="0140"/>
  <outline>
    <contour>
      <point x="219" y="409"/>
      <point x="231" y="414"/>
      <point x="246" y="414" type="curve" smooth="yes"/>
      <point x="275" y="414"/>
      <point x="296" y="393"/>
      <point x="296" y="364" type="curve" smooth="yes"/>
      <point x="296" y="335"/>
      <point x="275" y="314"/>
      <point x="246" y="314" type="curve" smooth="yes"/>
      <point x="217" y="314"/>
      <point x="196" y="335"/>
      <point x="196" y="364" type="curve" smooth="yes"/>
      <point x="196" y="379"/>
      <point x="201" y="391"/>
      <point x="210" y="400" type="curve" smooth="yes"/>
    </contour>
    <contour>
      <point x="120" y="2" type="line"/>
      <point x="39" y="-3" type="line"/>
      <point x="26" y="-3"/>
      <point x="19" y="0"/>
      <point x="19" y="7" type="curve" smooth="yes"/>
      <point x="19" y="13"/>
      <point x="28" y="19"/>
      <point x="47" y="25" type="curve" smooth="yes"/>
      <point x="66" y="31"/>
      <point x="77" y="37"/>
      <point x="80" y="44" type="curve"/>
      <point x="83" y="50"/>
      <point x="85" y="56"/>
      <point x="85" y="62" type="curve" smooth="yes"/>
      <point x="85" y="566" type="line" smooth="yes"/>
      <point x="85" y="608"/>
      <point x="70" y="632"/>
      <point x="39" y="639" type="curve" smooth="yes"/>
      <point x="34" y="640"/>
      <point x="31" y="645"/>
      <point x="31" y="652" type="curve" smooth="yes"/>
      <point x="31" y="659"/>
      <point x="33" y="663"/>
      <point x="38" y="664" type="curve" smooth="yes"/>
      <point x="55" y="668"/>
      <point x="93" y="681"/>
      <point x="154" y="704" type="curve"/>
      <point x="155" y="704" type="line"/>
      <point x="156" y="705" type="line"/>
      <point x="160" y="705"/>
      <point x="162" y="703"/>
      <point x="162" y="698" type="curve" smooth="yes"/>
      <point x="162" y="696"/>
      <point x="161" y="690"/>
      <point x="160" y="680" type="curve" smooth="yes"/>
      <point x="157" y="654"/>
      <point x="155" y="615"/>
      <point x="155" y="562" type="curve" smooth="yes"/>
      <point x="155" y="62" type="line" smooth="yes"/>
      <point x="155" y="35"/>
      <point x="173" y="32"/>
      <point x="201" y="23" type="curve"/>
      <point x="214" y="18"/>
      <point x="221" y="13"/>
      <point x="221" y="7" type="curve" smooth="yes"/>
      <point x="221" y="0"/>
      <point x="214" y="-3"/>
      <point x="201" y="-3" type="curve"/>
    </contour>
  </outline>
</glyph>
<glyph name="lslash" format="1">
  <advance width="244"/>
  <unicode hex="0142"/>
  <outline>
    <contour>
      <point x="122" y="2" type="line"/>
      <point x="44" y="-3" type="line"/>
      <point x="41" y="-3" type="line" smooth="yes"/>
      <point x="28" y="-3"/>
      <point x="21" y="0"/>
      <point x="21" y="7" type="curve" smooth="yes"/>
      <point x="21" y="13"/>
      <point x="30" y="19"/>
      <point x="49" y="25" type="curve" smooth="yes"/>
      <point x="68" y="31"/>
      <point x="79" y="37"/>
      <point x="82" y="44" type="curve"/>
      <point x="85" y="50"/>
      <point x="87" y="56"/>
      <point x="87" y="62" type="curve" smooth="yes"/>
      <point x="87" y="317" type="line"/>
      <point x="33" y="288" type="line" smooth="yes"/>
      <point x="25" y="284"/>
      <point x="13" y="295"/>
      <point x="13" y="306" type="curve" smooth="yes"/>
      <point x="13" y="311"/>
      <point x="17" y="317"/>
      <point x="26" y="322" type="curve" smooth="yes"/>
      <point x="87" y="355" type="line"/>
      <point x="87" y="566" type="line" smooth="yes"/>
      <point x="87" y="589"/>
      <point x="70" y="632"/>
      <point x="41" y="639" type="curve"/>
      <point x="35" y="640"/>
      <point x="32" y="645"/>
      <point x="32" y="652" type="curve" smooth="yes"/>
      <point x="32" y="659"/>
      <point x="35" y="663"/>
      <point x="40" y="664" type="curve" smooth="yes"/>
      <point x="57" y="668"/>
      <point x="95" y="681"/>
      <point x="156" y="704" type="curve"/>
      <point x="157" y="704" type="line"/>
      <point x="158" y="705" type="line"/>
      <point x="162" y="705"/>
      <point x="164" y="703"/>
      <point x="164" y="698" type="curve" smooth="yes"/>
      <point x="164" y="696"/>
      <point x="163" y="690"/>
      <point x="162" y="680" type="curve" smooth="yes"/>
      <point x="159" y="649"/>
      <point x="158" y="609"/>
      <point x="158" y="562" type="curve" smooth="yes"/>
      <point x="158" y="393" type="line"/>
      <point x="215" y="423" type="line"/>
      <point x="218" y="424"/>
      <point x="220" y="425"/>
      <point x="222" y="425" type="curve" smooth="yes"/>
      <point x="229" y="425"/>
      <point x="233" y="418"/>
      <point x="233" y="405" type="curve" smooth="yes"/>
      <point x="233" y="398"/>
      <point x="227" y="392"/>
      <point x="215" y="385" type="curve"/>
      <point x="157" y="355" type="line"/>
      <point x="157" y="62" type="line" smooth="yes"/>
      <point x="157" y="35"/>
      <point x="175" y="32"/>
      <point x="203" y="23" type="curve"/>
      <point x="216" y="18"/>
      <point x="223" y="13"/>
      <point x="223" y="7" type="curve" smooth="yes"/>
      <point x="223" y="0"/>
      <point x="216" y="-3"/>
      <point x="203" y="-3" type="curve" smooth="yes"/>
      <point x="200" y="-3" type="line"/>
    </contour>
  </outline>
</glyph>
<glyph name="ncommaaccent" format="1">
  <advance width="527"/>
  <unicode hex="0146"/>
  <outline>
    <contour>
      <point x="214" y="-275"/>
      <point x="210" y="-272"/>
      <point x="210" y="-266" type="curve" smooth="yes"/>
      <point x="210" y="-261"/>
      <point x="217" y="-255"/>
      <point x="231" y="-250" type="curve" smooth="yes"/>
      <point x="258" y="-240"/>
      <point x="277" y="-206"/>
      <point x="277" y="-175" type="curve" smooth="yes"/>
      <point x="277" y="-160"/>
      <point x="267" y="-150"/>
      <point x="247" y="-145" type="curve"/>
      <point x="222" y="-140"/>
      <point x="197" y="-121"/>
      <point x="197" y="-98" type="curve" smooth="yes"/>
      <point x="197" y="-75"/>
      <point x="215" y="-57"/>
      <point x="243" y="-57" type="curve" smooth="yes"/>
      <point x="291" y="-57"/>
      <point x="331" y="-97"/>
      <point x="331" y="-161" type="curve" smooth="yes"/>
      <point x="331" y="-226"/>
      <point x="262" y="-275"/>
      <point x="223" y="-275" type="curve" smooth="yes"/>
    </contour>
    <contour>
      <point x="405" y="2" type="line"/>
      <point x="323" y="-3" type="line"/>
      <point x="310" y="-3"/>
      <point x="303" y="0"/>
      <point x="303" y="7" type="curve" smooth="yes"/>
      <point x="303" y="13"/>
      <point x="311" y="19"/>
      <point x="326" y="24" type="curve"/>
      <point x="327" y="24"/>
      <point x="328" y="24"/>
      <point x="330" y="25" type="curve"/>
      <point x="352" y="32"/>
      <point x="365" y="41"/>
      <point x="368" y="52" type="curve"/>
      <point x="369" y="55"/>
      <point x="369" y="59"/>
      <point x="369" y="62" type="curve" smooth="yes"/>
      <point x="369" y="272" type="line" smooth="yes"/>
      <point x="369" y="329"/>
      <point x="335" y="365"/>
      <point x="271" y="365" type="curve" smooth="yes"/>
      <point x="206" y="365"/>
      <point x="160" y="341"/>
      <point x="160" y="268" type="curve" smooth="yes"/>
      <point x="160" y="62" type="line" smooth="yes"/>
      <point x="160" y="35"/>
      <point x="178" y="32"/>
      <point x="206" y="23" type="curve"/>
      <point x="219" y="18"/>
      <point x="226" y="13"/>
      <point x="226" y="7" type="curve" smooth="yes"/>
      <point x="226" y="0"/>
      <point x="219" y="-3"/>
      <point x="206" y="-3" type="curve"/>
      <point x="125" y="2" type="line"/>
      <point x="44" y="-3" type="line"/>
      <point x="31" y="-3"/>
      <point x="24" y="0"/>
      <point x="24" y="7" type="curve" smooth="yes"/>
      <point x="24" y="19"/>
      <point x="56" y="27"/>
      <point x="60" y="28" type="curve"/>
      <point x="63" y="28"/>
      <point x="77" y="35"/>
      <point x="80" y="39" type="curve"/>
      <point x="87" y="46"/>
      <point x="90" y="54"/>
      <point x="90" y="62" type="curve" smooth="yes"/>
      <point x="90" y="277" type="line" smooth="yes"/>
      <point x="90" y="320"/>
      <point x="76" y="344"/>
      <point x="49" y="349" type="curve" smooth="yes"/>
      <point x="44" y="350"/>
      <point x="41" y="355"/>
      <point x="41" y="362" type="curve" smooth="yes"/>
      <point x="41" y="369"/>
      <point x="43" y="373"/>
      <point x="48" y="374" type="curve" smooth="yes"/>
      <point x="83" y="382"/>
      <point x="119" y="400"/>
      <point x="158" y="429" type="curve"/>
      <point x="159" y="430"/>
      <point x="160" y="430"/>
      <point x="162" y="430" type="curve" smooth="yes"/>
      <point x="163" y="430"/>
      <point x="165" y="427"/>
      <point x="167" y="421" type="curve"/>
      <point x="160" y="356" type="line"/>
      <point x="160" y="351"/>
      <point x="160" y="349"/>
      <point x="161" y="348" type="curve"/>
      <point x="198" y="379"/>
      <point x="269" y="414"/>
      <point x="329" y="414" type="curve" smooth="yes"/>
      <point x="389" y="414"/>
      <point x="439" y="354"/>
      <point x="439" y="275" type="curve" smooth="yes"/>
      <point x="439" y="62" type="line" smooth="yes"/>
      <point x="439" y="35"/>
      <point x="457" y="32"/>
      <point x="485" y="23" type="curve"/>
      <point x="498" y="18"/>
      <point x="505" y="13"/>
      <point x="505" y="7" type="curve" smooth="yes"/>
      <point x="505" y="0"/>
      <point x="498" y="-3"/>
      <point x="485" y="-3" type="curve"/>
    </contour>
  </outline>
</glyph>
<glyph name="Eng" format="1">
  <advance width="770"/>
  <unicode hex="014A"/>
  <outline>
    <contour>
      <point x="631" y="650" type="line"/>
      <point x="746" y="653" type="line" smooth="yes"/>
      <point x="765" y="653"/>
      <point x="775" y="649"/>
      <point x="775" y="642" type="curve" smooth="yes"/>
      <point x="775" y="633"/>
      <point x="763" y="626"/>
      <point x="740" y="622" type="curve" smooth="yes"/>
      <point x="693" y="613"/>
      <point x="679" y="601"/>
      <point x="679" y="568" type="curve" smooth="yes"/>
      <point x="679" y="14" type="line" smooth="yes"/>
      <point x="679" y="-49"/>
      <point x="656" y="-167"/>
      <point x="615" y="-217" type="curve" smooth="yes"/>
      <point x="594" y="-242"/>
      <point x="569" y="-255"/>
      <point x="540" y="-255" type="curve" smooth="yes"/>
      <point x="480" y="-255"/>
      <point x="421" y="-235"/>
      <point x="421" y="-199" type="curve" smooth="yes"/>
      <point x="421" y="-178"/>
      <point x="432" y="-151"/>
      <point x="448" y="-151" type="curve" smooth="yes"/>
      <point x="469" y="-151"/>
      <point x="485" y="-159"/>
      <point x="496" y="-174" type="curve"/>
      <point x="513" y="-199"/>
      <point x="535" y="-211"/>
      <point x="560" y="-211" type="curve" smooth="yes"/>
      <point x="589" y="-211"/>
      <point x="618" y="-136"/>
      <point x="618" y="-63" type="curve" smooth="yes"/>
      <point x="618" y="-26"/>
      <point x="611" y="1"/>
      <point x="598" y="20" type="curve" smooth="yes"/>
      <point x="585" y="38"/>
      <point x="458" y="193"/>
      <point x="219" y="484" type="curve" smooth="yes"/>
      <point x="210" y="495"/>
      <point x="203" y="500"/>
      <point x="198" y="500" type="curve" smooth="yes"/>
      <point x="192" y="500"/>
      <point x="189" y="493"/>
      <point x="189" y="479" type="curve" smooth="yes"/>
      <point x="186" y="314"/>
      <point x="184" y="189"/>
      <point x="184" y="104" type="curve" smooth="yes"/>
      <point x="184" y="59"/>
      <point x="205" y="32"/>
      <point x="248" y="24" type="curve" smooth="yes"/>
      <point x="270" y="20"/>
      <point x="281" y="14"/>
      <point x="281" y="7" type="curve" smooth="yes"/>
      <point x="281" y="-1"/>
      <point x="271" y="-5"/>
      <point x="252" y="-5" type="curve"/>
      <point x="158" y="0" type="line"/>
      <point x="67" y="-5" type="line"/>
      <point x="48" y="-5"/>
      <point x="38" y="-1"/>
      <point x="38" y="7" type="curve" smooth="yes"/>
      <point x="38" y="14"/>
      <point x="48" y="20"/>
      <point x="67" y="23" type="curve" smooth="yes"/>
      <point x="105" y="30"/>
      <point x="125" y="80"/>
      <point x="129" y="107" type="curve" smooth="yes"/>
      <point x="141" y="207"/>
      <point x="147" y="340"/>
      <point x="147" y="507" type="curve" smooth="yes"/>
      <point x="147" y="572"/>
      <point x="112" y="600"/>
      <point x="58" y="617" type="curve" smooth="yes"/>
      <point x="31" y="626"/>
      <point x="17" y="635"/>
      <point x="17" y="644" type="curve" smooth="yes"/>
      <point x="17" y="653"/>
      <point x="25" y="658"/>
      <point x="40" y="658" type="curve" smooth="yes"/>
      <point x="194" y="653" type="line" smooth="yes"/>
      <point x="201" y="653"/>
      <point x="209" y="647"/>
      <point x="218" y="636" type="curve"/>
      <point x="235" y="612"/>
      <point x="574" y="186"/>
      <point x="598" y="158" type="curve" smooth="yes"/>
      <point x="610" y="143"/>
      <point x="619" y="136"/>
      <point x="625" y="136" type="curve" smooth="yes"/>
      <point x="630" y="136"/>
      <point x="633" y="143"/>
      <point x="634" y="157" type="curve"/>
      <point x="635" y="200"/>
      <point x="636" y="306"/>
      <point x="636" y="477" type="curve" smooth="yes"/>
      <point x="636" y="564" type="line"/>
      <point x="635" y="588"/>
      <point x="605" y="615"/>
      <point x="571" y="621" type="curve" smooth="yes"/>
      <point x="554" y="624"/>
      <point x="545" y="630"/>
      <point x="545" y="639" type="curve" smooth="yes"/>
      <point x="545" y="646"/>
      <point x="555" y="650"/>
      <point x="574" y="650" type="curve" smooth="yes"/>
    </contour>
  </outline>
</glyph>
<glyph name="Obreve" format="1">
  <advance width="763"/>
  <unicode hex="014E"/>
  <outline>
    <contour>
      <point x="233" y="838"/>
      <point x="236" y="846"/>
      <point x="243" y="846" type="curve" smooth="yes"/>
      <point x="250" y="846"/>
      <point x="257" y="839"/>
      <point x="266" y="824" type="curve"/>
      <point x="282" y="795"/>
      <point x="322" y="762"/>
      <point x="383" y="762" type="curve" smooth="yes"/>
      <point x="444" y="762"/>
      <point x="484" y="795"/>
      <point x="501" y="824" type="curve"/>
      <point x="509" y="839"/>
      <point x="516" y="846"/>
      <point x="523" y="846" type="curve" smooth="yes"/>
      <point x="530" y="846"/>
      <point x="533" y="838"/>
      <point x="533" y="822" type="curve" smooth="yes"/>
      <point x="533" y="757"/>
      <point x="462" y="692"/>
      <point x="382" y="692" type="curve" smooth="yes"/>
      <point x="302" y="692"/>
      <point x="233" y="749"/>
      <point x="233" y="822" type="curve" smooth="yes"/>
    </contour>
    <contour>
      <point x="621" y="497"/>
      <point x="530" y="625"/>
      <point x="381" y="625" type="curve" smooth="yes"/>
      <point x="232" y="625"/>
      <point x="142" y="502"/>
      <point x="142" y="340" type="curve" smooth="yes"/>
      <point x="142" y="178"/>
      <point x="251" y="25"/>
      <point x="396" y="25" type="curve" smooth="yes"/>
      <point x="541" y="25"/>
      <point x="621" y="128"/>
      <point x="621" y="313" type="curve" smooth="yes"/>
    </contour>
    <contour>
      <point x="45" y="444"/>
      <point x="95" y="550"/>
      <point x="202" y="615" type="curve" smooth="yes"/>
      <point x="255" y="648"/>
      <point x="318" y="664"/>
      <point x="390" y="664" type="curve" smooth="yes"/>
      <point x="569" y="664"/>
      <point x="718" y="527"/>
      <point x="718" y="335" type="curve" smooth="yes"/>
      <point x="718" y="241"/>
      <point x="689" y="160"/>
      <point x="632" y="93" type="curve" smooth="yes"/>
      <point x="577" y="28"/>
      <point x="487" y="-14"/>
      <point x="382" y="-14" type="curve" smooth="yes"/>
      <point x="202" y="-14"/>
      <point x="45" y="133"/>
      <point x="45" y="320" type="curve" smooth="yes"/>
    </contour>
  </outline>
</glyph>
<glyph name="OE" format="1">
  <advance width="933"/>
  <unicode hex="0152"/>
  <outline>
    <contour>
      <point x="573" y="1" type="line" smooth="yes"/>
      <point x="548" y="1"/>
      <point x="526" y="0"/>
      <point x="508" y="-1" type="curve"/>
      <point x="489" y="-3"/>
      <point x="478" y="-4"/>
      <point x="473" y="-4" type="curve"/>
      <point x="466" y="-5" type="line"/>
      <point x="440" y="-11"/>
      <point x="412" y="-14"/>
      <point x="382" y="-14" type="curve" smooth="yes"/>
      <point x="202" y="-14"/>
      <point x="45" y="133"/>
      <point x="45" y="320" type="curve" smooth="yes"/>
      <point x="45" y="444"/>
      <point x="95" y="550"/>
      <point x="202" y="615" type="curve" smooth="yes"/>
      <point x="255" y="648"/>
      <point x="318" y="664"/>
      <point x="390" y="664" type="curve" smooth="yes"/>
      <point x="419" y="664"/>
      <point x="449" y="660"/>
      <point x="481" y="652" type="curve" smooth="yes"/>
      <point x="489" y="650"/>
      <point x="517" y="649"/>
      <point x="564" y="649" type="curve" smooth="yes"/>
      <point x="856" y="653" type="line" smooth="yes"/>
      <point x="867" y="653"/>
      <point x="873" y="650"/>
      <point x="874" y="644" type="curve" smooth="yes"/>
      <point x="884" y="590"/>
      <point x="889" y="557"/>
      <point x="889" y="545" type="curve" smooth="yes"/>
      <point x="889" y="532"/>
      <point x="884" y="526"/>
      <point x="875" y="526" type="curve" smooth="yes"/>
      <point x="870" y="526"/>
      <point x="866" y="529"/>
      <point x="864" y="536" type="curve" smooth="yes"/>
      <point x="844" y="599"/>
      <point x="832" y="618"/>
      <point x="775" y="618" type="curve" smooth="yes"/>
      <point x="644" y="618" type="line" smooth="yes"/>
      <point x="631" y="618"/>
      <point x="608" y="603"/>
      <point x="608" y="586" type="curve" smooth="yes"/>
      <point x="608" y="374" type="line" smooth="yes"/>
      <point x="608" y="362"/>
      <point x="617" y="352"/>
      <point x="626" y="352" type="curve" smooth="yes"/>
      <point x="722" y="352" type="line" smooth="yes"/>
      <point x="751" y="352"/>
      <point x="772" y="365"/>
      <point x="783" y="391" type="curve"/>
      <point x="786" y="396"/>
      <point x="797" y="408"/>
      <point x="802" y="408" type="curve" smooth="yes"/>
      <point x="806" y="408"/>
      <point x="814" y="401"/>
      <point x="814" y="392" type="curve"/>
      <point x="811" y="337" type="line"/>
      <point x="813" y="269" type="line" smooth="yes"/>
      <point x="813" y="258"/>
      <point x="810" y="252"/>
      <point x="804" y="252" type="curve" smooth="yes"/>
      <point x="793" y="252"/>
      <point x="786" y="260"/>
      <point x="781" y="275" type="curve" smooth="yes"/>
      <point x="771" y="305"/>
      <point x="756" y="320"/>
      <point x="735" y="320" type="curve" smooth="yes"/>
      <point x="642" y="320" type="line" smooth="yes"/>
      <point x="617" y="320"/>
      <point x="608" y="315"/>
      <point x="608" y="294" type="curve" smooth="yes"/>
      <point x="608" y="102" type="line" smooth="yes"/>
      <point x="608" y="53"/>
      <point x="627" y="35"/>
      <point x="674" y="35" type="curve" smooth="yes"/>
      <point x="778" y="35" type="line" smooth="yes"/>
      <point x="849" y="35"/>
      <point x="865" y="52"/>
      <point x="896" y="116" type="curve"/>
      <point x="904" y="131"/>
      <point x="923" y="127"/>
      <point x="923" y="115" type="curve" smooth="yes"/>
      <point x="923" y="88"/>
      <point x="917" y="54"/>
      <point x="906" y="12" type="curve" smooth="yes"/>
      <point x="903" y="1"/>
      <point x="899" y="-5"/>
      <point x="892" y="-5" type="curve" smooth="yes"/>
    </contour>
    <contour>
      <point x="529" y="364" type="line"/>
      <point x="528" y="477" type="line"/>
      <point x="528" y="540" type="line"/>
      <point x="521" y="597"/>
      <point x="470" y="625"/>
      <point x="375" y="625" type="curve" smooth="yes"/>
      <point x="234" y="625"/>
      <point x="142" y="502"/>
      <point x="142" y="340" type="curve" smooth="yes"/>
      <point x="142" y="178"/>
      <point x="251" y="25"/>
      <point x="395" y="25" type="curve" smooth="yes"/>
      <point x="465" y="25"/>
      <point x="506" y="33"/>
      <point x="518" y="49" type="curve"/>
      <point x="525" y="57"/>
      <point x="528" y="67"/>
      <point x="528" y="80" type="curve" smooth="yes"/>
      <point x="528" y="81" type="line"/>
      <point x="529" y="322" type="line"/>
    </contour>
  </outline>
</glyph>
